{"glyphs":{"0":{"ha":680,"x_min":71,"x_max":608,"o":"m 608 498 q 582 767 608 653 q 497 944 556 881 q 342 1006 439 1006 q 184 943 244 1006 q 98 766 125 880 q 71 496 71 651 q 101 215 71 328 q 192 45 132 102 q 341 -12 252 -12 q 462 23 412 -12 q 545 123 513 57 q 592 283 577 189 q 608 498 608 378 m 140 498 q 159 736 140 635 q 223 891 178 836 q 342 945 267 945 q 460 891 416 945 q 522 736 503 836 q 540 497 540 635 q 520 253 540 353 q 456 101 500 153 q 342 49 413 49 q 227 101 271 49 q 161 253 182 153 q 140 498 140 353 "},"1":{"ha":680,"x_min":117,"x_max":412,"o":"m 412 0 l 412 991 l 355 991 l 117 795 l 156 749 l 279 852 q 318 885 302 871 q 348 916 333 899 q 346 863 347 889 q 345 809 345 838 q 345 745 345 780 l 345 0 l 412 0 "},"2":{"ha":680,"x_min":64,"x_max":599,"o":"m 599 0 l 599 62 l 150 62 l 150 66 l 367 326 q 473 464 428 399 q 542 598 517 530 q 566 749 566 667 q 536 886 566 829 q 450 975 505 944 q 319 1006 395 1006 q 234 996 275 1006 q 155 966 193 985 q 83 918 117 946 l 120 870 q 214 925 165 906 q 317 945 262 945 q 448 894 399 945 q 497 747 497 844 q 476 612 497 673 q 413 489 454 551 q 311 353 372 427 l 64 54 l 64 0 l 599 0 "},"3":{"ha":680,"x_min":60,"x_max":597,"o":"m 574 766 q 506 942 574 878 q 318 1006 437 1006 q 176 980 239 1006 q 62 912 113 954 l 97 864 q 164 908 130 889 q 235 936 198 926 q 316 946 273 946 q 454 899 402 946 q 505 761 505 851 q 474 643 505 692 q 390 569 444 595 q 270 544 337 544 l 186 544 l 186 484 l 268 484 q 403 463 345 484 q 494 394 461 441 q 526 269 526 347 q 467 106 526 167 q 290 46 408 46 q 168 62 229 46 q 60 102 107 78 l 60 35 q 167 -1 109 12 q 292 -14 225 -14 q 461 22 393 -14 q 563 122 529 58 q 597 268 597 185 q 542 437 597 374 q 389 516 487 499 l 389 521 q 484 567 441 535 q 550 650 526 600 q 574 766 574 700 "},"4":{"ha":680,"x_min":27,"x_max":662,"o":"m 662 243 l 662 304 l 518 304 l 518 998 l 447 998 l 27 299 l 27 243 l 452 243 l 452 0 l 518 0 l 518 243 l 662 243 m 452 304 l 96 304 l 385 786 q 420 849 405 819 q 452 913 436 880 l 455 913 q 454 876 454 895 q 453 839 454 858 q 452 797 452 819 q 452 746 452 774 l 452 304 "},"5":{"ha":680,"x_min":83,"x_max":606,"o":"m 325 597 q 235 591 275 597 q 168 576 195 584 l 196 929 l 548 929 l 548 991 l 138 991 l 102 539 l 137 511 q 217 530 174 522 q 309 538 261 538 q 481 477 426 538 q 536 307 536 416 q 508 171 536 229 q 425 80 479 113 q 290 47 370 47 q 176 63 231 47 q 83 104 122 80 l 83 35 q 174 0 120 13 q 292 -13 227 -13 q 462 27 392 -13 q 569 141 532 68 q 606 309 606 214 q 573 463 606 399 q 478 563 541 528 q 325 597 415 597 "},"6":{"ha":680,"x_min":77,"x_max":612,"o":"m 77 424 q 94 242 77 323 q 145 103 111 161 q 232 15 180 45 q 353 -16 283 -16 q 493 25 435 -16 q 582 139 551 66 q 612 311 612 212 q 584 470 612 401 q 502 576 556 538 q 368 614 447 614 q 262 593 306 614 q 190 541 218 572 q 147 476 161 509 l 143 476 q 181 734 146 630 q 280 892 215 839 q 440 945 345 945 q 502 940 473 945 q 555 928 532 935 l 555 989 q 502 1001 532 996 q 439 1005 471 1005 q 311 982 368 1005 q 209 913 253 960 q 136 798 165 867 q 92 635 107 728 q 77 424 77 542 m 352 45 q 253 76 292 45 q 190 154 213 106 q 158 253 168 201 q 149 346 149 304 q 173 448 149 400 q 245 525 198 496 q 357 555 292 555 q 499 489 454 555 q 545 311 545 424 q 494 113 545 181 q 352 45 444 45 "},"7":{"ha":680,"x_min":64,"x_max":608,"o":"m 184 0 l 256 0 l 608 941 l 608 991 l 64 991 l 64 929 l 538 929 l 184 0 "},"8":{"ha":680,"x_min":65,"x_max":612,"o":"m 340 1006 q 211 977 267 1006 q 124 898 155 949 q 93 778 93 847 q 116 671 93 718 q 181 589 140 625 q 275 524 222 553 q 166 456 214 495 q 92 366 119 418 q 65 243 65 313 q 99 108 65 166 q 193 18 132 50 q 338 -14 254 -14 q 482 19 420 -14 q 578 111 543 52 q 612 249 612 170 q 585 366 612 316 q 508 455 557 416 q 395 526 459 494 q 494 589 452 554 q 561 671 537 625 q 585 778 585 717 q 555 899 585 848 q 470 978 525 950 q 340 1006 414 1006 m 132 242 q 157 352 132 306 q 227 432 182 397 q 331 493 272 466 l 359 479 q 463 414 421 449 q 525 337 505 378 q 545 248 545 296 q 489 100 545 156 q 336 45 433 45 q 188 99 243 45 q 132 242 132 153 m 340 947 q 470 902 422 947 q 518 775 518 858 q 497 684 518 722 q 436 615 475 645 q 340 557 396 585 q 245 614 286 583 q 182 684 204 644 q 159 775 159 723 q 209 901 159 856 q 340 947 259 947 "},"9":{"ha":680,"x_min":64,"x_max":600,"o":"m 600 570 q 583 750 600 670 q 532 888 566 831 q 446 976 498 945 q 325 1006 395 1006 q 184 965 242 1006 q 95 852 126 925 q 64 680 64 779 q 92 521 64 589 q 175 414 120 452 q 309 376 229 376 q 414 397 370 376 q 487 451 458 418 q 530 515 515 483 l 533 515 q 497 262 530 367 q 398 101 463 157 q 237 45 334 45 q 171 51 203 45 q 115 64 138 56 l 115 2 q 172 -10 138 -5 q 237 -14 206 -14 q 366 8 308 -14 q 467 77 423 31 q 540 193 511 123 q 585 357 570 263 q 600 570 600 451 m 326 945 q 426 915 386 945 q 488 837 465 884 q 519 739 510 789 q 528 648 528 688 q 503 544 528 593 q 432 466 478 496 q 320 435 385 435 q 177 502 222 435 q 132 681 132 568 q 182 877 132 809 q 326 945 233 945 "},"\u0000":{"ha":0,"x_min":0,"x_max":0,"o":""},"\r":{"ha":311,"x_min":0,"x_max":0,"o":""}," ":{"ha":311,"x_min":0,"x_max":0,"o":""},"!":{"ha":312,"x_min":104,"x_max":209,"o":"m 182 254 l 197 991 l 117 991 l 131 254 l 182 254 m 104 52 q 116 5 104 22 q 156 -12 129 -12 q 195 4 182 -12 q 209 52 209 20 q 196 98 209 83 q 156 114 182 114 q 116 97 129 114 q 104 52 104 81 "},"\"":{"ha":471,"x_min":92,"x_max":380,"o":"m 168 991 l 92 991 l 106 633 l 154 633 l 168 991 m 380 991 l 304 991 l 318 633 l 366 633 l 380 991 "},"#":{"ha":753,"x_min":32,"x_max":721,"o":"m 556 639 l 721 639 l 721 694 l 564 694 l 610 991 l 555 991 l 509 694 l 302 694 l 349 991 l 292 991 l 246 694 l 74 694 l 74 639 l 237 639 l 195 367 l 32 367 l 32 311 l 187 311 l 140 0 l 195 0 l 244 311 l 450 311 l 401 0 l 457 0 l 507 311 l 678 311 l 678 367 l 515 367 l 556 639 m 252 367 l 294 639 l 500 639 l 458 367 l 252 367 "},"$":{"ha":680,"x_min":68,"x_max":597,"o":"m 302 -81 l 353 -81 l 353 42 q 532 115 467 54 q 597 277 597 176 q 569 388 597 344 q 486 464 541 431 q 353 527 431 496 l 353 904 q 447 891 400 903 q 538 857 494 879 l 562 913 q 461 950 513 937 q 353 964 410 962 l 353 1055 l 302 1055 l 302 962 q 181 930 234 958 q 98 851 128 901 q 68 732 68 801 q 96 618 68 665 q 177 540 125 572 q 302 479 229 508 l 302 100 q 176 116 239 101 q 71 151 113 132 l 71 84 q 171 54 111 66 q 302 40 231 41 l 302 -81 m 353 103 l 353 460 q 453 410 413 435 q 513 353 493 385 q 533 275 533 321 q 484 154 533 197 q 353 103 435 110 m 302 547 q 212 592 250 568 q 153 650 174 616 q 132 734 132 684 q 154 822 132 785 q 214 878 176 858 q 302 903 252 899 l 302 547 "},"%":{"ha":982,"x_min":68,"x_max":913,"o":"m 238 1006 q 112 926 155 1006 q 68 696 68 846 q 112 464 68 545 q 238 383 155 383 q 365 464 321 383 q 409 696 409 544 q 366 927 409 848 q 238 1006 323 1006 m 238 954 q 322 889 295 954 q 350 696 350 823 q 322 503 350 568 q 238 437 294 437 q 155 502 183 437 q 127 696 127 568 q 156 890 127 825 q 238 954 184 954 m 742 991 l 682 991 l 240 0 l 300 0 l 742 991 m 743 609 q 617 531 661 609 q 574 300 574 453 q 618 65 574 144 q 743 -13 663 -13 q 869 65 825 -13 q 913 299 913 143 q 870 530 913 452 q 743 609 827 609 m 743 557 q 827 492 800 557 q 854 299 854 426 q 827 107 854 174 q 743 40 800 40 q 660 106 688 40 q 632 299 632 172 q 660 493 632 429 q 743 557 688 557 "},"&":{"ha":787,"x_min":62,"x_max":772,"o":"m 342 1006 q 241 982 284 1006 q 174 912 198 958 q 151 804 151 867 q 164 712 151 754 q 202 630 178 670 q 260 545 227 590 q 151 462 195 505 q 85 368 107 420 q 62 248 62 317 q 93 109 62 168 q 180 18 124 50 q 313 -14 236 -14 q 426 4 376 -14 q 516 55 476 22 q 590 127 556 87 l 689 0 l 772 0 l 632 176 q 699 306 671 232 q 737 456 726 380 l 670 456 q 641 332 662 392 q 590 229 620 272 l 351 532 q 478 646 432 582 q 525 803 525 710 q 502 913 525 868 q 438 983 479 959 q 342 1006 397 1006 m 297 498 l 551 177 q 451 83 507 119 q 317 47 396 47 q 182 101 232 47 q 132 250 132 155 q 149 350 132 307 q 203 428 167 393 q 297 498 240 464 m 340 949 q 429 910 397 949 q 461 803 461 871 q 425 676 461 731 q 313 577 389 621 q 242 688 269 633 q 216 803 216 743 q 249 910 216 871 q 340 949 281 949 "},"'":{"ha":258,"x_min":92,"x_max":168,"o":"m 168 991 l 92 991 l 106 633 l 155 633 l 168 991 "},"(":{"ha":379,"x_min":63,"x_max":331,"o":"m 63 383 q 87 154 63 262 q 156 -48 111 45 q 264 -220 201 -142 l 330 -220 q 223 -42 268 -138 q 155 161 179 54 q 132 384 132 269 q 182 712 132 557 q 331 994 233 868 l 264 994 q 155 817 199 914 q 86 611 110 720 q 63 383 63 501 "},")":{"ha":379,"x_min":49,"x_max":315,"o":"m 315 389 q 292 614 315 506 q 224 819 269 723 q 115 994 180 914 l 49 994 q 157 814 112 911 q 225 610 201 717 q 248 388 248 503 q 225 167 248 276 q 158 -40 202 58 q 49 -220 113 -138 l 115 -220 q 224 -46 180 -144 q 292 162 269 51 q 315 389 315 273 "},"*":{"ha":633,"x_min":66,"x_max":563,"o":"m 351 1055 l 281 1055 l 294 827 l 81 899 l 66 836 l 279 787 l 137 602 l 194 566 l 315 762 l 437 566 l 495 602 l 353 787 l 563 836 l 550 900 l 337 827 l 351 1055 "},"+":{"ha":682,"x_min":58,"x_max":623,"o":"m 370 518 l 370 814 l 312 814 l 312 518 l 58 518 l 58 460 l 312 460 l 312 167 l 370 167 l 370 460 l 623 460 l 623 518 l 370 518 "},",":{"ha":284,"x_min":53,"x_max":201,"o":"m 195 155 l 124 155 q 109 50 119 104 q 84 -61 98 -4 q 53 -180 71 -119 l 105 -180 q 144 -76 126 -130 q 177 34 162 -21 q 201 138 191 88 l 195 155 "},"-":{"ha":409,"x_min":46,"x_max":363,"o":"m 46 344 l 363 344 l 363 409 l 46 409 l 46 344 "},".":{"ha":303,"x_min":99,"x_max":205,"o":"m 99 52 q 112 5 99 22 q 151 -12 125 -12 q 191 4 178 -12 q 205 52 205 20 q 192 98 205 83 q 151 114 178 114 q 112 97 124 114 q 99 52 99 81 "},"/":{"ha":476,"x_min":24,"x_max":456,"o":"m 456 992 l 391 992 l 24 -1 l 92 -1 l 456 992 "},":":{"ha":303,"x_min":100,"x_max":205,"o":"m 100 52 q 112 6 100 23 q 151 -12 123 -12 q 192 5 179 -12 q 205 52 205 22 q 192 98 205 82 q 151 115 180 115 q 112 98 124 115 q 100 52 100 81 m 100 682 q 112 636 100 653 q 151 619 125 619 q 192 636 178 619 q 205 683 205 652 q 192 730 205 714 q 152 745 179 745 q 112 729 125 745 q 100 682 100 712 "},";":{"ha":302,"x_min":51,"x_max":206,"o":"m 193 155 l 123 155 q 106 51 116 102 q 83 -56 96 0 q 51 -180 70 -113 l 103 -180 q 142 -76 123 -130 q 175 34 160 -21 q 200 138 189 88 l 193 155 m 101 683 q 114 636 101 653 q 153 619 126 619 q 193 636 180 619 q 206 683 206 652 q 194 729 206 713 q 153 745 181 745 q 114 729 126 745 q 101 683 101 712 "},"<":{"ha":682,"x_min":58,"x_max":623,"o":"m 623 189 l 623 253 l 134 500 l 623 741 l 623 806 l 58 521 l 58 478 l 623 189 "},"=":{"ha":682,"x_min":59,"x_max":621,"o":"m 59 605 l 621 605 l 621 664 l 59 664 l 59 605 m 59 316 l 621 316 l 621 374 l 59 374 l 59 316 "},">":{"ha":682,"x_min":58,"x_max":623,"o":"m 58 253 l 58 189 l 623 478 l 623 521 l 58 806 l 58 741 l 548 500 l 58 253 "},"?":{"ha":490,"x_min":31,"x_max":450,"o":"m 161 254 l 218 254 l 218 278 q 225 362 218 327 q 252 428 233 397 q 307 496 271 459 q 381 577 349 538 q 432 663 414 616 q 450 774 450 709 q 389 947 450 888 q 224 1006 328 1006 q 122 992 169 1006 q 31 954 75 978 l 56 898 q 135 932 96 920 q 221 945 175 945 q 340 902 296 945 q 384 774 384 860 q 369 680 384 720 q 327 606 355 641 q 257 530 298 571 q 198 457 219 492 q 170 382 178 423 q 161 283 161 342 l 161 254 m 140 51 q 153 5 140 22 q 192 -12 165 -12 q 232 5 218 -12 q 245 52 245 21 q 232 99 245 83 q 193 114 219 114 q 153 97 165 114 q 140 51 140 81 "},"@":{"ha":1046,"x_min":74,"x_max":975,"o":"m 975 488 q 924 752 975 639 q 779 928 873 865 q 554 991 684 991 q 357 951 446 992 q 206 833 269 910 q 108 646 142 756 q 74 399 74 536 q 124 118 74 236 q 270 -65 174 -1 q 503 -129 366 -129 q 627 -116 570 -129 q 730 -80 684 -102 l 730 -22 q 623 -59 684 -45 q 502 -74 563 -74 q 300 -16 382 -74 q 176 149 218 42 q 133 401 133 256 q 161 618 133 519 q 244 788 190 716 q 377 898 299 859 q 553 937 454 937 q 747 883 666 938 q 873 727 829 828 q 917 488 917 627 q 901 336 917 399 q 856 240 886 273 q 783 207 827 207 q 717 240 739 207 q 694 341 694 274 q 696 388 694 361 q 699 438 698 415 l 709 689 q 641 707 681 699 q 559 715 602 715 q 431 677 486 715 q 347 569 377 639 q 317 401 317 498 q 362 218 317 282 q 491 153 408 153 q 587 186 545 153 q 652 292 629 220 l 656 292 q 691 191 659 228 q 782 153 724 153 q 867 177 831 153 q 927 246 903 201 q 963 352 951 290 q 975 488 975 414 m 378 401 q 400 540 378 481 q 463 630 422 598 q 558 662 503 662 q 607 659 584 662 q 648 648 629 655 l 637 450 q 595 266 631 325 q 498 207 559 207 q 409 257 439 207 q 378 401 378 307 "},"A":{"ha":699,"x_min":0,"x_max":698,"o":"m 627 0 l 698 0 l 389 994 l 314 994 l 0 0 l 71 0 l 182 355 l 517 355 l 627 0 m 498 418 l 201 418 l 315 798 q 327 840 321 818 q 339 883 333 861 q 350 926 345 904 q 362 882 356 905 q 374 838 368 860 q 386 798 380 817 l 498 418 "},"B":{"ha":747,"x_min":123,"x_max":681,"o":"m 123 991 l 123 0 l 387 0 q 543 32 477 0 q 645 126 609 64 q 681 280 681 189 q 660 397 681 347 q 597 477 640 446 q 489 521 555 508 l 489 525 q 581 567 543 536 q 637 646 618 598 q 656 755 656 694 q 584 934 656 876 q 360 991 512 991 l 123 991 m 191 551 l 191 931 l 354 931 q 532 887 477 931 q 587 750 587 844 q 533 601 587 650 q 366 551 480 551 l 191 551 m 191 490 l 369 490 q 499 470 446 490 q 582 403 553 449 q 610 283 610 357 q 551 116 610 172 q 380 61 492 61 l 191 61 l 191 490 "},"C":{"ha":728,"x_min":79,"x_max":690,"o":"m 480 944 q 573 933 527 944 q 663 899 618 922 l 690 958 q 590 994 642 981 q 480 1006 537 1006 q 306 967 380 1006 q 180 858 231 928 q 105 696 130 788 q 79 498 79 604 q 125 227 79 342 q 258 49 171 112 q 469 -14 345 -14 q 582 -3 532 -14 q 671 26 632 8 l 671 87 q 584 60 633 71 q 475 48 535 48 q 298 104 371 48 q 188 261 226 159 q 151 497 151 362 q 171 671 151 589 q 233 813 192 752 q 336 909 274 875 q 480 944 398 944 "},"D":{"ha":830,"x_min":123,"x_max":750,"o":"m 750 506 q 705 773 750 665 q 569 937 659 882 q 345 991 479 991 l 123 991 l 123 0 l 328 0 q 562 57 468 0 q 703 227 656 114 q 750 506 750 340 m 679 503 q 592 173 679 283 q 324 62 505 62 l 191 62 l 191 930 l 336 930 q 531 882 455 930 q 643 738 607 833 q 679 503 679 642 "},"E":{"ha":654,"x_min":123,"x_max":578,"o":"m 578 0 l 578 62 l 191 62 l 191 490 l 556 490 l 556 552 l 191 552 l 191 930 l 578 930 l 578 991 l 123 991 l 123 0 l 578 0 "},"F":{"ha":601,"x_min":123,"x_max":579,"o":"m 191 0 l 191 444 l 558 444 l 558 506 l 191 506 l 191 930 l 579 930 l 579 991 l 123 991 l 123 0 l 191 0 "},"G":{"ha":870,"x_min":79,"x_max":777,"o":"m 475 501 l 475 439 l 711 439 l 711 83 q 618 58 669 67 q 508 48 567 48 q 309 102 389 48 q 190 255 230 155 q 151 494 151 355 q 192 730 151 629 q 315 888 234 831 q 515 945 397 945 q 627 931 571 945 q 738 886 682 917 l 766 945 q 646 992 708 977 q 515 1006 584 1006 q 278 941 375 1006 q 130 761 180 876 q 79 494 79 645 q 126 227 79 341 q 266 50 173 113 q 499 -14 359 -14 q 643 0 572 -14 q 777 40 714 13 l 777 501 l 475 501 "},"H":{"ha":849,"x_min":123,"x_max":727,"o":"m 727 0 l 727 991 l 659 991 l 659 552 l 191 552 l 191 991 l 123 991 l 123 0 l 191 0 l 191 489 l 659 489 l 659 0 l 727 0 "},"I":{"ha":313,"x_min":123,"x_max":191,"o":"m 123 0 l 191 0 l 191 991 l 123 991 l 123 0 "},"J":{"ha":311,"x_min":-95,"x_max":193,"o":"m 1 -251 q 109 -223 67 -251 q 172 -142 151 -196 q 193 -9 193 -88 l 193 991 l 125 991 l 125 -5 q 112 -106 125 -66 q 72 -167 100 -146 q -2 -188 43 -188 q -52 -183 -28 -188 q -95 -172 -76 -179 l -95 -234 q -53 -247 -77 -242 q 1 -251 -28 -251 "},"K":{"ha":684,"x_min":123,"x_max":686,"o":"m 686 0 l 343 564 l 673 991 l 593 991 l 283 593 q 231 521 255 553 q 191 466 208 490 l 191 991 l 123 991 l 123 0 l 191 0 l 191 393 l 295 511 l 607 0 l 686 0 "},"L":{"ha":601,"x_min":123,"x_max":573,"o":"m 123 0 l 573 0 l 573 63 l 191 63 l 191 991 l 123 991 l 123 0 "},"M":{"ha":1069,"x_min":123,"x_max":947,"o":"m 501 0 l 566 0 l 880 903 l 884 903 q 882 839 883 868 q 881 787 881 810 q 880 745 880 763 l 880 0 l 947 0 l 947 991 l 847 991 l 536 102 l 532 102 l 223 991 l 123 991 l 123 0 l 189 0 l 189 743 q 188 788 189 764 q 186 841 187 812 q 184 904 185 869 l 187 904 l 501 0 "},"N":{"ha":868,"x_min":123,"x_max":745,"o":"m 745 0 l 745 991 l 680 991 l 680 326 q 681 261 680 296 q 683 189 682 225 q 684 119 684 152 l 681 119 l 199 991 l 123 991 l 123 0 l 189 0 l 189 674 q 188 747 189 712 q 186 815 186 783 q 184 878 185 847 l 187 878 l 670 0 l 745 0 "},"O":{"ha":896,"x_min":79,"x_max":816,"o":"m 816 497 q 776 764 816 649 q 656 943 736 879 q 452 1006 575 1006 q 248 946 330 1006 q 122 772 165 886 q 79 498 79 659 q 101 299 79 392 q 166 136 122 206 q 281 26 211 66 q 449 -14 351 -14 q 615 25 546 -14 q 729 134 685 64 q 795 296 774 203 q 816 497 816 389 m 151 498 q 183 736 151 636 q 283 890 216 836 q 452 944 350 944 q 671 828 597 944 q 745 497 745 713 q 713 256 745 357 q 616 102 682 155 q 449 48 550 48 q 283 103 350 48 q 183 258 216 157 q 151 498 151 359 "},"P":{"ha":693,"x_min":123,"x_max":633,"o":"m 319 991 l 123 991 l 123 0 l 191 0 l 191 410 l 309 410 q 452 429 391 410 q 553 486 513 448 q 613 580 593 524 q 633 713 633 637 q 555 925 633 859 q 319 991 477 991 m 315 930 q 502 880 441 930 q 563 711 563 829 q 533 571 563 623 q 447 495 504 518 q 306 471 389 471 l 191 471 l 191 930 l 315 930 "},"Q":{"ha":896,"x_min":79,"x_max":816,"o":"m 816 497 q 773 777 816 664 q 650 948 731 890 q 453 1006 568 1006 q 248 946 331 1006 q 122 772 165 886 q 79 498 79 659 q 101 296 79 389 q 168 133 123 203 q 282 25 213 64 q 446 -14 351 -14 q 467 -13 456 -14 q 488 -11 477 -12 l 640 -236 l 728 -236 l 557 3 q 700 93 643 28 q 787 261 758 159 q 816 497 816 363 m 151 498 q 183 736 151 636 q 283 890 216 836 q 453 944 351 944 q 671 829 597 944 q 745 497 745 713 q 713 256 745 357 q 616 102 682 155 q 448 48 550 48 q 282 103 349 48 q 183 258 216 157 q 151 498 151 359 "},"R":{"ha":708,"x_min":123,"x_max":681,"o":"m 315 991 l 123 991 l 123 0 l 191 0 l 191 433 l 378 433 l 602 0 l 681 0 l 442 452 q 545 505 503 470 q 610 594 587 540 q 633 722 633 648 q 598 880 633 821 q 491 965 562 939 q 315 991 420 991 m 311 930 q 503 883 442 930 q 564 721 564 836 q 505 550 564 606 q 340 494 445 494 l 191 494 l 191 930 l 311 930 "},"S":{"ha":656,"x_min":66,"x_max":591,"o":"m 591 259 q 562 385 591 336 q 479 467 533 434 q 349 533 425 500 q 240 586 286 559 q 169 652 194 613 q 144 755 144 692 q 171 857 144 815 q 244 921 197 899 q 355 943 291 943 q 449 932 399 943 q 549 898 499 922 l 574 958 q 472 993 528 980 q 355 1006 416 1006 q 211 977 275 1006 q 111 891 148 947 q 75 753 75 835 q 92 651 75 694 q 139 578 109 608 q 213 524 170 547 q 307 479 256 501 q 428 421 380 449 q 499 354 475 393 q 522 256 522 316 q 495 144 522 191 q 417 73 467 98 q 297 49 367 49 q 173 63 234 49 q 66 97 113 77 l 66 27 q 132 5 96 14 q 210 -8 168 -3 q 296 -14 251 -14 q 450 18 384 -14 q 553 111 516 50 q 591 259 591 172 "},"T":{"ha":610,"x_min":9,"x_max":599,"o":"m 338 0 l 338 930 l 599 930 l 599 991 l 9 991 l 9 930 l 269 930 l 269 0 l 338 0 "},"U":{"ha":846,"x_min":113,"x_max":734,"o":"m 734 991 l 665 991 l 665 326 q 636 168 665 230 q 553 77 608 106 q 424 48 499 48 q 244 117 307 48 q 181 330 181 185 l 181 991 l 113 991 l 113 329 q 193 73 113 159 q 422 -14 273 -14 q 587 23 517 -14 q 695 135 657 60 q 734 328 734 210 l 734 991 "},"V":{"ha":675,"x_min":0,"x_max":675,"o":"m 675 991 l 604 991 l 381 249 q 364 190 372 218 q 349 134 356 161 q 336 80 342 107 q 324 135 331 107 q 309 191 317 162 q 292 248 301 219 l 71 991 l 0 991 l 300 0 l 374 0 l 675 991 "},"W":{"ha":1088,"x_min":21,"x_max":1068,"o":"m 1068 991 l 998 991 l 827 283 q 811 216 819 248 q 798 151 804 183 q 787 85 792 119 q 778 136 782 112 q 769 183 773 159 q 759 231 764 206 q 747 283 753 256 l 574 991 l 508 991 l 340 285 q 329 238 334 262 q 318 189 323 214 q 308 138 313 164 q 299 89 303 113 q 292 128 296 107 q 283 174 288 149 q 272 225 278 198 q 259 283 266 252 l 91 991 l 21 991 l 259 0 l 336 0 l 513 746 q 522 784 517 766 q 529 821 526 803 q 535 857 532 839 q 541 893 538 875 q 548 853 544 873 q 555 814 551 833 q 564 776 559 795 q 573 736 568 757 l 751 0 l 827 0 l 1068 991 "},"X":{"ha":621,"x_min":6,"x_max":616,"o":"m 616 0 l 357 515 l 602 991 l 528 991 l 318 573 l 111 991 l 36 991 l 277 517 l 6 0 l 79 0 l 315 458 l 540 0 l 616 0 "},"Y":{"ha":606,"x_min":0,"x_max":606,"o":"m 303 460 l 73 991 l 0 991 l 269 382 l 269 0 l 338 0 l 338 385 l 606 991 l 532 991 l 303 460 "},"Z":{"ha":634,"x_min":45,"x_max":593,"o":"m 593 0 l 593 63 l 125 63 l 581 939 l 581 991 l 66 991 l 66 929 l 500 929 l 45 53 l 45 0 l 593 0 "},"[":{"ha":435,"x_min":115,"x_max":395,"o":"m 395 -220 l 395 -162 l 178 -162 l 178 936 l 395 936 l 395 994 l 115 994 l 115 -220 l 395 -220 "},"\\":{"ha":475,"x_min":24,"x_max":456,"o":"m 90 992 l 24 992 l 389 -1 l 456 -1 l 90 992 "},"]":{"ha":435,"x_min":41,"x_max":322,"o":"m 41 -162 l 41 -220 l 322 -220 l 322 994 l 41 994 l 41 936 l 257 936 l 257 -162 l 41 -162 "},"^":{"ha":684,"x_min":42,"x_max":642,"o":"m 42 439 l 109 439 l 345 916 l 575 439 l 642 439 l 369 995 l 323 995 l 42 439 "},"_":{"ha":569,"x_min":-3,"x_max":572,"o":"m 572 -179 l 572 -123 l -3 -123 l -3 -179 l 572 -179 "},"`":{"ha":348,"x_min":56,"x_max":293,"o":"m 135 1063 l 56 1063 l 56 1052 q 95 1000 72 1028 q 144 944 118 972 q 197 888 171 915 q 248 842 224 862 l 293 842 l 293 855 q 237 919 267 884 q 181 992 208 955 q 135 1063 154 1029 "},"a":{"ha":635,"x_min":58,"x_max":532,"o":"m 322 751 q 216 736 268 751 q 120 698 165 722 l 142 644 q 232 681 189 669 q 317 693 275 693 q 430 647 393 693 q 466 489 466 601 l 466 431 l 355 424 q 135 357 212 415 q 58 190 58 300 q 81 85 58 131 q 146 13 103 39 q 254 -14 190 -14 q 354 5 314 -14 q 422 54 395 23 q 467 124 449 85 l 471 124 l 480 0 l 532 0 l 532 497 q 481 690 532 629 q 322 751 430 751 m 466 378 l 466 302 q 416 113 466 183 q 267 42 366 42 q 164 80 201 42 q 127 191 127 118 q 186 320 127 276 q 361 372 245 365 l 466 378 "},"b":{"ha":718,"x_min":109,"x_max":648,"o":"m 175 1055 l 109 1055 l 109 0 l 161 0 l 172 123 l 178 123 q 254 24 203 62 q 383 -14 304 -14 q 529 33 471 -14 q 618 165 588 79 q 648 372 648 252 q 582 655 648 559 q 391 751 516 751 q 254 710 309 751 q 176 600 199 668 l 172 600 q 174 662 174 627 q 175 728 175 697 l 175 1055 m 383 692 q 532 612 484 692 q 580 373 580 531 q 528 128 580 210 q 375 46 475 46 q 225 122 275 46 q 175 350 175 197 l 175 385 q 196 549 175 480 q 263 655 218 618 q 383 692 309 692 "},"c":{"ha":556,"x_min":72,"x_max":521,"o":"m 359 -14 q 444 -4 404 -14 q 514 19 484 5 l 514 79 q 441 55 480 64 q 362 46 403 46 q 236 86 286 46 q 163 197 187 126 q 140 363 140 269 q 168 541 140 468 q 248 653 195 614 q 374 691 300 691 q 438 684 406 691 q 500 661 471 676 l 521 719 q 453 743 490 734 q 372 751 416 751 q 212 706 279 751 q 108 573 144 660 q 72 363 72 486 q 104 161 72 245 q 200 32 136 77 q 359 -14 264 -14 "},"d":{"ha":718,"x_min":71,"x_max":610,"o":"m 332 -14 q 431 6 390 -14 q 500 60 473 26 q 543 132 528 93 l 547 132 l 556 0 l 610 0 l 610 1055 l 543 1055 l 543 734 q 544 674 543 707 q 547 609 545 641 l 543 609 q 500 681 528 648 q 431 732 472 713 q 336 751 390 751 q 141 651 210 751 q 71 361 71 551 q 137 82 71 178 q 332 -14 203 -14 m 340 45 q 189 126 237 45 q 140 360 140 208 q 192 607 140 522 q 345 692 244 692 q 495 614 446 692 q 544 393 544 536 l 544 339 q 495 122 544 199 q 340 45 446 45 "},"e":{"ha":656,"x_min":72,"x_max":585,"o":"m 342 751 q 193 703 253 751 q 102 567 133 654 q 72 365 72 479 q 103 166 72 252 q 200 34 135 81 q 363 -14 265 -14 q 468 -2 421 -14 q 558 33 514 9 l 558 96 q 464 57 508 69 q 367 45 420 45 q 197 127 255 45 q 139 365 139 210 l 585 365 l 585 416 q 559 586 585 510 q 480 706 534 661 q 342 751 426 751 m 341 694 q 442 658 403 694 q 500 561 481 623 q 519 422 519 498 l 141 422 q 202 625 150 557 q 341 694 255 694 "},"f":{"ha":366,"x_min":16,"x_max":422,"o":"m 340 680 l 340 737 l 198 737 l 198 819 q 225 962 198 920 q 316 1004 252 1004 q 361 1000 338 1004 q 405 987 385 996 l 422 1043 q 373 1057 399 1052 q 313 1063 346 1063 q 209 1036 249 1063 q 150 956 168 1009 q 132 821 132 902 l 132 739 l 16 721 l 16 680 l 132 680 l 132 0 l 198 0 l 198 680 l 340 680 "},"g":{"ha":604,"x_min":18,"x_max":588,"o":"m 269 -334 q 499 -270 418 -334 q 580 -90 580 -205 q 527 53 580 5 q 373 101 473 101 l 260 101 q 207 110 229 101 q 174 134 185 119 q 162 172 162 149 q 181 234 162 209 q 231 281 199 259 q 288 275 258 275 q 452 340 393 275 q 511 515 511 404 q 498 603 511 559 q 459 680 486 646 l 588 690 l 588 737 l 386 737 q 360 746 374 743 q 329 750 346 749 q 290 751 312 751 q 172 721 222 751 q 95 636 122 691 q 68 508 68 582 q 98 376 68 431 q 182 296 129 320 q 122 236 142 269 q 102 166 102 203 q 120 105 102 131 q 167 64 138 79 q 59 -1 100 51 q 18 -130 18 -52 q 84 -280 18 -227 q 269 -334 151 -334 m 274 -277 q 134 -238 184 -277 q 85 -124 85 -199 q 106 -31 85 -66 q 166 20 127 4 q 252 35 204 35 l 355 35 q 438 25 402 35 q 494 -13 474 15 q 514 -91 514 -41 q 487 -194 514 -153 q 407 -256 460 -235 q 274 -277 353 -277 m 290 330 q 175 376 214 330 q 136 508 136 423 q 177 648 136 597 q 288 698 218 698 q 402 651 361 698 q 444 511 444 604 q 404 376 444 422 q 290 330 363 330 "},"h":{"ha":706,"x_min":109,"x_max":602,"o":"m 176 1055 l 109 1055 l 109 0 l 176 0 l 176 405 q 200 566 176 503 q 271 661 225 630 q 380 692 317 692 q 495 644 455 692 q 535 486 535 595 l 535 0 l 602 0 l 602 495 q 577 638 602 582 q 506 723 553 695 q 388 751 458 751 q 290 731 332 751 q 219 679 248 711 q 176 607 191 646 l 172 607 q 175 656 174 631 q 176 711 176 680 l 176 1055 "},"i":{"ha":289,"x_min":98,"x_max":195,"o":"m 178 737 l 112 737 l 112 0 l 178 0 l 178 737 m 146 1012 q 110 996 121 1012 q 98 954 98 979 q 110 912 98 928 q 146 897 123 897 q 182 912 170 897 q 195 954 195 928 q 183 996 195 979 q 146 1012 171 1012 "},"j":{"ha":289,"x_min":-40,"x_max":194,"o":"m 32 -334 q 109 -315 77 -334 q 159 -254 141 -295 q 177 -149 177 -212 l 177 737 l 111 737 l 111 -144 q 90 -242 111 -210 q 25 -273 69 -273 q -9 -271 7 -273 q -40 -262 -25 -268 l -40 -321 q -9 -331 -27 -327 q 32 -334 9 -334 m 98 954 q 110 912 98 928 q 145 897 122 897 q 182 912 170 897 q 194 954 194 928 q 182 996 194 979 q 146 1012 171 1012 q 110 996 121 1012 q 98 954 98 979 "},"k":{"ha":581,"x_min":109,"x_max":577,"o":"m 176 1055 l 109 1055 l 109 0 l 176 0 l 176 263 l 279 389 l 502 0 l 577 0 l 324 439 l 556 737 l 479 737 l 238 420 q 206 377 222 399 q 174 333 191 356 l 172 333 q 175 425 174 380 q 176 518 176 471 l 176 1055 "},"l":{"ha":284,"x_min":109,"x_max":176,"o":"m 176 0 l 176 1055 l 109 1055 l 109 0 l 176 0 "},"m":{"ha":1055,"x_min":109,"x_max":951,"o":"m 756 751 q 629 714 679 751 q 553 612 579 677 l 547 612 q 488 713 532 675 q 370 751 444 751 q 278 732 316 751 q 215 681 240 712 q 175 615 190 650 l 171 615 l 162 737 l 109 737 l 109 0 l 176 0 l 176 433 q 196 570 176 511 q 258 660 217 628 q 359 692 298 692 q 432 672 401 692 q 480 608 463 652 q 498 491 498 564 l 498 0 l 564 0 l 564 444 q 612 629 564 566 q 746 692 660 692 q 847 647 809 692 q 886 498 886 601 l 886 0 l 951 0 l 951 504 q 900 691 951 631 q 756 751 848 751 "},"n":{"ha":706,"x_min":109,"x_max":602,"o":"m 390 751 q 290 731 332 751 q 219 677 248 711 q 174 602 191 643 l 170 602 l 162 737 l 109 737 l 109 0 l 176 0 l 176 411 q 230 623 176 553 q 382 692 285 692 q 496 644 456 692 q 535 488 535 595 l 535 0 l 602 0 l 602 498 q 547 690 602 629 q 390 751 492 751 "},"o":{"ha":699,"x_min":71,"x_max":627,"o":"m 627 370 q 597 572 627 486 q 506 705 567 658 q 352 751 445 751 q 198 707 261 751 q 103 577 136 662 q 71 370 71 492 q 89 210 71 281 q 143 89 107 139 q 230 13 178 39 q 349 -14 281 -14 q 470 13 418 -14 q 557 89 522 39 q 609 209 592 138 q 627 370 627 280 m 139 370 q 192 608 139 524 q 351 692 244 692 q 472 652 426 692 q 538 540 517 612 q 559 370 559 468 q 537 194 559 267 q 468 84 515 121 q 350 46 422 46 q 231 85 278 46 q 162 196 184 123 q 139 370 139 269 "},"p":{"ha":718,"x_min":109,"x_max":648,"o":"m 392 751 q 290 730 332 751 q 219 671 247 708 q 174 591 191 635 l 170 591 l 163 737 l 109 737 l 109 -326 l 176 -326 l 176 4 q 175 71 176 37 q 172 134 174 105 l 177 134 q 219 61 191 94 q 289 7 247 27 q 387 -14 330 -14 q 527 30 469 -14 q 616 160 585 74 q 648 374 648 247 q 582 657 648 562 q 392 751 515 751 m 382 692 q 531 611 483 692 q 580 374 580 530 q 555 190 580 262 q 486 81 531 117 q 379 46 441 46 q 269 80 314 46 q 200 182 223 115 q 176 348 176 250 l 176 391 q 200 552 177 485 q 269 656 222 620 q 382 692 315 692 "},"q":{"ha":717,"x_min":70,"x_max":608,"o":"m 541 -326 l 608 -326 l 608 737 l 553 737 l 545 611 l 541 611 q 467 712 517 672 q 336 751 416 751 q 189 705 249 751 q 100 571 130 658 q 70 366 70 485 q 136 82 70 178 q 325 -14 203 -14 q 461 28 408 -14 q 541 139 515 71 l 545 139 q 543 69 544 106 q 541 7 541 31 l 541 -326 m 336 45 q 189 124 240 45 q 138 364 138 204 q 190 606 138 519 q 343 692 241 692 q 492 617 444 692 q 541 399 541 542 l 541 336 q 518 180 541 245 q 450 80 495 115 q 336 45 404 45 "},"r":{"ha":463,"x_min":109,"x_max":446,"o":"m 363 750 q 278 728 315 750 q 216 670 241 705 q 177 593 191 634 l 172 593 l 163 737 l 109 737 l 109 0 l 176 0 l 176 397 q 189 508 176 456 q 224 600 201 559 q 282 662 248 640 q 360 685 317 685 q 399 682 381 685 q 434 673 418 678 l 446 736 q 406 747 427 743 q 363 750 385 750 "},"s":{"ha":547,"x_min":55,"x_max":492,"o":"m 492 188 q 466 289 492 250 q 394 354 439 328 q 294 406 349 380 q 204 451 241 430 q 148 498 167 471 q 129 567 129 525 q 172 661 129 628 q 291 693 216 693 q 379 682 335 693 q 456 652 422 671 l 482 708 q 395 740 443 728 q 292 751 347 751 q 124 700 185 751 q 64 565 64 649 q 89 467 64 505 q 158 403 114 429 q 260 351 203 377 q 350 306 313 328 q 406 257 387 285 q 425 186 425 229 q 384 83 425 120 q 254 45 343 45 q 147 61 199 45 q 55 100 96 76 l 55 31 q 139 0 88 13 q 254 -14 190 -14 q 385 10 332 -14 q 465 79 437 34 q 492 188 492 125 "},"t":{"ha":391,"x_min":22,"x_max":362,"o":"m 276 45 q 200 81 222 45 q 178 188 178 117 l 178 681 l 359 681 l 359 737 l 178 737 l 178 914 l 132 914 l 112 739 l 22 720 l 22 681 l 112 681 l 112 184 q 128 74 112 118 q 177 8 144 31 q 265 -14 211 -14 q 319 -8 294 -14 q 362 5 343 -3 l 362 61 q 323 50 345 54 q 276 45 300 45 "},"u":{"ha":706,"x_min":102,"x_max":596,"o":"m 596 737 l 529 737 l 529 330 q 505 171 529 234 q 436 77 481 108 q 323 46 391 46 q 209 97 248 46 q 170 256 170 147 l 170 737 l 102 737 l 102 245 q 126 102 102 160 q 196 15 149 44 q 315 -14 243 -14 q 416 7 374 -14 q 487 61 458 27 q 530 134 515 94 l 534 134 l 543 0 l 596 0 l 596 737 "},"v":{"ha":543,"x_min":3,"x_max":540,"o":"m 234 0 l 307 0 l 540 737 l 469 737 l 316 235 q 292 151 302 191 q 273 75 281 111 l 269 75 q 249 156 260 115 q 224 240 238 198 l 73 737 l 3 737 l 234 0 "},"w":{"ha":882,"x_min":16,"x_max":865,"o":"m 612 0 l 684 0 l 865 737 l 799 737 l 684 254 q 669 193 675 220 q 659 140 663 165 q 650 87 654 115 l 646 87 q 635 146 641 117 q 622 206 629 176 q 606 267 614 236 l 481 737 l 412 737 l 284 269 q 271 217 277 242 q 260 169 264 193 q 251 125 255 146 q 243 87 246 105 l 240 87 q 229 143 235 115 q 216 203 223 172 q 200 271 209 235 l 85 737 l 16 737 l 203 0 l 275 0 l 410 501 q 420 539 415 521 q 429 577 425 558 q 437 614 433 596 q 444 650 441 632 l 447 650 q 455 614 451 632 q 463 578 458 597 q 472 541 467 560 q 482 502 476 522 l 612 0 "},"x":{"ha":579,"x_min":27,"x_max":551,"o":"m 250 380 l 27 0 l 101 0 l 289 327 l 475 0 l 551 0 l 330 378 l 540 737 l 465 737 l 290 430 l 115 737 l 40 737 l 250 380 "},"y":{"ha":553,"x_min":8,"x_max":548,"o":"m 12 737 l 247 9 l 203 -134 q 168 -216 186 -185 q 125 -261 149 -248 q 73 -275 102 -275 q 39 -272 56 -275 q 8 -262 23 -268 l 8 -323 q 42 -332 26 -328 q 79 -336 59 -336 q 160 -315 125 -336 q 220 -252 195 -295 q 267 -144 246 -210 l 548 737 l 478 737 l 329 256 q 302 169 314 210 q 282 93 290 129 l 277 93 q 267 136 273 113 q 253 188 261 159 q 231 256 244 217 l 81 737 l 12 737 "},"z":{"ha":511,"x_min":47,"x_max":467,"o":"m 467 0 l 467 58 l 124 58 l 463 688 l 463 737 l 72 737 l 72 680 l 387 680 l 47 47 l 47 0 l 467 0 "},"{":{"ha":490,"x_min":52,"x_max":432,"o":"m 432 -220 l 432 -162 q 338 -146 374 -161 q 284 -98 301 -132 q 267 -11 267 -65 l 267 215 q 241 331 267 289 q 151 384 215 373 l 151 389 q 240 441 214 400 q 267 557 267 483 l 267 783 q 285 871 267 838 q 339 920 302 905 q 432 935 376 935 l 432 992 q 304 970 355 991 q 227 905 253 949 q 201 792 201 861 l 201 566 q 185 474 201 507 q 137 428 170 441 q 52 414 104 414 l 52 358 q 138 344 104 358 q 186 296 171 330 q 201 206 201 263 l 201 -18 q 227 -132 201 -87 q 304 -198 252 -177 q 432 -220 355 -220 "},"|":{"ha":645,"x_min":292,"x_max":352,"o":"m 292 1058 l 292 -338 l 352 -338 l 352 1058 l 292 1058 "},"}":{"ha":490,"x_min":56,"x_max":437,"o":"m 56 -220 q 185 -198 134 -220 q 262 -132 236 -176 q 288 -18 288 -87 l 288 206 q 303 297 288 264 q 352 344 319 330 q 437 358 385 358 l 437 414 q 351 429 384 414 q 303 476 318 443 q 288 566 288 509 l 288 791 q 262 905 288 861 q 185 971 236 949 q 56 992 134 992 l 56 935 q 150 920 114 935 q 204 871 186 905 q 221 783 221 838 l 221 556 q 248 441 221 483 q 337 388 275 400 l 337 384 q 248 331 275 372 q 221 215 221 290 l 221 -12 q 204 -98 221 -65 q 151 -147 187 -132 q 56 -162 114 -162 l 56 -220 "},"~":{"ha":682,"x_min":58,"x_max":624,"o":"m 334 462 q 405 432 373 443 q 479 420 437 420 q 561 439 524 420 q 624 486 597 457 l 624 554 q 554 497 592 517 q 481 478 517 478 q 420 489 448 478 q 355 517 392 500 q 283 549 316 538 q 206 561 250 561 q 124 543 161 561 q 58 494 87 524 l 58 425 q 130 484 92 464 q 203 503 167 503 q 269 492 239 503 q 334 462 298 481 "}," ":{"ha":311,"x_min":0,"x_max":0,"o":""},"¡":{"ha":312,"x_min":104,"x_max":209,"o":"m 129 477 l 115 -261 l 194 -261 l 180 477 l 129 477 m 209 682 q 196 729 209 713 q 157 745 183 745 q 116 728 128 745 q 104 682 104 711 q 116 634 104 650 q 157 618 129 618 q 196 634 183 618 q 209 682 209 650 "},"¢":{"ha":687,"x_min":116,"x_max":568,"o":"m 427 1006 l 374 1006 l 374 886 q 234 828 292 876 q 146 698 176 781 q 116 501 116 616 q 144 307 116 388 q 231 180 173 227 q 376 125 289 134 l 376 -14 l 429 -14 l 429 125 q 504 136 471 127 q 563 157 538 145 l 563 218 q 491 194 528 203 q 412 185 454 185 q 284 223 334 185 q 209 331 233 261 q 184 502 184 401 q 210 676 184 603 q 289 789 237 749 q 420 828 342 828 q 484 821 450 828 q 548 800 517 814 l 568 857 q 503 880 538 871 q 427 889 469 888 l 427 1006 "},"£":{"ha":676,"x_min":56,"x_max":616,"o":"m 412 1005 q 286 974 336 1005 q 212 883 237 942 q 188 741 188 825 l 188 517 l 62 517 l 62 461 l 188 461 l 188 271 q 173 165 188 209 q 127 96 157 122 q 56 58 98 70 l 56 0 l 616 0 l 616 63 l 157 63 q 209 105 186 79 q 242 173 231 132 q 254 269 254 214 l 254 461 l 478 461 l 478 517 l 254 517 l 254 734 q 293 894 254 843 q 414 945 332 945 q 492 934 455 945 q 566 901 528 923 l 594 955 q 512 992 556 979 q 412 1005 469 1005 "},"¤":{"ha":785,"x_min":81,"x_max":702,"o":"m 121 491 q 136 400 121 445 q 181 319 151 356 l 82 218 l 118 181 l 218 281 q 299 234 254 250 q 392 219 344 219 q 483 234 437 219 q 564 279 528 249 l 665 180 l 702 216 l 603 317 q 649 400 634 355 q 665 491 665 446 q 649 583 665 538 q 602 663 633 627 l 702 764 l 664 800 l 564 702 q 481 748 526 733 q 391 764 437 764 q 299 748 343 764 q 218 701 256 732 l 118 802 l 81 765 l 181 663 q 136 583 152 627 q 121 491 121 538 m 173 491 q 203 606 173 555 q 283 685 233 656 q 392 713 333 713 q 503 684 452 713 q 583 604 553 654 q 613 490 613 553 q 584 379 613 429 q 504 299 554 329 q 392 270 454 270 q 281 298 332 270 q 202 377 231 327 q 173 491 173 427 "},"¥":{"ha":680,"x_min":46,"x_max":631,"o":"m 339 487 l 117 991 l 46 991 l 289 452 l 110 452 l 110 399 l 305 399 l 305 259 l 110 259 l 110 205 l 305 205 l 305 0 l 372 0 l 372 205 l 569 205 l 569 259 l 372 259 l 372 399 l 569 399 l 569 452 l 387 452 l 631 991 l 560 991 l 339 487 "},"¦":{"ha":645,"x_min":292,"x_max":352,"o":"m 292 1057 l 292 530 l 352 530 l 352 1057 l 292 1057 m 292 190 l 292 -339 l 352 -339 l 352 190 l 292 190 "},"§":{"ha":598,"x_min":71,"x_max":508,"o":"m 84 561 q 106 475 84 509 q 169 418 129 441 q 261 372 208 395 q 358 327 317 348 q 420 280 398 307 q 442 210 442 253 q 400 116 442 153 q 267 80 357 80 q 197 86 232 80 q 130 105 162 93 q 71 131 98 117 l 71 69 q 156 39 106 51 q 267 26 207 26 q 444 77 381 26 q 506 213 506 128 q 480 303 506 267 q 408 366 454 339 q 479 434 451 391 q 508 539 508 477 q 483 630 508 595 q 415 692 458 666 q 315 742 371 718 q 230 784 266 765 q 174 828 194 804 q 155 891 155 853 q 195 975 155 946 q 308 1003 235 1003 q 396 992 355 1003 q 470 964 437 981 l 494 1016 q 411 1046 456 1035 q 310 1057 366 1057 q 150 1011 208 1057 q 92 890 92 966 q 125 793 92 831 q 210 728 158 756 q 121 666 157 707 q 84 561 84 625 m 144 567 q 180 654 144 622 q 264 701 216 687 q 371 651 330 675 q 430 599 412 627 q 449 531 449 571 q 423 445 449 480 q 359 392 397 410 l 294 420 q 214 459 248 440 q 162 503 180 477 q 144 567 144 528 "},"¨":{"ha":766,"x_min":221,"x_max":543,"o":"m 221 934 q 233 894 221 909 q 265 880 245 880 q 298 894 287 880 q 310 934 310 908 q 298 972 310 958 q 265 987 287 987 q 233 972 245 987 q 221 934 221 958 m 454 934 q 466 894 454 909 q 498 880 477 880 q 531 894 519 880 q 543 934 543 909 q 531 972 543 958 q 498 987 519 987 q 466 972 478 987 q 454 934 454 958 "},"©":{"ha":1154,"x_min":68,"x_max":1086,"o":"m 576 -12 q 780 26 686 -12 q 942 134 873 65 q 1048 295 1010 202 q 1086 495 1086 387 q 1049 693 1086 600 q 944 855 1012 785 q 783 965 876 925 q 578 1004 690 1004 q 378 967 471 1004 q 216 862 286 930 q 107 701 146 794 q 68 496 68 608 q 104 297 68 389 q 208 135 141 205 q 369 27 275 66 q 576 -12 462 -12 m 603 194 q 686 202 648 194 q 758 224 724 210 l 758 278 q 683 255 719 262 q 608 248 646 248 q 443 310 502 248 q 384 496 384 372 q 442 677 384 612 q 605 743 500 743 q 683 735 646 743 q 753 711 720 727 l 777 761 q 697 789 740 779 q 605 798 654 798 q 453 761 517 798 q 355 655 389 724 q 321 495 321 587 q 396 271 321 349 q 603 194 471 194 m 576 37 q 391 72 475 37 q 247 170 307 107 q 153 316 186 233 q 120 496 120 399 q 154 677 120 593 q 249 824 188 762 q 394 920 311 886 q 577 954 477 954 q 761 919 677 954 q 905 820 844 883 q 1000 674 966 758 q 1034 496 1034 591 q 1000 317 1034 400 q 905 171 966 234 q 760 73 844 108 q 576 37 676 37 "},"ª":{"ha":426,"x_min":45,"x_max":353,"o":"m 217 1003 q 144 993 179 1003 q 80 968 110 983 l 98 924 q 154 947 125 939 q 212 956 182 956 q 277 933 255 956 q 299 858 299 911 l 299 814 l 235 810 q 130 791 172 806 q 66 747 87 776 q 45 672 45 718 q 60 603 45 631 q 105 560 76 574 q 172 545 134 545 q 250 565 217 545 q 303 621 283 585 l 312 551 l 353 551 l 353 861 q 320 967 353 930 q 217 1003 288 1003 m 299 771 l 299 728 q 270 629 299 666 q 182 591 240 591 q 121 612 143 591 q 99 672 99 632 q 134 743 99 722 q 244 768 168 764 l 299 771 "},"«":{"ha":599,"x_min":48,"x_max":551,"o":"m 48 388 l 48 370 l 257 111 l 302 138 l 125 380 l 302 622 l 257 648 l 48 388 m 296 388 l 296 370 l 506 111 l 551 138 l 374 380 l 551 622 l 506 648 l 296 388 "},"¬":{"ha":682,"x_min":60,"x_max":609,"o":"m 609 518 l 60 518 l 60 460 l 551 460 l 551 174 l 609 174 l 609 518 "},"­":{"ha":409,"x_min":46,"x_max":363,"o":"m 46 344 l 363 344 l 363 409 l 46 409 l 46 344 "},"®":{"ha":1154,"x_min":68,"x_max":1086,"o":"m 404 198 l 465 198 l 465 445 l 597 445 l 732 198 l 802 198 l 655 459 q 740 515 706 476 q 774 623 774 555 q 720 752 774 711 q 571 793 665 793 l 404 793 l 404 198 m 464 495 l 464 741 l 567 741 q 674 712 635 741 q 713 622 713 684 q 672 526 713 556 q 566 495 630 495 l 464 495 m 576 -12 q 780 26 686 -12 q 942 134 873 65 q 1048 295 1010 202 q 1086 495 1086 387 q 1049 693 1086 600 q 944 855 1012 785 q 783 965 876 925 q 578 1004 690 1004 q 378 967 471 1004 q 216 862 286 930 q 107 701 146 794 q 68 496 68 608 q 104 297 68 389 q 208 135 141 205 q 369 27 275 66 q 576 -12 462 -12 m 576 37 q 391 72 475 37 q 247 170 307 107 q 153 316 186 233 q 120 496 120 399 q 154 677 120 593 q 249 824 188 762 q 394 920 311 886 q 577 954 477 954 q 761 919 677 954 q 905 820 844 883 q 1000 674 966 758 q 1034 496 1034 591 q 1000 317 1034 400 q 905 171 966 234 q 760 73 844 108 q 576 37 676 37 "},"¯":{"ha":629,"x_min":-5,"x_max":634,"o":"m 634 1055 l 634 1112 l -5 1112 l -5 1055 l 634 1055 "},"°":{"ha":548,"x_min":82,"x_max":465,"o":"m 274 626 q 372 649 329 626 q 440 716 415 673 q 465 816 465 759 q 440 916 465 873 q 372 982 415 958 q 273 1005 328 1005 q 175 982 219 1005 q 107 916 132 959 q 82 817 82 873 q 107 716 82 759 q 175 649 132 673 q 274 626 219 626 m 274 676 q 174 715 212 676 q 136 817 136 753 q 172 917 136 878 q 273 956 208 956 q 374 918 336 956 q 412 817 412 880 q 374 715 412 755 q 274 676 336 676 "},"±":{"ha":682,"x_min":58,"x_max":623,"o":"m 60 1 l 621 1 l 621 58 l 60 58 l 60 1 m 370 524 l 370 819 l 312 819 l 312 524 l 58 524 l 58 467 l 312 467 l 312 172 l 370 172 l 370 467 l 623 467 l 623 524 l 370 524 "},"²":{"ha":440,"x_min":36,"x_max":394,"o":"m 394 577 l 394 629 l 106 629 l 220 755 q 308 858 272 814 q 363 942 345 901 q 382 1028 382 982 q 337 1142 382 1099 q 212 1185 293 1185 q 121 1167 163 1185 q 45 1118 80 1149 l 76 1078 q 140 1120 108 1106 q 210 1135 172 1135 q 294 1104 265 1135 q 323 1026 323 1074 q 306 951 323 987 q 258 876 290 915 q 181 787 227 837 l 36 625 l 36 577 l 394 577 "},"³":{"ha":440,"x_min":37,"x_max":396,"o":"m 212 1183 q 118 1166 160 1183 q 41 1122 77 1150 l 69 1081 q 136 1118 102 1105 q 210 1132 170 1132 q 293 1106 263 1132 q 322 1032 322 1080 q 287 944 322 977 q 186 911 252 911 l 120 911 l 120 862 l 187 862 q 300 832 262 862 q 338 744 338 802 q 300 653 338 687 q 189 620 263 620 q 112 630 150 620 q 37 658 75 640 l 37 601 q 109 577 71 585 q 189 570 147 570 q 342 615 288 570 q 396 742 396 661 q 365 839 396 802 q 279 890 334 876 l 279 892 q 351 943 323 907 q 380 1036 380 979 q 335 1144 380 1105 q 212 1183 291 1183 "},"´":{"ha":347,"x_min":56,"x_max":292,"o":"m 292 1063 l 212 1063 q 167 995 193 1031 q 113 923 142 959 q 56 856 84 888 l 56 842 l 100 842 q 150 889 123 863 q 203 944 176 915 q 253 1001 230 973 q 292 1052 275 1029 l 292 1063 "},"µ":{"ha":711,"x_min":109,"x_max":602,"o":"m 602 737 l 536 737 l 536 332 q 515 174 536 238 q 450 78 494 111 q 335 46 406 46 q 215 97 255 46 q 175 253 175 148 l 175 737 l 109 737 l 109 -330 l 175 -330 l 175 -68 q 175 -22 175 -45 q 174 24 174 1 q 170 70 173 47 l 174 70 q 235 8 196 29 q 334 -14 275 -14 q 431 6 392 -14 q 495 58 469 26 q 535 127 520 90 l 539 127 l 548 0 l 602 0 l 602 737 "},"¶":{"ha":763,"x_min":102,"x_max":612,"o":"m 612 -176 l 612 1055 l 320 1055 q 199 1021 248 1055 q 126 918 151 987 q 102 747 102 850 q 124 582 102 651 q 189 475 146 513 q 293 438 231 438 q 332 441 315 438 q 366 450 349 444 l 366 -176 l 418 -176 l 418 1004 l 560 1004 l 560 -176 l 612 -176 "},"·":{"ha":303,"x_min":99,"x_max":205,"o":"m 99 465 q 112 419 99 435 q 151 402 125 402 q 191 418 178 402 q 205 465 205 434 q 192 512 205 496 q 151 528 178 528 q 112 511 124 528 q 99 465 99 494 "},"¸":{"ha":293,"x_min":22,"x_max":261,"o":"m 261 -197 q 247 -141 261 -165 q 205 -102 233 -117 q 141 -82 178 -87 l 179 0 l 129 0 l 75 -115 q 169 -137 135 -119 q 203 -199 203 -155 q 173 -262 203 -241 q 93 -284 142 -284 q 55 -282 73 -284 q 22 -276 37 -280 l 22 -325 q 56 -331 37 -329 q 96 -334 75 -334 q 217 -297 172 -334 q 261 -197 261 -261 "},"¹":{"ha":440,"x_min":53,"x_max":278,"o":"m 278 1171 l 229 1171 l 53 1057 l 81 1015 l 161 1067 q 194 1088 179 1078 q 224 1110 209 1098 q 222 1066 223 1089 q 221 1019 222 1043 q 221 971 221 994 l 221 577 l 278 577 l 278 1171 "},"º":{"ha":459,"x_min":47,"x_max":413,"o":"m 413 775 q 393 896 413 844 q 333 977 373 948 q 233 1005 293 1005 q 97 944 146 1005 q 47 774 47 882 q 94 606 47 669 q 230 543 142 543 q 367 607 320 543 q 413 775 413 671 m 103 774 q 137 910 103 864 q 233 957 171 957 q 329 907 299 957 q 358 774 358 857 q 327 640 358 689 q 229 590 296 590 q 134 638 165 590 q 103 774 103 687 "},"»":{"ha":594,"x_min":48,"x_max":547,"o":"m 547 370 l 547 389 l 336 648 l 291 622 l 469 380 l 291 139 l 336 111 l 547 370 m 303 370 l 303 389 l 94 648 l 48 622 l 225 380 l 48 139 l 94 111 l 303 370 "},"¼":{"ha":956,"x_min":34,"x_max":940,"o":"m 193 0 l 255 0 l 778 991 l 716 991 l 193 0 m 202 397 l 260 397 l 260 991 l 209 991 l 34 877 l 62 836 l 142 888 q 175 909 159 899 q 205 931 190 919 q 203 887 204 910 q 202 840 202 864 q 202 792 202 815 l 202 397 m 795 0 l 852 0 l 852 157 l 940 157 l 940 208 l 852 208 l 852 599 l 796 599 l 543 199 l 543 157 l 795 157 l 795 0 m 604 208 l 755 451 q 779 489 768 471 q 797 522 789 506 q 795 475 795 500 q 795 419 795 450 l 795 208 l 604 208 "},"½":{"ha":1025,"x_min":31,"x_max":979,"o":"m 180 0 l 241 0 l 764 991 l 702 991 l 180 0 m 199 397 l 256 397 l 256 991 l 206 991 l 31 877 l 58 836 l 139 888 q 172 909 157 899 q 202 931 186 919 q 200 898 201 916 q 199 863 200 881 q 199 827 199 845 q 199 792 199 809 l 199 397 m 621 0 l 979 0 l 979 52 l 692 52 l 810 184 q 895 282 860 239 q 948 365 930 325 q 966 452 966 405 q 922 565 966 522 q 798 609 878 609 q 707 591 748 609 q 631 541 665 572 l 661 501 q 725 543 692 529 q 795 557 758 557 q 879 527 850 557 q 908 449 908 497 q 891 374 908 410 q 843 299 875 338 q 766 210 812 260 l 621 48 l 621 0 "},"¾":{"ha":999,"x_min":33,"x_max":983,"o":"m 243 0 l 306 0 l 829 991 l 767 991 l 243 0 m 184 391 q 336 436 282 391 q 391 564 391 482 q 360 660 391 623 q 274 711 330 696 l 274 713 q 346 764 317 728 q 374 857 374 800 q 330 965 374 926 q 208 1004 286 1004 q 114 988 156 1004 q 37 944 72 971 l 64 902 q 131 939 97 926 q 205 953 164 953 q 288 927 258 953 q 317 853 317 901 q 282 765 317 798 q 182 732 247 732 l 115 732 l 115 683 l 182 683 q 295 653 257 683 q 332 565 332 623 q 295 475 332 509 q 184 441 258 441 q 107 451 144 441 q 33 479 69 461 l 33 422 q 104 399 65 407 q 184 391 142 391 m 838 0 l 895 0 l 895 157 l 983 157 l 983 208 l 895 208 l 895 599 l 838 599 l 585 199 l 585 157 l 838 157 l 838 0 m 646 208 l 798 451 q 822 489 811 471 q 840 522 832 506 q 838 475 838 500 q 838 419 838 450 l 838 208 l 646 208 "},"¿":{"ha":490,"x_min":40,"x_max":460,"o":"m 329 481 l 273 481 l 273 457 q 265 373 273 408 q 239 307 258 338 q 184 239 220 276 q 109 158 142 197 q 58 73 77 119 q 40 -40 40 26 q 101 -212 40 -153 q 267 -271 162 -271 q 368 -257 321 -271 q 460 -218 415 -243 l 434 -163 q 356 -197 395 -184 q 269 -210 316 -210 q 151 -168 195 -210 q 106 -39 106 -125 q 121 55 106 15 q 164 129 136 94 q 233 205 192 164 q 292 278 271 243 q 321 353 313 312 q 329 452 329 393 l 329 481 m 351 684 q 338 730 351 713 q 298 747 325 747 q 259 731 272 747 q 245 683 245 715 q 258 637 245 652 q 298 621 271 621 q 338 638 325 621 q 351 684 351 654 "},"À":{"ha":699,"x_min":0,"x_max":698,"o":"m 627 0 l 698 0 l 389 994 l 314 994 l 0 0 l 71 0 l 182 355 l 517 355 l 627 0 m 498 418 l 201 418 l 315 798 q 327 840 321 818 q 339 883 333 861 q 350 926 345 904 q 362 882 356 905 q 374 838 368 860 q 386 798 380 817 l 498 418 m 243 1305 l 164 1305 l 164 1295 q 203 1243 180 1271 q 253 1186 227 1215 q 306 1131 279 1158 q 356 1084 332 1105 l 401 1084 l 401 1098 q 346 1162 375 1126 q 290 1235 317 1198 q 243 1305 262 1272 "},"Á":{"ha":699,"x_min":0,"x_max":698,"o":"m 627 0 l 698 0 l 389 994 l 314 994 l 0 0 l 71 0 l 182 355 l 517 355 l 627 0 m 498 418 l 201 418 l 315 798 q 327 840 321 818 q 339 883 333 861 q 350 926 345 904 q 362 882 356 905 q 374 838 368 860 q 386 798 380 817 l 498 418 m 530 1305 l 450 1305 q 405 1238 431 1274 q 351 1166 380 1202 q 294 1099 322 1131 l 294 1084 l 338 1084 q 388 1132 361 1105 q 441 1187 414 1158 q 491 1244 468 1216 q 530 1295 513 1272 l 530 1305 "},"Â":{"ha":699,"x_min":0,"x_max":698,"o":"m 627 0 l 698 0 l 389 994 l 314 994 l 0 0 l 71 0 l 182 355 l 517 355 l 627 0 m 498 418 l 201 418 l 315 798 q 327 840 321 818 q 339 883 333 861 q 350 926 345 904 q 362 882 356 905 q 374 838 368 860 q 386 798 380 817 l 498 418 m 383 1304 l 317 1304 q 275 1236 301 1275 q 222 1160 250 1198 q 172 1095 195 1122 l 172 1084 l 216 1084 q 284 1160 248 1116 q 351 1242 320 1204 q 416 1160 380 1202 q 485 1084 452 1117 l 528 1084 l 528 1095 q 481 1157 509 1120 q 427 1234 453 1194 q 383 1304 400 1274 "},"Ã":{"ha":699,"x_min":0,"x_max":698,"o":"m 627 0 l 698 0 l 389 994 l 314 994 l 0 0 l 71 0 l 182 355 l 517 355 l 627 0 m 498 418 l 201 418 l 315 798 q 327 840 321 818 q 339 883 333 861 q 350 926 345 904 q 362 882 356 905 q 374 838 368 860 q 386 798 380 817 l 498 418 m 127 1095 l 175 1095 q 200 1165 180 1144 q 246 1185 220 1185 q 291 1172 270 1185 q 334 1140 312 1158 q 380 1108 355 1122 q 435 1095 405 1095 q 517 1132 484 1095 q 554 1241 549 1170 l 507 1241 q 482 1171 501 1193 q 435 1149 463 1149 q 390 1163 412 1149 q 347 1195 369 1177 q 301 1227 326 1213 q 246 1240 277 1240 q 200 1231 221 1240 q 164 1202 179 1221 q 140 1157 149 1184 q 127 1095 131 1130 "},"Ä":{"ha":699,"x_min":0,"x_max":698,"o":"m 627 0 l 698 0 l 389 994 l 314 994 l 0 0 l 71 0 l 182 355 l 517 355 l 627 0 m 498 418 l 201 418 l 315 798 q 327 840 321 818 q 339 883 333 861 q 350 926 345 904 q 362 882 356 905 q 374 838 368 860 q 386 798 380 817 l 498 418 m 189 1177 q 201 1137 189 1152 q 233 1122 213 1122 q 267 1137 255 1122 q 278 1177 278 1151 q 267 1215 278 1201 q 233 1230 255 1230 q 201 1215 213 1230 q 189 1177 189 1200 m 422 1177 q 434 1137 422 1152 q 467 1122 446 1122 q 499 1137 488 1122 q 511 1177 511 1152 q 499 1215 511 1201 q 467 1230 488 1230 q 434 1215 446 1230 q 422 1177 422 1201 "},"Å":{"ha":699,"x_min":0,"x_max":698,"o":"m 627 0 l 698 0 l 389 994 l 314 994 l 0 0 l 71 0 l 182 355 l 517 355 l 627 0 m 498 418 l 201 418 l 315 798 q 327 840 321 818 q 339 883 333 861 q 350 926 345 904 q 362 882 356 905 q 374 838 368 860 q 386 798 380 817 l 498 418 m 350 953 q 448 990 409 953 q 487 1088 487 1027 q 448 1185 487 1147 q 349 1222 408 1222 q 251 1185 290 1222 q 212 1088 212 1149 q 252 989 212 1025 q 350 953 292 953 m 351 999 q 284 1025 308 999 q 260 1088 260 1050 q 285 1152 260 1127 q 350 1177 310 1177 q 414 1152 389 1177 q 439 1087 439 1127 q 414 1024 439 1049 q 351 999 390 999 "},"Æ":{"ha":969,"x_min":-1,"x_max":914,"o":"m 914 0 l 914 62 l 517 62 l 517 490 l 892 490 l 892 552 l 517 552 l 517 930 l 914 930 l 914 991 l 364 991 l -1 0 l 73 0 l 201 355 l 448 355 l 448 0 l 914 0 m 222 418 l 408 928 l 449 928 l 449 418 l 222 418 "},"Ç":{"ha":728,"x_min":79,"x_max":690,"o":"m 480 944 q 573 933 527 944 q 663 899 618 922 l 690 958 q 590 994 642 981 q 480 1006 537 1006 q 306 967 380 1006 q 180 858 231 928 q 105 696 130 788 q 79 498 79 604 q 125 227 79 342 q 258 49 171 112 q 469 -14 345 -14 q 582 -3 532 -14 q 671 26 632 8 l 671 87 q 584 60 633 71 q 475 48 535 48 q 298 104 371 48 q 188 261 226 159 q 151 497 151 362 q 171 671 151 589 q 233 813 192 752 q 336 909 274 875 q 480 944 398 944 m 559 -197 q 545 -141 559 -165 q 503 -102 530 -117 q 439 -82 476 -87 l 477 0 l 427 0 l 372 -115 q 467 -137 433 -119 q 501 -199 501 -155 q 471 -262 501 -241 q 391 -284 440 -284 q 353 -282 371 -284 q 320 -276 335 -280 l 320 -325 q 354 -331 335 -329 q 393 -334 372 -334 q 514 -297 470 -334 q 559 -197 559 -261 "},"È":{"ha":654,"x_min":123,"x_max":578,"o":"m 578 0 l 578 62 l 191 62 l 191 490 l 556 490 l 556 552 l 191 552 l 191 930 l 578 930 l 578 991 l 123 991 l 123 0 l 578 0 m 263 1305 l 184 1305 l 184 1295 q 223 1243 200 1271 q 273 1186 246 1215 q 326 1131 299 1158 q 376 1084 352 1105 l 421 1084 l 421 1098 q 366 1162 395 1126 q 309 1235 336 1198 q 263 1305 282 1272 "},"É":{"ha":654,"x_min":123,"x_max":578,"o":"m 578 0 l 578 62 l 191 62 l 191 490 l 556 490 l 556 552 l 191 552 l 191 930 l 578 930 l 578 991 l 123 991 l 123 0 l 578 0 m 535 1305 l 456 1305 q 411 1238 436 1274 q 356 1166 385 1202 q 299 1099 328 1131 l 299 1084 l 343 1084 q 393 1132 367 1105 q 447 1187 420 1158 q 496 1244 473 1216 q 535 1295 519 1272 l 535 1305 "},"Ê":{"ha":654,"x_min":123,"x_max":578,"o":"m 578 0 l 578 62 l 191 62 l 191 490 l 556 490 l 556 552 l 191 552 l 191 930 l 578 930 l 578 991 l 123 991 l 123 0 l 578 0 m 394 1304 l 328 1304 q 286 1236 312 1275 q 233 1160 260 1198 q 183 1095 205 1122 l 183 1084 l 227 1084 q 295 1160 259 1116 q 361 1242 331 1204 q 427 1160 391 1202 q 496 1084 463 1117 l 539 1084 l 539 1095 q 492 1157 519 1120 q 437 1234 464 1194 q 394 1304 411 1274 "},"Ë":{"ha":654,"x_min":123,"x_max":578,"o":"m 578 0 l 578 62 l 191 62 l 191 490 l 556 490 l 556 552 l 191 552 l 191 930 l 578 930 l 578 991 l 123 991 l 123 0 l 578 0 m 197 1177 q 209 1137 197 1152 q 241 1122 220 1122 q 274 1137 262 1122 q 286 1177 286 1151 q 274 1215 286 1201 q 241 1230 262 1230 q 209 1215 220 1230 q 197 1177 197 1200 m 430 1177 q 441 1137 430 1152 q 474 1122 453 1122 q 507 1137 495 1122 q 519 1177 519 1152 q 507 1215 519 1201 q 474 1230 495 1230 q 442 1215 454 1230 q 430 1177 430 1201 "},"Ì":{"ha":313,"x_min":-15,"x_max":222,"o":"m 123 0 l 191 0 l 191 991 l 123 991 l 123 0 m 64 1314 l -15 1314 l -15 1303 q 24 1252 1 1280 q 74 1195 47 1224 q 127 1140 100 1166 q 177 1093 153 1114 l 222 1093 l 222 1107 q 167 1171 196 1135 q 111 1244 138 1206 q 64 1314 83 1281 "},"Í":{"ha":313,"x_min":92,"x_max":328,"o":"m 123 0 l 191 0 l 191 991 l 123 991 l 123 0 m 328 1314 l 248 1314 q 203 1246 229 1282 q 149 1175 178 1211 q 92 1107 120 1139 l 92 1093 l 136 1093 q 186 1140 159 1114 q 239 1196 212 1166 q 289 1253 266 1225 q 328 1303 311 1280 l 328 1314 "},"Î":{"ha":313,"x_min":-21,"x_max":334,"o":"m 123 0 l 191 0 l 191 991 l 123 991 l 123 0 m 190 1305 l 123 1305 q 82 1238 108 1276 q 29 1161 56 1199 q -21 1097 1 1124 l -21 1086 l 22 1086 q 91 1161 55 1118 q 157 1243 127 1205 q 223 1161 187 1204 q 292 1086 258 1118 l 335 1086 l 335 1097 q 288 1158 315 1121 q 233 1235 260 1196 q 190 1305 207 1275 "},"Ï":{"ha":313,"x_min":-4,"x_max":318,"o":"m 123 0 l 191 0 l 191 991 l 123 991 l 123 0 m -4 1179 q 8 1139 -4 1154 q 40 1124 20 1124 q 73 1139 62 1124 q 85 1179 85 1153 q 73 1217 85 1203 q 40 1232 62 1232 q 8 1217 20 1232 q -4 1179 -4 1202 m 229 1179 q 241 1139 229 1154 q 273 1124 252 1124 q 306 1139 294 1124 q 318 1179 318 1154 q 306 1217 318 1203 q 273 1232 294 1232 q 241 1217 253 1232 q 229 1179 229 1203 "},"Ð":{"ha":833,"x_min":34,"x_max":753,"o":"m 348 991 l 127 991 l 127 535 l 34 535 l 34 475 l 127 475 l 127 0 l 330 0 q 565 57 471 0 q 706 227 659 114 q 753 506 753 340 q 707 773 753 665 q 572 937 662 882 q 348 991 481 991 m 338 930 q 534 882 458 930 q 646 738 610 833 q 682 503 682 642 q 595 173 682 283 q 327 62 508 62 l 196 62 l 196 475 l 417 475 l 417 535 l 196 535 l 196 930 l 338 930 "},"Ñ":{"ha":868,"x_min":123,"x_max":745,"o":"m 745 0 l 745 991 l 680 991 l 680 326 q 681 261 680 296 q 683 189 682 225 q 684 119 684 152 l 681 119 l 199 991 l 123 991 l 123 0 l 189 0 l 189 674 q 188 747 189 712 q 186 815 186 783 q 184 878 185 847 l 187 878 l 670 0 l 745 0 m 222 1095 l 269 1095 q 294 1165 275 1144 q 340 1185 314 1185 q 385 1172 364 1185 q 428 1140 406 1158 q 474 1108 450 1122 q 529 1095 499 1095 q 611 1132 578 1095 q 648 1241 644 1170 l 602 1241 q 576 1171 595 1193 q 530 1149 557 1149 q 485 1163 506 1149 q 441 1195 463 1177 q 395 1227 420 1213 q 340 1240 371 1240 q 294 1231 315 1240 q 258 1202 273 1221 q 234 1157 243 1184 q 222 1095 225 1130 "},"Ò":{"ha":896,"x_min":79,"x_max":816,"o":"m 816 497 q 776 764 816 649 q 656 943 736 879 q 452 1006 575 1006 q 248 946 330 1006 q 122 772 165 886 q 79 498 79 659 q 101 299 79 392 q 166 136 122 206 q 281 26 211 66 q 449 -14 351 -14 q 615 25 546 -14 q 729 134 685 64 q 795 296 774 203 q 816 497 816 389 m 151 498 q 183 736 151 636 q 283 890 216 836 q 452 944 350 944 q 671 828 597 944 q 745 497 745 713 q 713 256 745 357 q 616 102 682 155 q 449 48 550 48 q 283 103 350 48 q 183 258 216 157 q 151 498 151 359 m 342 1305 l 263 1305 l 263 1295 q 302 1243 279 1271 q 352 1186 326 1215 q 405 1131 378 1158 q 455 1084 431 1105 l 500 1084 l 500 1098 q 445 1162 474 1126 q 389 1235 416 1198 q 342 1305 361 1272 "},"Ó":{"ha":896,"x_min":79,"x_max":816,"o":"m 816 497 q 776 764 816 649 q 656 943 736 879 q 452 1006 575 1006 q 248 946 330 1006 q 122 772 165 886 q 79 498 79 659 q 101 299 79 392 q 166 136 122 206 q 281 26 211 66 q 449 -14 351 -14 q 615 25 546 -14 q 729 134 685 64 q 795 296 774 203 q 816 497 816 389 m 151 498 q 183 736 151 636 q 283 890 216 836 q 452 944 350 944 q 671 828 597 944 q 745 497 745 713 q 713 256 745 357 q 616 102 682 155 q 449 48 550 48 q 283 103 350 48 q 183 258 216 157 q 151 498 151 359 m 630 1305 l 551 1305 q 506 1238 531 1274 q 451 1166 480 1202 q 394 1099 422 1131 l 394 1084 l 438 1084 q 488 1132 462 1105 q 542 1187 515 1158 q 591 1244 568 1216 q 630 1295 614 1272 l 630 1305 "},"Ô":{"ha":896,"x_min":79,"x_max":816,"o":"m 816 497 q 776 764 816 649 q 656 943 736 879 q 452 1006 575 1006 q 248 946 330 1006 q 122 772 165 886 q 79 498 79 659 q 101 299 79 392 q 166 136 122 206 q 281 26 211 66 q 449 -14 351 -14 q 615 25 546 -14 q 729 134 685 64 q 795 296 774 203 q 816 497 816 389 m 151 498 q 183 736 151 636 q 283 890 216 836 q 452 944 350 944 q 671 828 597 944 q 745 497 745 713 q 713 256 745 357 q 616 102 682 155 q 449 48 550 48 q 283 103 350 48 q 183 258 216 157 q 151 498 151 359 m 481 1304 l 414 1304 q 373 1236 399 1275 q 320 1160 347 1198 q 270 1095 292 1122 l 270 1084 l 313 1084 q 382 1160 346 1116 q 448 1242 418 1204 q 514 1160 478 1202 q 583 1084 549 1117 l 626 1084 l 626 1095 q 578 1157 606 1120 q 524 1234 551 1194 q 481 1304 498 1274 "},"Õ":{"ha":896,"x_min":79,"x_max":816,"o":"m 816 497 q 776 764 816 649 q 656 943 736 879 q 452 1006 575 1006 q 248 946 330 1006 q 122 772 165 886 q 79 498 79 659 q 101 299 79 392 q 166 136 122 206 q 281 26 211 66 q 449 -14 351 -14 q 615 25 546 -14 q 729 134 685 64 q 795 296 774 203 q 816 497 816 389 m 151 498 q 183 736 151 636 q 283 890 216 836 q 452 944 350 944 q 671 828 597 944 q 745 497 745 713 q 713 256 745 357 q 616 102 682 155 q 449 48 550 48 q 283 103 350 48 q 183 258 216 157 q 151 498 151 359 m 224 1095 l 272 1095 q 297 1165 277 1144 q 343 1185 317 1185 q 388 1172 367 1185 q 431 1140 409 1158 q 477 1108 452 1122 q 532 1095 502 1095 q 614 1132 581 1095 q 651 1241 646 1170 l 604 1241 q 579 1171 598 1193 q 532 1149 560 1149 q 487 1163 509 1149 q 444 1195 466 1177 q 398 1227 422 1213 q 343 1240 374 1240 q 297 1231 318 1240 q 261 1202 276 1221 q 237 1157 246 1184 q 224 1095 228 1130 "},"Ö":{"ha":896,"x_min":79,"x_max":816,"o":"m 816 497 q 776 764 816 649 q 656 943 736 879 q 452 1006 575 1006 q 248 946 330 1006 q 122 772 165 886 q 79 498 79 659 q 101 299 79 392 q 166 136 122 206 q 281 26 211 66 q 449 -14 351 -14 q 615 25 546 -14 q 729 134 685 64 q 795 296 774 203 q 816 497 816 389 m 151 498 q 183 736 151 636 q 283 890 216 836 q 452 944 350 944 q 671 828 597 944 q 745 497 745 713 q 713 256 745 357 q 616 102 682 155 q 449 48 550 48 q 283 103 350 48 q 183 258 216 157 q 151 498 151 359 m 287 1177 q 299 1137 287 1152 q 331 1122 311 1122 q 364 1137 353 1122 q 376 1177 376 1151 q 364 1215 376 1201 q 331 1230 353 1230 q 299 1215 311 1230 q 287 1177 287 1200 m 520 1177 q 532 1137 520 1152 q 564 1122 543 1122 q 597 1137 585 1122 q 609 1177 609 1152 q 597 1215 609 1201 q 564 1230 585 1230 q 532 1215 544 1230 q 520 1177 520 1201 "},"×":{"ha":682,"x_min":73,"x_max":608,"o":"m 568 758 l 341 530 l 115 758 l 74 718 l 301 491 l 73 262 l 113 223 l 340 451 l 567 224 l 606 263 l 380 491 l 608 720 l 568 758 "},"Ø":{"ha":907,"x_min":90,"x_max":826,"o":"m 826 497 q 801 714 826 618 q 727 877 776 810 l 808 1010 l 760 1039 l 687 920 q 588 984 644 962 q 461 1006 531 1006 q 257 946 340 1006 q 132 772 175 886 q 90 498 90 659 q 114 286 90 383 q 188 119 138 189 l 98 -31 l 146 -58 l 228 75 q 328 10 270 33 q 458 -14 385 -14 q 624 24 554 -14 q 738 131 693 62 q 804 293 783 199 q 826 497 826 386 m 755 497 q 724 256 755 357 q 626 101 692 155 q 458 47 560 47 q 348 70 397 47 q 262 135 299 92 l 687 810 q 738 676 721 755 q 755 497 755 597 m 160 498 q 193 736 160 636 q 293 890 226 836 q 461 945 360 945 q 570 924 522 945 q 653 861 617 903 l 229 186 q 177 321 194 243 q 160 498 160 400 "},"Ù":{"ha":846,"x_min":113,"x_max":734,"o":"m 734 991 l 665 991 l 665 326 q 636 168 665 230 q 553 77 608 106 q 424 48 499 48 q 244 117 307 48 q 181 330 181 185 l 181 991 l 113 991 l 113 329 q 193 73 113 159 q 422 -14 273 -14 q 587 23 517 -14 q 695 135 657 60 q 734 328 734 210 l 734 991 m 324 1305 l 245 1305 l 245 1295 q 284 1243 261 1271 q 334 1186 307 1215 q 387 1131 360 1158 q 437 1084 413 1105 l 482 1084 l 482 1098 q 427 1162 456 1126 q 370 1235 397 1198 q 324 1305 343 1272 "},"Ú":{"ha":846,"x_min":113,"x_max":734,"o":"m 734 991 l 665 991 l 665 326 q 636 168 665 230 q 553 77 608 106 q 424 48 499 48 q 244 117 307 48 q 181 330 181 185 l 181 991 l 113 991 l 113 329 q 193 73 113 159 q 422 -14 273 -14 q 587 23 517 -14 q 695 135 657 60 q 734 328 734 210 l 734 991 m 604 1305 l 525 1305 q 480 1238 505 1274 q 426 1166 454 1202 q 368 1099 397 1131 l 368 1084 l 412 1084 q 463 1132 436 1105 q 516 1187 489 1158 q 565 1244 543 1216 q 604 1295 588 1272 l 604 1305 "},"Û":{"ha":846,"x_min":113,"x_max":734,"o":"m 734 991 l 665 991 l 665 326 q 636 168 665 230 q 553 77 608 106 q 424 48 499 48 q 244 117 307 48 q 181 330 181 185 l 181 991 l 113 991 l 113 329 q 193 73 113 159 q 422 -14 273 -14 q 587 23 517 -14 q 695 135 657 60 q 734 328 734 210 l 734 991 m 456 1304 l 390 1304 q 349 1236 374 1275 q 295 1160 323 1198 q 245 1095 268 1122 l 245 1084 l 289 1084 q 357 1160 321 1116 q 424 1242 393 1204 q 489 1160 454 1202 q 558 1084 525 1117 l 602 1084 l 602 1095 q 554 1157 582 1120 q 500 1234 526 1194 q 456 1304 473 1274 "},"Ü":{"ha":846,"x_min":113,"x_max":734,"o":"m 734 991 l 665 991 l 665 326 q 636 168 665 230 q 553 77 608 106 q 424 48 499 48 q 244 117 307 48 q 181 330 181 185 l 181 991 l 113 991 l 113 329 q 193 73 113 159 q 422 -14 273 -14 q 587 23 517 -14 q 695 135 657 60 q 734 328 734 210 l 734 991 m 262 1175 q 274 1136 262 1150 q 307 1121 286 1121 q 340 1135 328 1121 q 351 1175 351 1149 q 340 1214 351 1200 q 307 1228 328 1228 q 274 1214 286 1228 q 262 1175 262 1199 m 496 1175 q 507 1136 496 1150 q 540 1121 519 1121 q 573 1136 561 1121 q 585 1175 585 1150 q 573 1214 585 1200 q 540 1228 561 1228 q 508 1214 519 1228 q 496 1175 496 1200 "},"Ý":{"ha":606,"x_min":0,"x_max":606,"o":"m 303 460 l 73 991 l 0 991 l 269 382 l 269 0 l 338 0 l 338 385 l 606 991 l 532 991 l 303 460 m 477 1305 l 397 1305 q 352 1238 378 1274 q 298 1166 327 1202 q 241 1099 269 1131 l 241 1084 l 285 1084 q 335 1132 309 1105 q 388 1187 361 1158 q 438 1244 415 1216 q 477 1295 460 1272 l 477 1305 "},"Þ":{"ha":692,"x_min":123,"x_max":635,"o":"m 635 532 q 560 744 635 677 q 330 812 486 812 l 191 812 l 191 991 l 123 991 l 123 0 l 191 0 l 191 229 l 311 229 q 455 249 394 229 q 556 308 516 269 q 615 403 595 347 q 635 532 635 459 m 191 290 l 191 750 l 323 750 q 507 699 450 750 q 565 530 565 647 q 536 393 565 446 q 449 315 507 340 q 303 290 391 290 l 191 290 "},"ß":{"ha":687,"x_min":109,"x_max":630,"o":"m 554 879 q 529 976 554 935 q 458 1040 505 1017 q 346 1063 412 1063 q 218 1033 271 1063 q 137 944 165 1003 q 109 798 109 884 l 109 0 l 175 0 l 175 796 q 194 910 175 863 q 252 980 214 956 q 345 1004 290 1004 q 450 970 414 1004 q 486 877 486 936 q 470 805 486 835 q 430 753 454 776 q 384 707 407 730 q 345 654 360 684 q 329 580 329 624 q 343 508 329 541 q 385 446 357 476 q 452 382 413 416 q 512 325 487 353 q 550 267 536 298 q 564 193 564 235 q 526 86 564 127 q 415 45 488 45 q 361 51 387 45 q 310 66 334 56 q 262 89 286 76 l 262 24 q 331 -4 292 6 q 418 -14 369 -14 q 535 13 488 -14 q 606 87 582 40 q 630 196 630 135 q 614 287 630 249 q 569 357 598 325 q 501 425 541 390 q 443 478 467 454 q 407 526 419 502 q 395 583 395 551 q 411 643 395 618 q 451 691 427 669 q 498 739 474 713 q 538 798 522 764 q 554 879 554 831 "},"à":{"ha":635,"x_min":58,"x_max":532,"o":"m 322 751 q 216 736 268 751 q 120 698 165 722 l 142 644 q 232 681 189 669 q 317 693 275 693 q 430 647 393 693 q 466 489 466 601 l 466 431 l 355 424 q 135 357 212 415 q 58 190 58 300 q 81 85 58 131 q 146 13 103 39 q 254 -14 190 -14 q 354 5 314 -14 q 422 54 395 23 q 467 124 449 85 l 471 124 l 480 0 l 532 0 l 532 497 q 481 690 532 629 q 322 751 430 751 m 466 378 l 466 302 q 416 113 466 183 q 267 42 366 42 q 164 80 201 42 q 127 191 127 118 q 186 320 127 276 q 361 372 245 365 l 466 378 m 236 1063 l 157 1063 l 157 1052 q 196 1000 173 1028 q 245 944 219 972 q 298 888 272 915 q 349 842 325 862 l 394 842 l 394 855 q 338 919 368 884 q 282 992 309 955 q 236 1063 255 1029 "},"á":{"ha":635,"x_min":58,"x_max":532,"o":"m 322 751 q 216 736 268 751 q 120 698 165 722 l 142 644 q 232 681 189 669 q 317 693 275 693 q 430 647 393 693 q 466 489 466 601 l 466 431 l 355 424 q 135 357 212 415 q 58 190 58 300 q 81 85 58 131 q 146 13 103 39 q 254 -14 190 -14 q 354 5 314 -14 q 422 54 395 23 q 467 124 449 85 l 471 124 l 480 0 l 532 0 l 532 497 q 481 690 532 629 q 322 751 430 751 m 466 378 l 466 302 q 416 113 466 183 q 267 42 366 42 q 164 80 201 42 q 127 191 127 118 q 186 320 127 276 q 361 372 245 365 l 466 378 m 481 1063 l 402 1063 q 357 995 382 1031 q 303 923 332 959 q 245 856 274 888 l 245 842 l 290 842 q 340 889 313 863 q 393 944 366 915 q 443 1001 420 973 q 481 1052 465 1029 l 481 1063 "},"â":{"ha":635,"x_min":58,"x_max":532,"o":"m 322 751 q 216 736 268 751 q 120 698 165 722 l 142 644 q 232 681 189 669 q 317 693 275 693 q 430 647 393 693 q 466 489 466 601 l 466 431 l 355 424 q 135 357 212 415 q 58 190 58 300 q 81 85 58 131 q 146 13 103 39 q 254 -14 190 -14 q 354 5 314 -14 q 422 54 395 23 q 467 124 449 85 l 471 124 l 480 0 l 532 0 l 532 497 q 481 690 532 629 q 322 751 430 751 m 466 378 l 466 302 q 416 113 466 183 q 267 42 366 42 q 164 80 201 42 q 127 191 127 118 q 186 320 127 276 q 361 372 245 365 l 466 378 m 351 1061 l 284 1061 q 243 994 269 1032 q 190 917 217 955 q 140 852 162 880 l 140 842 l 183 842 q 252 917 216 873 q 318 999 288 961 q 384 917 348 960 q 452 842 419 874 l 496 842 l 496 852 q 448 914 476 877 q 394 991 420 951 q 351 1061 368 1031 "},"ã":{"ha":635,"x_min":58,"x_max":532,"o":"m 322 751 q 216 736 268 751 q 120 698 165 722 l 142 644 q 232 681 189 669 q 317 693 275 693 q 430 647 393 693 q 466 489 466 601 l 466 431 l 355 424 q 135 357 212 415 q 58 190 58 300 q 81 85 58 131 q 146 13 103 39 q 254 -14 190 -14 q 354 5 314 -14 q 422 54 395 23 q 467 124 449 85 l 471 124 l 480 0 l 532 0 l 532 497 q 481 690 532 629 q 322 751 430 751 m 466 378 l 466 302 q 416 113 466 183 q 267 42 366 42 q 164 80 201 42 q 127 191 127 118 q 186 320 127 276 q 361 372 245 365 l 466 378 m 94 854 l 141 854 q 166 925 146 904 q 212 945 186 945 q 257 931 236 945 q 300 900 278 918 q 346 868 321 882 q 401 854 371 854 q 483 892 450 854 q 520 1001 515 930 l 473 1001 q 448 931 467 953 q 401 909 429 909 q 356 923 378 909 q 313 955 335 937 q 267 987 292 973 q 212 1000 243 1000 q 166 990 187 1000 q 130 962 145 981 q 106 917 115 944 q 94 854 97 890 "},"ä":{"ha":635,"x_min":58,"x_max":532,"o":"m 322 751 q 216 736 268 751 q 120 698 165 722 l 142 644 q 232 681 189 669 q 317 693 275 693 q 430 647 393 693 q 466 489 466 601 l 466 431 l 355 424 q 135 357 212 415 q 58 190 58 300 q 81 85 58 131 q 146 13 103 39 q 254 -14 190 -14 q 354 5 314 -14 q 422 54 395 23 q 467 124 449 85 l 471 124 l 480 0 l 532 0 l 532 497 q 481 690 532 629 q 322 751 430 751 m 466 378 l 466 302 q 416 113 466 183 q 267 42 366 42 q 164 80 201 42 q 127 191 127 118 q 186 320 127 276 q 361 372 245 365 l 466 378 m 155 934 q 166 894 155 909 q 199 880 178 880 q 232 894 220 880 q 243 934 243 908 q 232 972 243 958 q 199 987 220 987 q 166 972 178 987 q 155 934 155 958 m 388 934 q 399 894 388 909 q 432 880 411 880 q 465 894 453 880 q 477 934 477 909 q 465 972 477 958 q 432 987 453 987 q 400 972 412 987 q 388 934 388 958 "},"å":{"ha":635,"x_min":58,"x_max":532,"o":"m 322 751 q 216 736 268 751 q 120 698 165 722 l 142 644 q 232 681 189 669 q 317 693 275 693 q 430 647 393 693 q 466 489 466 601 l 466 431 l 355 424 q 135 357 212 415 q 58 190 58 300 q 81 85 58 131 q 146 13 103 39 q 254 -14 190 -14 q 354 5 314 -14 q 422 54 395 23 q 467 124 449 85 l 471 124 l 480 0 l 532 0 l 532 497 q 481 690 532 629 q 322 751 430 751 m 466 378 l 466 302 q 416 113 466 183 q 267 42 366 42 q 164 80 201 42 q 127 191 127 118 q 186 320 127 276 q 361 372 245 365 l 466 378 m 318 849 q 416 886 377 849 q 455 985 455 923 q 416 1081 455 1044 q 317 1118 376 1118 q 219 1082 258 1118 q 180 984 180 1045 q 220 885 180 922 q 318 849 260 849 m 319 895 q 252 921 276 895 q 228 984 228 947 q 253 1048 228 1023 q 318 1073 278 1073 q 382 1048 357 1073 q 407 983 407 1023 q 382 920 407 945 q 319 895 358 895 "},"æ":{"ha":1027,"x_min":58,"x_max":957,"o":"m 719 751 q 585 705 638 751 q 505 585 532 659 q 445 711 491 671 q 318 751 398 751 q 212 736 264 751 q 117 699 160 722 l 140 644 q 231 681 187 669 q 315 693 275 693 q 421 647 384 693 q 458 500 458 602 l 458 429 l 352 423 q 193 391 259 418 q 93 314 127 364 q 58 191 58 264 q 81 84 58 130 q 148 12 104 38 q 257 -14 193 -14 q 366 9 319 -14 q 443 74 412 32 q 492 175 474 117 q 543 77 509 119 q 625 11 576 35 q 739 -14 674 -14 q 839 -2 792 -14 q 929 32 885 9 l 929 94 q 835 57 880 68 q 741 45 790 45 q 582 127 639 45 q 525 366 526 208 l 956 366 l 956 418 q 931 587 957 511 q 853 707 906 662 q 719 751 800 751 m 458 376 l 458 284 q 436 159 458 213 q 371 74 414 105 q 267 43 328 43 q 163 82 199 43 q 127 191 127 121 q 185 320 127 275 q 359 372 243 365 l 458 376 m 718 693 q 815 658 777 693 q 872 562 853 623 q 890 422 890 501 l 526 422 q 586 625 533 556 q 718 693 638 693 "},"ç":{"ha":556,"x_min":72,"x_max":521,"o":"m 359 -14 q 444 -4 404 -14 q 514 19 484 5 l 514 79 q 441 55 480 64 q 362 46 403 46 q 236 86 286 46 q 163 197 187 126 q 140 363 140 269 q 168 541 140 468 q 248 653 195 614 q 374 691 300 691 q 438 684 406 691 q 500 661 471 676 l 521 719 q 453 743 490 734 q 372 751 416 751 q 212 706 279 751 q 108 573 144 660 q 72 363 72 486 q 104 161 72 245 q 200 32 136 77 q 359 -14 264 -14 m 458 -197 q 444 -141 458 -165 q 402 -102 429 -117 q 338 -82 375 -87 l 376 0 l 326 0 l 271 -115 q 366 -137 332 -119 q 400 -199 400 -155 q 370 -262 400 -241 q 290 -284 339 -284 q 252 -282 270 -284 q 219 -276 234 -280 l 219 -325 q 253 -331 234 -329 q 292 -334 271 -334 q 413 -297 369 -334 q 458 -197 458 -261 "},"è":{"ha":656,"x_min":72,"x_max":585,"o":"m 342 751 q 193 703 253 751 q 102 567 133 654 q 72 365 72 479 q 103 166 72 252 q 200 34 135 81 q 363 -14 265 -14 q 468 -2 421 -14 q 558 33 514 9 l 558 96 q 464 57 508 69 q 367 45 420 45 q 197 127 255 45 q 139 365 139 210 l 585 365 l 585 416 q 559 586 585 510 q 480 706 534 661 q 342 751 426 751 m 341 694 q 442 658 403 694 q 500 561 481 623 q 519 422 519 498 l 141 422 q 202 625 150 557 q 341 694 255 694 m 253 1063 l 174 1063 l 174 1052 q 213 1000 190 1028 q 262 944 236 972 q 315 888 289 915 q 366 842 342 862 l 411 842 l 411 855 q 355 919 385 884 q 299 992 326 955 q 253 1063 272 1029 "},"é":{"ha":656,"x_min":72,"x_max":585,"o":"m 342 751 q 193 703 253 751 q 102 567 133 654 q 72 365 72 479 q 103 166 72 252 q 200 34 135 81 q 363 -14 265 -14 q 468 -2 421 -14 q 558 33 514 9 l 558 96 q 464 57 508 69 q 367 45 420 45 q 197 127 255 45 q 139 365 139 210 l 585 365 l 585 416 q 559 586 585 510 q 480 706 534 661 q 342 751 426 751 m 341 694 q 442 658 403 694 q 500 561 481 623 q 519 422 519 498 l 141 422 q 202 625 150 557 q 341 694 255 694 m 513 1063 l 434 1063 q 389 995 414 1031 q 335 923 363 959 q 277 856 306 888 l 277 842 l 321 842 q 372 889 345 863 q 425 944 398 915 q 474 1001 452 973 q 513 1052 497 1029 l 513 1063 "},"ê":{"ha":656,"x_min":72,"x_max":585,"o":"m 342 751 q 193 703 253 751 q 102 567 133 654 q 72 365 72 479 q 103 166 72 252 q 200 34 135 81 q 363 -14 265 -14 q 468 -2 421 -14 q 558 33 514 9 l 558 96 q 464 57 508 69 q 367 45 420 45 q 197 127 255 45 q 139 365 139 210 l 585 365 l 585 416 q 559 586 585 510 q 480 706 534 661 q 342 751 426 751 m 341 694 q 442 658 403 694 q 500 561 481 623 q 519 422 519 498 l 141 422 q 202 625 150 557 q 341 694 255 694 m 367 1061 l 300 1061 q 259 994 285 1032 q 206 917 233 955 q 156 852 178 880 l 156 842 l 199 842 q 268 917 232 873 q 334 999 304 961 q 400 917 364 960 q 469 842 435 874 l 512 842 l 512 852 q 465 914 492 877 q 410 991 437 951 q 367 1061 384 1031 "},"ë":{"ha":656,"x_min":72,"x_max":585,"o":"m 342 751 q 193 703 253 751 q 102 567 133 654 q 72 365 72 479 q 103 166 72 252 q 200 34 135 81 q 363 -14 265 -14 q 468 -2 421 -14 q 558 33 514 9 l 558 96 q 464 57 508 69 q 367 45 420 45 q 197 127 255 45 q 139 365 139 210 l 585 365 l 585 416 q 559 586 585 510 q 480 706 534 661 q 342 751 426 751 m 341 694 q 442 658 403 694 q 500 561 481 623 q 519 422 519 498 l 141 422 q 202 625 150 557 q 341 694 255 694 m 172 934 q 184 894 172 909 q 216 880 196 880 q 250 894 238 880 q 261 934 261 908 q 250 972 261 958 q 216 987 238 987 q 184 972 196 987 q 172 934 172 958 m 406 934 q 417 894 406 909 q 450 880 429 880 q 483 894 471 880 q 494 934 494 909 q 483 972 494 958 q 450 987 471 987 q 417 972 429 987 q 406 934 406 958 "},"ì":{"ha":284,"x_min":-21,"x_max":216,"o":"m 175 0 l 175 737 l 109 737 l 109 0 l 175 0 m 58 1063 l -21 1063 l -21 1052 q 18 1000 -5 1028 q 68 944 41 972 q 121 888 94 915 q 171 842 147 862 l 216 842 l 216 855 q 161 919 190 884 q 104 992 132 955 q 58 1063 77 1029 "},"í":{"ha":284,"x_min":82,"x_max":317,"o":"m 175 0 l 175 737 l 109 737 l 109 0 l 175 0 m 318 1063 l 239 1063 q 194 995 219 1031 q 139 923 168 959 q 82 856 111 888 l 82 842 l 126 842 q 176 889 150 863 q 230 944 203 915 q 279 1001 256 973 q 318 1052 302 1029 l 318 1063 "},"î":{"ha":284,"x_min":-36,"x_max":320,"o":"m 175 0 l 175 737 l 109 737 l 109 0 l 175 0 m 175 1061 l 109 1061 q 67 994 93 1032 q 14 917 41 955 q -36 852 -14 880 l -36 842 l 7 842 q 76 917 40 873 q 142 999 112 961 q 208 917 172 960 q 277 842 243 874 l 320 842 l 320 852 q 273 914 300 877 q 218 991 245 951 q 175 1061 192 1031 "},"ï":{"ha":284,"x_min":-19,"x_max":303,"o":"m 175 0 l 175 737 l 109 737 l 109 0 l 175 0 m -19 934 q -7 894 -19 909 q 25 880 5 880 q 58 894 47 880 q 70 934 70 908 q 58 972 70 958 q 25 987 47 987 q -7 972 5 987 q -19 934 -19 958 m 214 934 q 226 894 214 909 q 258 880 237 880 q 291 894 279 880 q 303 934 303 909 q 291 972 303 958 q 258 987 279 987 q 226 972 238 987 q 214 934 214 958 "},"ð":{"ha":688,"x_min":70,"x_max":616,"o":"m 245 1055 l 212 1012 q 271 977 241 996 q 324 935 300 957 l 189 854 l 218 811 l 363 899 q 473 743 429 831 q 534 559 516 654 l 530 559 q 487 605 513 584 q 424 637 460 625 q 338 649 388 649 q 200 609 260 649 q 105 495 140 570 q 70 316 70 421 q 101 149 70 224 q 193 30 132 74 q 343 -14 254 -14 q 492 31 431 -14 q 585 162 553 76 q 616 370 616 248 q 594 585 616 483 q 527 774 571 686 q 415 932 482 861 l 543 1008 l 514 1052 l 376 968 q 315 1014 348 992 q 245 1055 283 1036 m 349 591 q 440 572 402 591 q 502 520 478 553 q 537 444 526 487 q 549 352 549 400 q 497 125 549 205 q 344 45 446 45 q 232 79 278 45 q 161 174 185 113 q 138 315 138 235 q 163 463 138 401 q 236 558 189 525 q 349 591 283 591 "},"ñ":{"ha":706,"x_min":109,"x_max":602,"o":"m 390 751 q 290 731 332 751 q 219 677 248 711 q 174 602 191 643 l 170 602 l 162 737 l 109 737 l 109 0 l 176 0 l 176 411 q 230 623 176 553 q 382 692 285 692 q 496 644 456 692 q 535 488 535 595 l 535 0 l 602 0 l 602 498 q 547 690 602 629 q 390 751 492 751 m 140 856 l 187 856 q 212 926 193 905 q 258 947 232 947 q 303 933 282 947 q 346 901 324 919 q 392 869 368 883 q 447 856 417 856 q 529 893 496 856 q 566 1002 562 931 l 519 1002 q 494 932 513 954 q 448 911 475 911 q 402 925 424 911 q 359 957 381 939 q 313 988 338 975 q 258 1002 289 1002 q 212 992 233 1002 q 176 964 191 982 q 152 918 161 945 q 140 856 143 891 "},"ò":{"ha":699,"x_min":71,"x_max":627,"o":"m 627 370 q 597 572 627 486 q 506 705 567 658 q 352 751 445 751 q 198 707 261 751 q 103 577 136 662 q 71 370 71 492 q 89 210 71 281 q 143 89 107 139 q 230 13 178 39 q 349 -14 281 -14 q 470 13 418 -14 q 557 89 522 39 q 609 209 592 138 q 627 370 627 280 m 139 370 q 192 608 139 524 q 351 692 244 692 q 472 652 426 692 q 538 540 517 612 q 559 370 559 468 q 537 194 559 267 q 468 84 515 121 q 350 46 422 46 q 231 85 278 46 q 162 196 184 123 q 139 370 139 269 m 264 1063 l 185 1063 l 185 1052 q 224 1000 201 1028 q 274 944 248 972 q 327 888 300 915 q 377 842 353 862 l 422 842 l 422 855 q 367 919 396 884 q 311 992 338 955 q 264 1063 283 1029 "},"ó":{"ha":699,"x_min":71,"x_max":627,"o":"m 627 370 q 597 572 627 486 q 506 705 567 658 q 352 751 445 751 q 198 707 261 751 q 103 577 136 662 q 71 370 71 492 q 89 210 71 281 q 143 89 107 139 q 230 13 178 39 q 349 -14 281 -14 q 470 13 418 -14 q 557 89 522 39 q 609 209 592 138 q 627 370 627 280 m 139 370 q 192 608 139 524 q 351 692 244 692 q 472 652 426 692 q 538 540 517 612 q 559 370 559 468 q 537 194 559 267 q 468 84 515 121 q 350 46 422 46 q 231 85 278 46 q 162 196 184 123 q 139 370 139 269 m 522 1063 l 442 1063 q 397 995 422 1031 q 343 923 372 959 q 286 856 314 888 l 286 842 l 330 842 q 380 889 353 863 q 433 944 406 915 q 483 1001 460 973 q 522 1052 505 1029 l 522 1063 "},"ô":{"ha":699,"x_min":71,"x_max":627,"o":"m 627 370 q 597 572 627 486 q 506 705 567 658 q 352 751 445 751 q 198 707 261 751 q 103 577 136 662 q 71 370 71 492 q 89 210 71 281 q 143 89 107 139 q 230 13 178 39 q 349 -14 281 -14 q 470 13 418 -14 q 557 89 522 39 q 609 209 592 138 q 627 370 627 280 m 139 370 q 192 608 139 524 q 351 692 244 692 q 472 652 426 692 q 538 540 517 612 q 559 370 559 468 q 537 194 559 267 q 468 84 515 121 q 350 46 422 46 q 231 85 278 46 q 162 196 184 123 q 139 370 139 269 m 381 1061 l 315 1061 q 273 994 299 1032 q 220 917 248 955 q 170 852 193 880 l 170 842 l 214 842 q 282 917 246 873 q 349 999 318 961 q 414 917 378 960 q 483 842 450 874 l 526 842 l 526 852 q 479 914 507 877 q 425 991 451 951 q 381 1061 398 1031 "},"õ":{"ha":699,"x_min":71,"x_max":627,"o":"m 627 370 q 597 572 627 486 q 506 705 567 658 q 352 751 445 751 q 198 707 261 751 q 103 577 136 662 q 71 370 71 492 q 89 210 71 281 q 143 89 107 139 q 230 13 178 39 q 349 -14 281 -14 q 470 13 418 -14 q 557 89 522 39 q 609 209 592 138 q 627 370 627 280 m 139 370 q 192 608 139 524 q 351 692 244 692 q 472 652 426 692 q 538 540 517 612 q 559 370 559 468 q 537 194 559 267 q 468 84 515 121 q 350 46 422 46 q 231 85 278 46 q 162 196 184 123 q 139 370 139 269 m 124 854 l 172 854 q 197 924 177 903 q 243 945 216 945 q 288 931 267 945 q 330 899 309 917 q 377 867 352 881 q 431 854 401 854 q 513 891 481 854 q 551 1000 546 929 l 504 1000 q 479 930 498 952 q 432 909 460 909 q 387 923 408 909 q 344 955 366 937 q 298 986 322 972 q 243 1000 273 1000 q 197 990 218 1000 q 161 962 176 980 q 137 916 146 943 q 124 854 127 889 "},"ö":{"ha":699,"x_min":71,"x_max":627,"o":"m 627 370 q 597 572 627 486 q 506 705 567 658 q 352 751 445 751 q 198 707 261 751 q 103 577 136 662 q 71 370 71 492 q 89 210 71 281 q 143 89 107 139 q 230 13 178 39 q 349 -14 281 -14 q 470 13 418 -14 q 557 89 522 39 q 609 209 592 138 q 627 370 627 280 m 139 370 q 192 608 139 524 q 351 692 244 692 q 472 652 426 692 q 538 540 517 612 q 559 370 559 468 q 537 194 559 267 q 468 84 515 121 q 350 46 422 46 q 231 85 278 46 q 162 196 184 123 q 139 370 139 269 m 187 934 q 199 894 187 909 q 231 880 211 880 q 264 894 253 880 q 276 934 276 908 q 264 972 276 958 q 231 987 253 987 q 199 972 211 987 q 187 934 187 958 m 420 934 q 432 894 420 909 q 465 880 444 880 q 497 894 486 880 q 509 934 509 909 q 497 972 509 958 q 465 987 486 987 q 432 972 444 987 q 420 934 420 958 "},"÷":{"ha":682,"x_min":58,"x_max":624,"o":"m 58 461 l 624 461 l 624 519 l 58 519 l 58 461 m 340 184 q 378 200 366 184 q 390 245 390 216 q 378 290 390 273 q 340 306 367 306 q 303 290 315 306 q 290 244 290 273 q 302 200 290 217 q 340 184 315 184 m 340 674 q 378 690 366 674 q 390 734 390 706 q 378 780 390 764 q 340 795 367 795 q 303 780 315 795 q 290 735 290 764 q 303 690 290 707 q 340 674 315 674 "},"ø":{"ha":713,"x_min":63,"x_max":644,"o":"m 638 370 q 621 527 638 456 q 570 648 604 598 l 644 768 l 598 795 l 531 689 q 458 735 500 720 q 363 751 416 751 q 155 652 227 751 q 83 370 83 553 q 100 215 83 283 q 150 96 117 146 l 63 -43 l 108 -72 l 187 54 q 263 4 220 22 q 360 -14 307 -14 q 513 32 452 -14 q 607 163 575 78 q 638 370 638 249 m 150 370 q 203 608 150 524 q 363 692 256 692 q 441 677 407 692 q 498 635 475 663 l 189 158 q 160 251 170 198 q 150 370 150 304 m 572 370 q 549 194 572 267 q 480 83 527 121 q 361 45 433 45 q 280 61 316 45 q 220 108 245 77 l 530 585 q 562 490 552 545 q 572 370 572 435 "},"ù":{"ha":706,"x_min":102,"x_max":596,"o":"m 596 737 l 529 737 l 529 330 q 505 171 529 234 q 436 77 481 108 q 323 46 391 46 q 209 97 248 46 q 170 256 170 147 l 170 737 l 102 737 l 102 245 q 126 102 102 160 q 196 15 149 44 q 315 -14 243 -14 q 416 7 374 -14 q 487 61 458 27 q 530 134 515 94 l 534 134 l 543 0 l 596 0 l 596 737 m 270 1063 l 191 1063 l 191 1052 q 230 1000 207 1028 q 279 944 253 972 q 332 888 306 915 q 382 842 359 862 l 428 842 l 428 855 q 372 919 401 884 q 316 992 343 955 q 270 1063 289 1029 "},"ú":{"ha":706,"x_min":102,"x_max":596,"o":"m 596 737 l 529 737 l 529 330 q 505 171 529 234 q 436 77 481 108 q 323 46 391 46 q 209 97 248 46 q 170 256 170 147 l 170 737 l 102 737 l 102 245 q 126 102 102 160 q 196 15 149 44 q 315 -14 243 -14 q 416 7 374 -14 q 487 61 458 27 q 530 134 515 94 l 534 134 l 543 0 l 596 0 l 596 737 m 529 1063 l 450 1063 q 405 995 430 1031 q 350 923 379 959 q 293 856 321 888 l 293 842 l 337 842 q 387 889 361 863 q 440 944 414 915 q 490 1001 467 973 q 529 1052 513 1029 l 529 1063 "},"û":{"ha":706,"x_min":102,"x_max":596,"o":"m 596 737 l 529 737 l 529 330 q 505 171 529 234 q 436 77 481 108 q 323 46 391 46 q 209 97 248 46 q 170 256 170 147 l 170 737 l 102 737 l 102 245 q 126 102 102 160 q 196 15 149 44 q 315 -14 243 -14 q 416 7 374 -14 q 487 61 458 27 q 530 134 515 94 l 534 134 l 543 0 l 596 0 l 596 737 m 386 1061 l 319 1061 q 278 994 304 1032 q 225 917 252 955 q 175 852 197 880 l 175 842 l 218 842 q 287 917 251 873 q 353 999 323 961 q 419 917 383 960 q 488 842 454 874 l 531 842 l 531 852 q 484 914 511 877 q 429 991 456 951 q 386 1061 403 1031 "},"ü":{"ha":706,"x_min":102,"x_max":596,"o":"m 596 737 l 529 737 l 529 330 q 505 171 529 234 q 436 77 481 108 q 323 46 391 46 q 209 97 248 46 q 170 256 170 147 l 170 737 l 102 737 l 102 245 q 126 102 102 160 q 196 15 149 44 q 315 -14 243 -14 q 416 7 374 -14 q 487 61 458 27 q 530 134 515 94 l 534 134 l 543 0 l 596 0 l 596 737 m 191 934 q 203 894 191 909 q 235 880 215 880 q 269 894 257 880 q 280 934 280 908 q 269 972 280 958 q 235 987 257 987 q 203 972 215 987 q 191 934 191 958 m 425 934 q 436 894 425 909 q 469 880 448 880 q 502 894 490 880 q 513 934 513 909 q 502 972 513 958 q 469 987 490 987 q 436 972 448 987 q 425 934 425 958 "},"ý":{"ha":553,"x_min":8,"x_max":548,"o":"m 12 737 l 247 9 l 203 -134 q 168 -216 186 -185 q 125 -261 149 -248 q 73 -275 102 -275 q 39 -272 56 -275 q 8 -262 23 -268 l 8 -323 q 42 -332 26 -328 q 79 -336 59 -336 q 160 -315 125 -336 q 220 -252 195 -295 q 267 -144 246 -210 l 548 737 l 478 737 l 329 256 q 302 169 314 210 q 282 93 290 129 l 277 93 q 267 136 273 113 q 253 188 261 159 q 231 256 244 217 l 81 737 l 12 737 m 450 1063 l 370 1063 q 325 995 351 1031 q 271 923 300 959 q 214 856 242 888 l 214 842 l 258 842 q 308 889 281 863 q 361 944 334 915 q 411 1001 388 973 q 450 1052 433 1029 l 450 1063 "},"þ":{"ha":718,"x_min":109,"x_max":648,"o":"m 648 374 q 582 656 648 562 q 392 751 515 751 q 290 730 332 751 q 219 673 248 709 q 174 593 191 637 l 171 593 q 175 665 174 625 q 176 734 176 705 l 176 1055 l 109 1055 l 109 -326 l 176 -326 l 176 5 q 176 50 176 27 q 174 94 175 73 q 172 134 174 116 l 177 134 q 219 60 192 94 q 288 7 246 27 q 388 -14 330 -14 q 526 30 468 -14 q 616 160 585 74 q 648 374 648 247 m 580 374 q 556 192 580 264 q 488 82 532 119 q 379 46 443 46 q 229 121 281 46 q 176 348 176 197 l 176 391 q 229 614 177 536 q 383 692 280 692 q 531 612 483 692 q 580 374 580 532 "},"ÿ":{"ha":553,"x_min":8,"x_max":548,"o":"m 12 737 l 247 9 l 203 -134 q 168 -216 186 -185 q 125 -261 149 -248 q 73 -275 102 -275 q 39 -272 56 -275 q 8 -262 23 -268 l 8 -323 q 42 -332 26 -328 q 79 -336 59 -336 q 160 -315 125 -336 q 220 -252 195 -295 q 267 -144 246 -210 l 548 737 l 478 737 l 329 256 q 302 169 314 210 q 282 93 290 129 l 277 93 q 267 136 273 113 q 253 188 261 159 q 231 256 244 217 l 81 737 l 12 737 m 114 934 q 126 894 114 909 q 158 880 138 880 q 191 894 180 880 q 203 934 203 908 q 191 972 203 958 q 158 987 180 987 q 126 972 138 987 q 114 934 114 958 m 347 934 q 359 894 347 909 q 391 880 370 880 q 424 894 412 880 q 436 934 436 909 q 424 972 436 958 q 391 987 412 987 q 359 972 371 987 q 347 934 347 958 "},"Ā":{"ha":699,"x_min":0,"x_max":698,"o":"m 627 0 l 698 0 l 389 994 l 314 994 l 0 0 l 71 0 l 182 355 l 517 355 l 627 0 m 498 418 l 201 418 l 315 798 q 327 840 321 818 q 339 883 333 861 q 350 926 345 904 q 362 882 356 905 q 374 838 368 860 q 386 798 380 817 l 498 418 m 519 1162 l 180 1162 l 180 1106 l 519 1106 l 519 1162 "},"ā":{"ha":635,"x_min":58,"x_max":532,"o":"m 322 751 q 216 736 268 751 q 120 698 165 722 l 142 644 q 232 681 189 669 q 317 693 275 693 q 430 647 393 693 q 466 489 466 601 l 466 431 l 355 424 q 135 357 212 415 q 58 190 58 300 q 81 85 58 131 q 146 13 103 39 q 254 -14 190 -14 q 354 5 314 -14 q 422 54 395 23 q 467 124 449 85 l 471 124 l 480 0 l 532 0 l 532 497 q 481 690 532 629 q 322 751 430 751 m 466 378 l 466 302 q 416 113 466 183 q 267 42 366 42 q 164 80 201 42 q 127 191 127 118 q 186 320 127 276 q 361 372 245 365 l 466 378 m 486 907 l 147 907 l 147 852 l 486 852 l 486 907 "},"Ă":{"ha":699,"x_min":0,"x_max":698,"o":"m 627 0 l 698 0 l 389 994 l 314 994 l 0 0 l 71 0 l 182 355 l 517 355 l 627 0 m 498 418 l 201 418 l 315 798 q 327 840 321 818 q 339 883 333 861 q 350 926 345 904 q 362 882 356 905 q 374 838 368 860 q 386 798 380 817 l 498 418 m 519 1261 l 469 1261 q 451 1203 466 1227 q 411 1166 437 1179 q 350 1154 386 1154 q 288 1166 313 1154 q 247 1202 262 1178 q 229 1261 233 1226 l 181 1261 q 230 1140 186 1182 q 349 1098 273 1098 q 436 1118 399 1098 q 494 1175 473 1138 q 519 1261 515 1211 "},"ă":{"ha":635,"x_min":58,"x_max":532,"o":"m 322 751 q 216 736 268 751 q 120 698 165 722 l 142 644 q 232 681 189 669 q 317 693 275 693 q 430 647 393 693 q 466 489 466 601 l 466 431 l 355 424 q 135 357 212 415 q 58 190 58 300 q 81 85 58 131 q 146 13 103 39 q 254 -14 190 -14 q 354 5 314 -14 q 422 54 395 23 q 467 124 449 85 l 471 124 l 480 0 l 532 0 l 532 497 q 481 690 532 629 q 322 751 430 751 m 466 378 l 466 302 q 416 113 466 183 q 267 42 366 42 q 164 80 201 42 q 127 191 127 118 q 186 320 127 276 q 361 372 245 365 l 466 378 m 486 1007 l 436 1007 q 418 949 433 973 q 378 912 404 924 q 317 899 353 899 q 254 911 280 899 q 214 948 229 924 q 196 1007 199 972 l 148 1007 q 196 886 153 928 q 315 844 240 844 q 403 864 366 844 q 460 920 439 884 q 486 1007 481 957 "},"Ą":{"ha":699,"x_min":0,"x_max":698,"o":"m 627 0 l 698 0 l 389 994 l 314 994 l 0 0 l 71 0 l 182 355 l 517 355 l 627 0 m 498 418 l 201 418 l 315 798 q 327 840 321 818 q 339 883 333 861 q 350 926 345 904 q 362 882 356 905 q 374 838 368 860 q 386 798 380 817 l 498 418 m 570 -177 q 599 -86 570 -129 q 677 0 627 -44 l 636 16 q 570 -46 597 -14 q 527 -114 542 -79 q 511 -186 511 -149 q 543 -273 511 -243 q 629 -304 574 -304 q 667 -300 650 -304 q 695 -294 684 -297 l 695 -244 q 671 -249 686 -247 q 639 -252 656 -252 q 588 -233 606 -252 q 570 -177 570 -214 "},"ą":{"ha":635,"x_min":58,"x_max":551,"o":"m 322 751 q 216 736 268 751 q 120 698 165 722 l 142 644 q 232 681 189 669 q 317 693 275 693 q 430 647 393 693 q 466 489 466 601 l 466 431 l 355 424 q 135 357 212 415 q 58 190 58 300 q 81 85 58 131 q 146 13 103 39 q 254 -14 190 -14 q 354 5 314 -14 q 422 54 395 23 q 467 124 449 85 l 471 124 l 480 0 l 532 0 l 532 497 q 481 690 532 629 q 322 751 430 751 m 466 378 l 466 302 q 416 113 466 183 q 267 42 366 42 q 164 80 201 42 q 127 191 127 118 q 186 320 127 276 q 361 372 245 365 l 466 378 m 427 -177 q 455 -86 427 -129 q 534 0 484 -44 l 492 16 q 426 -46 454 -14 q 383 -114 398 -79 q 368 -186 368 -149 q 399 -273 368 -243 q 486 -304 430 -304 q 523 -300 506 -304 q 551 -294 540 -297 l 551 -244 q 527 -249 543 -247 q 495 -252 512 -252 q 444 -233 462 -252 q 427 -177 427 -214 "},"Ć":{"ha":728,"x_min":79,"x_max":690,"o":"m 480 944 q 573 933 527 944 q 663 899 618 922 l 690 958 q 590 994 642 981 q 480 1006 537 1006 q 306 967 380 1006 q 180 858 231 928 q 105 696 130 788 q 79 498 79 604 q 125 227 79 342 q 258 49 171 112 q 469 -14 345 -14 q 582 -3 532 -14 q 671 26 632 8 l 671 87 q 584 60 633 71 q 475 48 535 48 q 298 104 371 48 q 188 261 226 159 q 151 497 151 362 q 171 671 151 589 q 233 813 192 752 q 336 909 274 875 q 480 944 398 944 m 630 1317 l 551 1317 q 506 1249 531 1285 q 451 1178 480 1213 q 394 1110 422 1142 l 394 1096 l 438 1096 q 488 1143 462 1117 q 542 1198 515 1169 q 591 1255 568 1227 q 630 1306 614 1283 l 630 1317 "},"ć":{"ha":556,"x_min":72,"x_max":521,"o":"m 359 -14 q 444 -4 404 -14 q 514 19 484 5 l 514 79 q 441 55 480 64 q 362 46 403 46 q 236 86 286 46 q 163 197 187 126 q 140 363 140 269 q 168 541 140 468 q 248 653 195 614 q 374 691 300 691 q 438 684 406 691 q 500 661 471 676 l 521 719 q 453 743 490 734 q 372 751 416 751 q 212 706 279 751 q 108 573 144 660 q 72 363 72 486 q 104 161 72 245 q 200 32 136 77 q 359 -14 264 -14 m 511 1063 l 432 1063 q 387 995 412 1031 q 333 923 361 959 q 275 856 304 888 l 275 842 l 319 842 q 370 889 343 863 q 423 944 396 915 q 472 1001 450 973 q 511 1052 495 1029 l 511 1063 "},"Ĉ":{"ha":728,"x_min":79,"x_max":690,"o":"m 480 944 q 573 933 527 944 q 663 899 618 922 l 690 958 q 590 994 642 981 q 480 1006 537 1006 q 306 967 380 1006 q 180 858 231 928 q 105 696 130 788 q 79 498 79 604 q 125 227 79 342 q 258 49 171 112 q 469 -14 345 -14 q 582 -3 532 -14 q 671 26 632 8 l 671 87 q 584 60 633 71 q 475 48 535 48 q 298 104 371 48 q 188 261 226 159 q 151 497 151 362 q 171 671 151 589 q 233 813 192 752 q 336 909 274 875 q 480 944 398 944 m 481 1316 l 415 1316 q 374 1248 399 1286 q 320 1172 348 1209 q 271 1107 293 1134 l 271 1096 l 314 1096 q 382 1172 347 1128 q 449 1253 418 1215 q 514 1171 479 1214 q 583 1096 550 1128 l 627 1096 l 627 1107 q 579 1168 607 1131 q 525 1245 551 1206 q 481 1316 498 1285 "},"ĉ":{"ha":556,"x_min":72,"x_max":521,"o":"m 359 -14 q 444 -4 404 -14 q 514 19 484 5 l 514 79 q 441 55 480 64 q 362 46 403 46 q 236 86 286 46 q 163 197 187 126 q 140 363 140 269 q 168 541 140 468 q 248 653 195 614 q 374 691 300 691 q 438 684 406 691 q 500 661 471 676 l 521 719 q 453 743 490 734 q 372 751 416 751 q 212 706 279 751 q 108 573 144 660 q 72 363 72 486 q 104 161 72 245 q 200 32 136 77 q 359 -14 264 -14 m 368 1061 l 302 1061 q 260 994 286 1032 q 207 917 235 955 q 157 852 180 880 l 157 842 l 201 842 q 269 917 233 873 q 336 999 305 961 q 401 917 366 960 q 470 842 437 874 l 513 842 l 513 852 q 466 914 494 877 q 412 991 438 951 q 368 1061 385 1031 "},"Ċ":{"ha":728,"x_min":79,"x_max":690,"o":"m 480 944 q 573 933 527 944 q 663 899 618 922 l 690 958 q 590 994 642 981 q 480 1006 537 1006 q 306 967 380 1006 q 180 858 231 928 q 105 696 130 788 q 79 498 79 604 q 125 227 79 342 q 258 49 171 112 q 469 -14 345 -14 q 582 -3 532 -14 q 671 26 632 8 l 671 87 q 584 60 633 71 q 475 48 535 48 q 298 104 371 48 q 188 261 226 159 q 151 497 151 362 q 171 671 151 589 q 233 813 192 752 q 336 909 274 875 q 480 944 398 944 m 452 1259 q 416 1242 428 1259 q 404 1200 404 1226 q 416 1159 404 1175 q 452 1143 429 1143 q 488 1159 476 1143 q 500 1201 500 1175 q 489 1242 500 1226 q 452 1259 477 1259 "},"ċ":{"ha":556,"x_min":72,"x_max":521,"o":"m 359 -14 q 444 -4 404 -14 q 514 19 484 5 l 514 79 q 441 55 480 64 q 362 46 403 46 q 236 86 286 46 q 163 197 187 126 q 140 363 140 269 q 168 541 140 468 q 248 653 195 614 q 374 691 300 691 q 438 684 406 691 q 500 661 471 676 l 521 719 q 453 743 490 734 q 372 751 416 751 q 212 706 279 751 q 108 573 144 660 q 72 363 72 486 q 104 161 72 245 q 200 32 136 77 q 359 -14 264 -14 m 336 1012 q 299 996 311 1012 q 288 954 288 979 q 300 912 288 928 q 336 897 312 897 q 372 912 359 897 q 384 954 384 928 q 372 996 384 979 q 336 1012 361 1012 "},"Č":{"ha":728,"x_min":79,"x_max":690,"o":"m 480 944 q 573 933 527 944 q 663 899 618 922 l 690 958 q 590 994 642 981 q 480 1006 537 1006 q 306 967 380 1006 q 180 858 231 928 q 105 696 130 788 q 79 498 79 604 q 125 227 79 342 q 258 49 171 112 q 469 -14 345 -14 q 582 -3 532 -14 q 671 26 632 8 l 671 87 q 584 60 633 71 q 475 48 535 48 q 298 104 371 48 q 188 261 226 159 q 151 497 151 362 q 171 671 151 589 q 233 813 192 752 q 336 909 274 875 q 480 944 398 944 m 417 1096 l 480 1096 q 523 1164 497 1127 q 576 1239 548 1202 q 626 1304 604 1276 l 626 1316 l 583 1316 q 513 1239 546 1278 q 448 1158 480 1200 q 384 1242 419 1199 q 317 1316 349 1284 l 273 1316 l 273 1304 q 323 1240 296 1277 q 375 1166 350 1204 q 417 1096 400 1128 "},"č":{"ha":556,"x_min":72,"x_max":521,"o":"m 359 -14 q 444 -4 404 -14 q 514 19 484 5 l 514 79 q 441 55 480 64 q 362 46 403 46 q 236 86 286 46 q 163 197 187 126 q 140 363 140 269 q 168 541 140 468 q 248 653 195 614 q 374 691 300 691 q 438 684 406 691 q 500 661 471 676 l 521 719 q 453 743 490 734 q 372 751 416 751 q 212 706 279 751 q 108 573 144 660 q 72 363 72 486 q 104 161 72 245 q 200 32 136 77 q 359 -14 264 -14 m 305 842 l 368 842 q 411 910 385 873 q 464 984 436 947 q 514 1050 492 1021 l 514 1061 l 471 1061 q 401 985 434 1023 q 336 904 368 946 q 272 987 307 945 q 205 1061 237 1030 l 161 1061 l 161 1050 q 211 986 184 1023 q 263 911 238 949 q 305 842 288 873 "},"Ď":{"ha":830,"x_min":123,"x_max":750,"o":"m 750 506 q 705 773 750 665 q 569 937 659 882 q 345 991 479 991 l 123 991 l 123 0 l 328 0 q 562 57 468 0 q 703 227 656 114 q 750 506 750 340 m 679 503 q 592 173 679 283 q 324 62 505 62 l 191 62 l 191 930 l 336 930 q 531 882 455 930 q 643 738 607 833 q 679 503 679 642 m 363 1096 l 426 1096 q 468 1164 443 1127 q 522 1239 494 1202 q 572 1304 549 1276 l 572 1316 l 528 1316 q 459 1239 492 1278 q 394 1158 426 1200 q 330 1242 365 1199 q 262 1316 295 1284 l 219 1316 l 219 1304 q 269 1240 241 1277 q 321 1166 296 1204 q 363 1096 346 1128 "},"ď":{"ha":718,"x_min":71,"x_max":779,"o":"m 332 -14 q 431 6 390 -14 q 500 60 473 26 q 543 132 528 93 l 547 132 l 556 0 l 610 0 l 610 1055 l 543 1055 l 543 734 q 544 674 543 707 q 547 609 545 641 l 543 609 q 500 681 528 648 q 431 732 472 713 q 336 751 390 751 q 141 651 210 751 q 71 361 71 551 q 137 82 71 178 q 332 -14 203 -14 m 340 45 q 189 126 237 45 q 140 360 140 208 q 192 607 140 522 q 345 692 244 692 q 495 614 446 692 q 544 393 544 536 l 544 339 q 495 122 544 199 q 340 45 446 45 m 779 1055 l 708 1055 q 701 1007 706 1037 q 688 946 695 978 q 675 886 682 913 q 662 846 668 859 l 662 832 l 699 832 q 732 897 716 859 q 760 975 747 936 q 779 1044 772 1015 l 779 1055 "},"Đ":{"ha":833,"x_min":34,"x_max":753,"o":"m 348 991 l 127 991 l 127 535 l 34 535 l 34 475 l 127 475 l 127 0 l 330 0 q 565 57 471 0 q 706 227 659 114 q 753 506 753 340 q 707 773 753 665 q 572 937 662 882 q 348 991 481 991 m 338 930 q 534 882 458 930 q 646 738 610 833 q 682 503 682 642 q 595 173 682 283 q 327 62 508 62 l 196 62 l 196 475 l 417 475 l 417 535 l 196 535 l 196 930 l 338 930 "},"đ":{"ha":722,"x_min":71,"x_max":706,"o":"m 332 -14 q 431 6 389 -14 q 499 59 472 26 q 543 132 527 92 l 547 132 l 555 0 l 610 0 l 610 864 l 706 864 l 706 919 l 610 919 l 610 1055 l 543 1055 l 543 919 l 299 919 l 299 864 l 543 864 l 543 732 q 545 671 543 704 q 547 607 546 639 l 543 607 q 500 678 528 646 q 431 729 472 710 q 336 749 391 749 q 141 649 210 749 q 71 359 71 550 q 137 82 71 177 q 332 -14 203 -14 m 340 45 q 189 126 237 45 q 140 359 140 206 q 192 605 140 521 q 345 689 244 689 q 494 612 446 689 q 543 391 543 534 l 543 340 q 494 122 543 199 q 340 45 446 45 "},"Ē":{"ha":654,"x_min":123,"x_max":578,"o":"m 578 0 l 578 62 l 191 62 l 191 490 l 556 490 l 556 552 l 191 552 l 191 930 l 578 930 l 578 991 l 123 991 l 123 0 l 578 0 m 526 1162 l 187 1162 l 187 1106 l 526 1106 l 526 1162 "},"ē":{"ha":656,"x_min":72,"x_max":585,"o":"m 342 751 q 193 703 253 751 q 102 567 133 654 q 72 365 72 479 q 103 166 72 252 q 200 34 135 81 q 363 -14 265 -14 q 468 -2 421 -14 q 558 33 514 9 l 558 96 q 464 57 508 69 q 367 45 420 45 q 197 127 255 45 q 139 365 139 210 l 585 365 l 585 416 q 559 586 585 510 q 480 706 534 661 q 342 751 426 751 m 341 694 q 442 658 403 694 q 500 561 481 623 q 519 422 519 498 l 141 422 q 202 625 150 557 q 341 694 255 694 m 500 907 l 161 907 l 161 852 l 500 852 l 500 907 "},"Ĕ":{"ha":654,"x_min":123,"x_max":578,"o":"m 578 0 l 578 62 l 191 62 l 191 490 l 556 490 l 556 552 l 191 552 l 191 930 l 578 930 l 578 991 l 123 991 l 123 0 l 578 0 m 529 1261 l 479 1261 q 461 1203 476 1227 q 421 1166 447 1179 q 360 1154 396 1154 q 298 1166 323 1154 q 257 1202 272 1178 q 239 1261 243 1226 l 191 1261 q 240 1140 196 1182 q 359 1098 283 1098 q 446 1118 410 1098 q 504 1175 483 1138 q 529 1261 525 1211 "},"ĕ":{"ha":656,"x_min":72,"x_max":585,"o":"m 342 751 q 193 703 253 751 q 102 567 133 654 q 72 365 72 479 q 103 166 72 252 q 200 34 135 81 q 363 -14 265 -14 q 468 -2 421 -14 q 558 33 514 9 l 558 96 q 464 57 508 69 q 367 45 420 45 q 197 127 255 45 q 139 365 139 210 l 585 365 l 585 416 q 559 586 585 510 q 480 706 534 661 q 342 751 426 751 m 341 694 q 442 658 403 694 q 500 561 481 623 q 519 422 519 498 l 141 422 q 202 625 150 557 q 341 694 255 694 m 507 1007 l 457 1007 q 439 949 454 973 q 399 912 425 924 q 338 899 374 899 q 275 911 301 899 q 235 948 250 924 q 217 1007 220 972 l 169 1007 q 217 886 174 928 q 336 844 261 844 q 424 864 387 844 q 481 920 460 884 q 507 1007 503 957 "},"Ė":{"ha":654,"x_min":123,"x_max":578,"o":"m 578 0 l 578 62 l 191 62 l 191 490 l 556 490 l 556 552 l 191 552 l 191 930 l 578 930 l 578 991 l 123 991 l 123 0 l 578 0 m 360 1261 q 324 1245 336 1261 q 312 1203 312 1229 q 324 1162 312 1177 q 360 1146 336 1146 q 396 1162 384 1146 q 408 1204 408 1177 q 397 1245 408 1229 q 360 1261 385 1261 "},"ė":{"ha":656,"x_min":72,"x_max":585,"o":"m 342 751 q 193 703 253 751 q 102 567 133 654 q 72 365 72 479 q 103 166 72 252 q 200 34 135 81 q 363 -14 265 -14 q 468 -2 421 -14 q 558 33 514 9 l 558 96 q 464 57 508 69 q 367 45 420 45 q 197 127 255 45 q 139 365 139 210 l 585 365 l 585 416 q 559 586 585 510 q 480 706 534 661 q 342 751 426 751 m 341 694 q 442 658 403 694 q 500 561 481 623 q 519 422 519 498 l 141 422 q 202 625 150 557 q 341 694 255 694 m 338 1012 q 301 996 313 1012 q 290 954 290 979 q 302 912 290 928 q 338 897 314 897 q 374 912 361 897 q 386 954 386 928 q 374 996 386 979 q 338 1012 363 1012 "},"Ę":{"ha":654,"x_min":123,"x_max":578,"o":"m 578 0 l 578 62 l 191 62 l 191 490 l 556 490 l 556 552 l 191 552 l 191 930 l 578 930 l 578 991 l 123 991 l 123 0 l 578 0 m 431 -177 q 460 -86 431 -129 q 538 0 488 -44 l 497 16 q 431 -46 458 -14 q 388 -114 403 -79 q 372 -186 372 -149 q 404 -273 372 -243 q 490 -304 435 -304 q 528 -300 511 -304 q 556 -294 545 -297 l 556 -244 q 532 -249 547 -247 q 500 -252 517 -252 q 449 -233 467 -252 q 431 -177 431 -214 "},"ę":{"ha":656,"x_min":72,"x_max":585,"o":"m 419 -178 q 436 -111 419 -145 q 483 -41 452 -77 q 553 31 513 -5 l 489 19 q 421 -45 450 -12 q 377 -114 393 -79 q 361 -185 361 -149 q 393 -274 361 -243 q 481 -304 425 -304 q 519 -300 502 -304 q 549 -293 536 -297 l 549 -243 q 524 -249 539 -246 q 491 -251 509 -251 q 437 -232 456 -251 q 419 -178 419 -214 m 342 751 q 193 703 253 751 q 102 567 133 654 q 72 365 72 479 q 103 166 72 252 q 200 34 135 81 q 363 -14 265 -14 q 468 -2 421 -14 q 558 33 514 9 l 558 96 q 464 57 508 69 q 367 45 420 45 q 197 127 255 45 q 139 365 139 210 l 585 365 l 585 416 q 559 586 585 510 q 480 706 534 661 q 342 751 426 751 m 341 694 q 442 658 403 694 q 500 561 481 623 q 519 422 519 498 l 141 422 q 202 625 150 557 q 341 694 255 694 "},"Ě":{"ha":654,"x_min":123,"x_max":578,"o":"m 578 0 l 578 62 l 191 62 l 191 490 l 556 490 l 556 552 l 191 552 l 191 930 l 578 930 l 578 991 l 123 991 l 123 0 l 578 0 m 326 1096 l 389 1096 q 431 1164 406 1127 q 484 1239 456 1202 q 534 1304 512 1276 l 534 1316 l 491 1316 q 421 1239 454 1278 q 357 1158 389 1200 q 293 1242 328 1199 q 225 1316 258 1284 l 182 1316 l 182 1304 q 231 1240 204 1277 q 283 1166 258 1204 q 326 1096 309 1128 "},"ě":{"ha":656,"x_min":72,"x_max":585,"o":"m 342 751 q 193 703 253 751 q 102 567 133 654 q 72 365 72 479 q 103 166 72 252 q 200 34 135 81 q 363 -14 265 -14 q 468 -2 421 -14 q 558 33 514 9 l 558 96 q 464 57 508 69 q 367 45 420 45 q 197 127 255 45 q 139 365 139 210 l 585 365 l 585 416 q 559 586 585 510 q 480 706 534 661 q 342 751 426 751 m 341 694 q 442 658 403 694 q 500 561 481 623 q 519 422 519 498 l 141 422 q 202 625 150 557 q 341 694 255 694 m 299 842 l 362 842 q 405 910 379 873 q 458 984 430 947 q 508 1050 486 1021 l 508 1061 l 465 1061 q 395 985 428 1023 q 330 904 362 946 q 266 987 301 945 q 199 1061 231 1030 l 155 1061 l 155 1050 q 205 986 178 1023 q 257 911 232 949 q 299 842 282 873 "},"Ĝ":{"ha":870,"x_min":79,"x_max":777,"o":"m 475 501 l 475 439 l 711 439 l 711 83 q 618 58 669 67 q 508 48 567 48 q 309 102 389 48 q 190 255 230 155 q 151 494 151 355 q 192 730 151 629 q 315 888 234 831 q 515 945 397 945 q 627 931 571 945 q 738 886 682 917 l 766 945 q 646 992 708 977 q 515 1006 584 1006 q 278 941 375 1006 q 130 761 180 876 q 79 494 79 645 q 126 227 79 341 q 266 50 173 113 q 499 -14 359 -14 q 643 0 572 -14 q 777 40 714 13 l 777 501 l 475 501 m 517 1316 l 451 1316 q 410 1248 435 1286 q 356 1172 384 1209 q 307 1107 329 1134 l 307 1096 l 350 1096 q 418 1172 382 1128 q 485 1253 454 1215 q 550 1171 515 1214 q 619 1096 586 1128 l 663 1096 l 663 1107 q 615 1168 643 1131 q 561 1245 587 1206 q 517 1316 534 1285 "},"ĝ":{"ha":604,"x_min":18,"x_max":588,"o":"m 269 -334 q 499 -270 418 -334 q 580 -90 580 -205 q 527 53 580 5 q 373 101 473 101 l 260 101 q 207 110 229 101 q 174 134 185 119 q 162 172 162 149 q 181 234 162 209 q 231 281 199 259 q 288 275 258 275 q 452 340 393 275 q 511 515 511 404 q 498 603 511 559 q 459 680 486 646 l 588 690 l 588 737 l 386 737 q 360 746 374 743 q 329 750 346 749 q 290 751 312 751 q 172 721 222 751 q 95 636 122 691 q 68 508 68 582 q 98 376 68 431 q 182 296 129 320 q 122 236 142 269 q 102 166 102 203 q 120 105 102 131 q 167 64 138 79 q 59 -1 100 51 q 18 -130 18 -52 q 84 -280 18 -227 q 269 -334 151 -334 m 274 -277 q 134 -238 184 -277 q 85 -124 85 -199 q 106 -31 85 -66 q 166 20 127 4 q 252 35 204 35 l 355 35 q 438 25 402 35 q 494 -13 474 15 q 514 -91 514 -41 q 487 -194 514 -153 q 407 -256 460 -235 q 274 -277 353 -277 m 290 330 q 175 376 214 330 q 136 508 136 423 q 177 648 136 597 q 288 698 218 698 q 402 651 361 698 q 444 511 444 604 q 404 376 444 422 q 290 330 363 330 m 321 1061 l 254 1061 q 213 994 239 1032 q 160 917 187 955 q 110 852 132 880 l 110 842 l 153 842 q 222 917 186 873 q 288 999 258 961 q 354 917 318 960 q 422 842 389 874 l 466 842 l 466 852 q 418 914 446 877 q 364 991 391 951 q 321 1061 338 1031 "},"Ğ":{"ha":870,"x_min":79,"x_max":777,"o":"m 475 501 l 475 439 l 711 439 l 711 83 q 618 58 669 67 q 508 48 567 48 q 309 102 389 48 q 190 255 230 155 q 151 494 151 355 q 192 730 151 629 q 315 888 234 831 q 515 945 397 945 q 627 931 571 945 q 738 886 682 917 l 766 945 q 646 992 708 977 q 515 1006 584 1006 q 278 941 375 1006 q 130 761 180 876 q 79 494 79 645 q 126 227 79 341 q 266 50 173 113 q 499 -14 359 -14 q 643 0 572 -14 q 777 40 714 13 l 777 501 l 475 501 m 661 1261 l 611 1261 q 593 1203 608 1227 q 553 1166 578 1179 q 492 1154 528 1154 q 429 1166 455 1154 q 389 1202 404 1178 q 371 1261 374 1226 l 323 1261 q 371 1140 328 1182 q 490 1098 415 1098 q 578 1118 541 1098 q 635 1175 614 1138 q 661 1261 656 1211 "},"ğ":{"ha":604,"x_min":18,"x_max":588,"o":"m 269 -334 q 499 -270 418 -334 q 580 -90 580 -205 q 527 53 580 5 q 373 101 473 101 l 260 101 q 207 110 229 101 q 174 134 185 119 q 162 172 162 149 q 181 234 162 209 q 231 281 199 259 q 288 275 258 275 q 452 340 393 275 q 511 515 511 404 q 498 603 511 559 q 459 680 486 646 l 588 690 l 588 737 l 386 737 q 360 746 374 743 q 329 750 346 749 q 290 751 312 751 q 172 721 222 751 q 95 636 122 691 q 68 508 68 582 q 98 376 68 431 q 182 296 129 320 q 122 236 142 269 q 102 166 102 203 q 120 105 102 131 q 167 64 138 79 q 59 -1 100 51 q 18 -130 18 -52 q 84 -280 18 -227 q 269 -334 151 -334 m 274 -277 q 134 -238 184 -277 q 85 -124 85 -199 q 106 -31 85 -66 q 166 20 127 4 q 252 35 204 35 l 355 35 q 438 25 402 35 q 494 -13 474 15 q 514 -91 514 -41 q 487 -194 514 -153 q 407 -256 460 -235 q 274 -277 353 -277 m 290 330 q 175 376 214 330 q 136 508 136 423 q 177 648 136 597 q 288 698 218 698 q 402 651 361 698 q 444 511 444 604 q 404 376 444 422 q 290 330 363 330 m 457 1007 l 408 1007 q 390 949 404 973 q 350 912 375 924 q 288 899 324 899 q 226 911 252 899 q 185 948 200 924 q 168 1007 171 972 l 119 1007 q 168 886 124 928 q 287 844 212 844 q 374 864 338 844 q 432 920 411 884 q 457 1007 453 957 "},"Ġ":{"ha":870,"x_min":79,"x_max":777,"o":"m 475 501 l 475 439 l 711 439 l 711 83 q 618 58 669 67 q 508 48 567 48 q 309 102 389 48 q 190 255 230 155 q 151 494 151 355 q 192 730 151 629 q 315 888 234 831 q 515 945 397 945 q 627 931 571 945 q 738 886 682 917 l 766 945 q 646 992 708 977 q 515 1006 584 1006 q 278 941 375 1006 q 130 761 180 876 q 79 494 79 645 q 126 227 79 341 q 266 50 173 113 q 499 -14 359 -14 q 643 0 572 -14 q 777 40 714 13 l 777 501 l 475 501 m 493 1265 q 457 1249 469 1265 q 445 1206 445 1232 q 457 1165 445 1181 q 493 1149 469 1149 q 529 1165 517 1149 q 541 1207 541 1181 q 530 1249 541 1232 q 493 1265 518 1265 "},"ġ":{"ha":604,"x_min":18,"x_max":588,"o":"m 269 -334 q 499 -270 418 -334 q 580 -90 580 -205 q 527 53 580 5 q 373 101 473 101 l 260 101 q 207 110 229 101 q 174 134 185 119 q 162 172 162 149 q 181 234 162 209 q 231 281 199 259 q 288 275 258 275 q 452 340 393 275 q 511 515 511 404 q 498 603 511 559 q 459 680 486 646 l 588 690 l 588 737 l 386 737 q 360 746 374 743 q 329 750 346 749 q 290 751 312 751 q 172 721 222 751 q 95 636 122 691 q 68 508 68 582 q 98 376 68 431 q 182 296 129 320 q 122 236 142 269 q 102 166 102 203 q 120 105 102 131 q 167 64 138 79 q 59 -1 100 51 q 18 -130 18 -52 q 84 -280 18 -227 q 269 -334 151 -334 m 274 -277 q 134 -238 184 -277 q 85 -124 85 -199 q 106 -31 85 -66 q 166 20 127 4 q 252 35 204 35 l 355 35 q 438 25 402 35 q 494 -13 474 15 q 514 -91 514 -41 q 487 -194 514 -153 q 407 -256 460 -235 q 274 -277 353 -277 m 290 330 q 175 376 214 330 q 136 508 136 423 q 177 648 136 597 q 288 698 218 698 q 402 651 361 698 q 444 511 444 604 q 404 376 444 422 q 290 330 363 330 m 288 1012 q 252 996 264 1012 q 240 954 240 979 q 252 912 240 928 q 288 897 264 897 q 324 912 312 897 q 336 954 336 928 q 325 996 336 979 q 288 1012 313 1012 "},"Ģ":{"ha":870,"x_min":79,"x_max":777,"o":"m 475 501 l 475 439 l 711 439 l 711 83 q 618 58 669 67 q 508 48 567 48 q 309 102 389 48 q 190 255 230 155 q 151 494 151 355 q 192 730 151 629 q 315 888 234 831 q 515 945 397 945 q 627 931 571 945 q 738 886 682 917 l 766 945 q 646 992 708 977 q 515 1006 584 1006 q 278 941 375 1006 q 130 761 180 876 q 79 494 79 645 q 126 227 79 341 q 266 50 173 113 q 499 -14 359 -14 q 643 0 572 -14 q 777 40 714 13 l 777 501 l 475 501 m 537 -85 l 467 -85 q 454 -154 464 -113 q 432 -232 444 -194 q 410 -294 420 -270 l 410 -307 l 447 -307 q 485 -239 467 -276 q 515 -165 502 -203 q 537 -96 529 -128 l 537 -85 "},"ģ":{"ha":604,"x_min":18,"x_max":588,"o":"m 370 1062 l 332 1062 q 293 995 311 1031 q 262 921 275 958 q 241 852 249 884 l 241 840 l 311 840 q 324 908 314 868 q 347 987 334 949 q 370 1049 359 1026 l 370 1062 m 269 -334 q 499 -270 418 -334 q 580 -90 580 -205 q 527 53 580 5 q 373 101 473 101 l 260 101 q 207 110 229 101 q 174 134 185 119 q 162 172 162 149 q 181 234 162 209 q 231 281 199 259 q 288 275 258 275 q 452 340 393 275 q 511 515 511 404 q 498 603 511 559 q 459 680 486 646 l 588 690 l 588 737 l 386 737 q 360 746 374 743 q 329 750 346 749 q 290 751 312 751 q 172 721 222 751 q 95 636 122 691 q 68 508 68 582 q 98 376 68 431 q 182 296 129 320 q 122 236 142 269 q 102 166 102 203 q 120 105 102 131 q 167 64 138 79 q 59 -1 100 51 q 18 -130 18 -52 q 84 -280 18 -227 q 269 -334 151 -334 m 274 -277 q 134 -238 184 -277 q 85 -124 85 -199 q 106 -31 85 -66 q 166 20 127 4 q 252 35 204 35 l 355 35 q 438 25 402 35 q 494 -13 474 15 q 514 -91 514 -41 q 487 -194 514 -153 q 407 -256 460 -235 q 274 -277 353 -277 m 290 330 q 175 376 214 330 q 136 508 136 423 q 177 648 136 597 q 288 698 218 698 q 402 651 361 698 q 444 511 444 604 q 404 376 444 422 q 290 330 363 330 "},"Ĥ":{"ha":849,"x_min":123,"x_max":727,"o":"m 727 0 l 727 991 l 659 991 l 659 552 l 191 552 l 191 991 l 123 991 l 123 0 l 191 0 l 191 489 l 659 489 l 659 0 l 727 0 m 462 1316 l 395 1316 q 354 1248 380 1286 q 301 1172 328 1209 q 251 1107 273 1134 l 251 1096 l 294 1096 q 363 1172 327 1128 q 429 1253 399 1215 q 495 1171 459 1214 q 564 1096 530 1128 l 607 1096 l 607 1107 q 559 1168 587 1131 q 505 1245 532 1206 q 462 1316 479 1285 "},"ĥ":{"ha":706,"x_min":-35,"x_max":602,"o":"m 176 1055 l 109 1055 l 109 0 l 176 0 l 176 405 q 200 566 176 503 q 271 661 225 630 q 380 692 317 692 q 495 644 455 692 q 535 486 535 595 l 535 0 l 602 0 l 602 495 q 577 638 602 582 q 506 723 553 695 q 388 751 458 751 q 290 731 332 751 q 219 679 248 711 q 176 607 191 646 l 172 607 q 175 656 174 631 q 176 711 176 680 l 176 1055 m 176 1379 l 109 1379 q 68 1312 94 1350 q 15 1235 42 1273 q -35 1171 -13 1198 l -35 1160 l 8 1160 q 77 1235 41 1192 q 143 1317 113 1279 q 209 1235 173 1278 q 277 1160 244 1192 l 321 1160 l 321 1171 q 273 1232 301 1195 q 219 1309 245 1270 q 176 1379 193 1349 "},"Ħ":{"ha":851,"x_min":-1,"x_max":851,"o":"m 123 0 l 191 0 l 191 488 l 658 488 l 658 0 l 726 0 l 726 749 l 851 749 l 851 807 l 726 807 l 726 991 l 658 991 l 658 807 l 191 807 l 191 991 l 123 991 l 123 807 l -1 807 l -1 749 l 123 749 l 123 0 m 191 552 l 191 749 l 659 749 l 659 552 l 191 552 "},"ħ":{"ha":709,"x_min":17,"x_max":605,"o":"m 179 1055 l 113 1055 l 113 919 l 17 919 l 17 863 l 113 863 l 113 0 l 178 0 l 178 398 q 203 560 178 497 q 274 654 229 623 q 384 684 320 684 q 498 636 458 684 q 538 479 538 587 l 538 0 l 605 0 l 605 488 q 581 631 605 574 q 509 716 556 688 q 392 745 462 745 q 293 725 336 745 q 223 672 251 705 q 179 600 195 639 l 175 600 q 178 649 177 625 q 179 701 179 672 l 179 863 l 425 863 l 425 919 l 179 919 l 179 1055 "},"Ĩ":{"ha":313,"x_min":-56,"x_max":371,"o":"m 123 0 l 191 0 l 191 991 l 123 991 l 123 0 m -56 1106 l -8 1106 q 17 1176 -3 1156 q 63 1197 37 1197 q 108 1183 87 1197 q 151 1151 129 1169 q 197 1120 172 1133 q 252 1106 222 1106 q 334 1144 301 1106 q 371 1253 366 1181 l 324 1253 q 299 1183 318 1204 q 252 1161 280 1161 q 207 1175 229 1161 q 164 1207 186 1189 q 118 1238 142 1225 q 63 1252 94 1252 q 17 1242 38 1252 q -19 1214 -4 1232 q -43 1168 -34 1196 q -56 1106 -52 1141 "},"ĩ":{"ha":284,"x_min":-82,"x_max":344,"o":"m 175 0 l 175 737 l 109 737 l 109 0 l 175 0 m -82 852 l -35 852 q -9 922 -29 901 q 37 943 10 943 q 81 929 60 943 q 124 897 102 915 q 171 865 146 879 q 225 852 195 852 q 307 889 275 852 q 345 998 340 927 l 298 998 q 273 928 292 950 q 226 907 254 907 q 181 921 202 907 q 138 952 159 935 q 92 984 116 970 q 37 998 67 998 q -9 988 12 998 q -45 960 -31 978 q -70 914 -60 941 q -82 852 -79 887 "},"Ī":{"ha":313,"x_min":-12,"x_max":326,"o":"m 123 0 l 191 0 l 191 991 l 123 991 l 123 0 m 327 1162 l -12 1162 l -12 1106 l 327 1106 l 327 1162 "},"ī":{"ha":284,"x_min":-28,"x_max":311,"o":"m 175 0 l 175 737 l 109 737 l 109 0 l 175 0 m 311 907 l -28 907 l -28 852 l 311 852 l 311 907 "},"Ĭ":{"ha":313,"x_min":-11,"x_max":326,"o":"m 123 0 l 191 0 l 191 991 l 123 991 l 123 0 m 327 1261 l 277 1261 q 259 1203 274 1227 q 219 1166 245 1179 q 158 1154 194 1154 q 96 1166 121 1154 q 55 1202 70 1178 q 37 1261 41 1226 l -11 1261 q 38 1140 -6 1182 q 157 1098 81 1098 q 244 1118 208 1098 q 302 1175 281 1138 q 327 1261 323 1211 "},"ĭ":{"ha":284,"x_min":-27,"x_max":311,"o":"m 175 0 l 175 737 l 109 737 l 109 0 l 175 0 m 311 1007 l 261 1007 q 243 949 258 973 q 203 912 229 924 q 142 899 178 899 q 79 911 105 899 q 39 948 54 924 q 21 1007 24 972 l -27 1007 q 21 886 -22 928 q 140 844 65 844 q 228 864 191 844 q 286 920 264 884 q 311 1007 307 957 "},"Į":{"ha":313,"x_min":25,"x_max":209,"o":"m 123 0 l 191 0 l 191 991 l 123 991 l 123 0 m 84 -177 q 113 -86 84 -129 q 191 0 141 -44 l 150 16 q 83 -46 111 -14 q 40 -114 56 -79 q 25 -186 25 -149 q 56 -273 25 -243 q 143 -304 87 -304 q 180 -300 163 -304 q 209 -294 197 -297 l 209 -244 q 185 -249 200 -247 q 153 -252 170 -252 q 102 -233 119 -252 q 84 -177 84 -214 "},"į":{"ha":289,"x_min":9,"x_max":195,"o":"m 178 737 l 112 737 l 112 0 l 178 0 l 178 737 m 146 1012 q 110 996 121 1012 q 98 954 98 979 q 110 912 98 928 q 146 897 123 897 q 182 912 170 897 q 195 954 195 928 q 183 996 195 979 q 146 1012 171 1012 m 68 -177 q 97 -86 68 -129 q 176 0 125 -44 l 134 16 q 68 -46 96 -14 q 25 -114 40 -79 q 9 -186 9 -149 q 41 -273 9 -243 q 127 -304 72 -304 q 165 -300 148 -304 q 193 -294 182 -297 l 193 -244 q 169 -249 184 -247 q 137 -252 154 -252 q 86 -233 104 -252 q 68 -177 68 -214 "},"İ":{"ha":313,"x_min":110,"x_max":205,"o":"m 123 0 l 191 0 l 191 991 l 123 991 l 123 0 m 158 1257 q 122 1241 134 1257 q 110 1199 110 1225 q 122 1158 110 1173 q 158 1142 134 1142 q 194 1158 182 1142 q 206 1200 206 1173 q 195 1241 206 1225 q 158 1257 183 1257 "},"Ĳ":{"ha":624,"x_min":123,"x_max":506,"o":"m 123 0 l 191 0 l 191 991 l 123 991 l 123 0 m 314 -251 q 422 -223 380 -251 q 485 -142 465 -196 q 506 -9 506 -88 l 506 991 l 438 991 l 438 -5 q 426 -106 438 -66 q 385 -167 413 -146 q 311 -188 357 -188 q 261 -183 286 -188 q 218 -172 237 -179 l 218 -234 q 261 -247 237 -242 q 314 -251 285 -251 "},"ĳ":{"ha":575,"x_min":98,"x_max":479,"o":"m 178 737 l 112 737 l 112 0 l 178 0 l 178 737 m 146 1012 q 110 996 121 1012 q 98 954 98 979 q 110 912 98 928 q 146 897 123 897 q 182 912 170 897 q 195 954 195 928 q 183 996 195 979 q 146 1012 171 1012 m 317 -334 q 394 -315 362 -334 q 445 -254 427 -295 q 463 -149 463 -212 l 463 737 l 396 737 l 396 -144 q 375 -242 396 -210 q 311 -273 355 -273 q 277 -271 293 -273 q 245 -262 260 -268 l 245 -321 q 276 -331 258 -327 q 317 -334 294 -334 m 383 954 q 395 912 383 928 q 431 897 408 897 q 467 912 455 897 q 479 954 479 928 q 468 996 479 979 q 431 1012 456 1012 q 395 996 407 1012 q 383 954 383 979 "},"Ĵ":{"ha":311,"x_min":-95,"x_max":335,"o":"m 1 -251 q 109 -223 67 -251 q 172 -142 151 -196 q 193 -9 193 -88 l 193 991 l 125 991 l 125 -5 q 112 -106 125 -66 q 72 -167 100 -146 q -2 -188 43 -188 q -52 -183 -28 -188 q -95 -172 -76 -179 l -95 -234 q -53 -247 -77 -242 q 1 -251 -28 -251 m 191 1312 l 124 1312 q 83 1244 109 1282 q 30 1167 57 1205 q -20 1103 2 1130 l -20 1092 l 23 1092 q 92 1167 56 1124 q 158 1249 127 1211 q 223 1167 188 1210 q 292 1092 259 1124 l 336 1092 l 336 1103 q 288 1164 316 1127 q 234 1241 260 1202 q 191 1312 208 1281 "},"ĵ":{"ha":289,"x_min":-40,"x_max":323,"o":"m 32 -334 q 109 -315 76 -334 q 159 -254 141 -295 q 177 -149 177 -212 l 177 737 l 111 737 l 111 -144 q 90 -241 111 -208 q 25 -273 69 -273 q -9 -271 7 -273 q -40 -262 -25 -268 l -40 -321 q -9 -331 -28 -327 q 32 -334 9 -334 m 178 1061 l 111 1061 q 70 994 96 1032 q 17 917 44 955 q -33 852 -11 880 l -33 842 l 10 842 q 79 917 43 873 q 145 999 115 961 q 211 917 175 960 q 279 842 246 874 l 323 842 l 323 852 q 275 914 303 877 q 221 991 248 951 q 178 1061 195 1031 "},"Ķ":{"ha":684,"x_min":123,"x_max":686,"o":"m 686 0 l 343 564 l 673 991 l 593 991 l 283 593 q 231 521 255 553 q 191 466 208 490 l 191 991 l 123 991 l 123 0 l 191 0 l 191 393 l 295 511 l 607 0 l 686 0 m 429 -85 l 359 -85 q 346 -154 356 -113 q 324 -232 336 -194 q 302 -294 312 -270 l 302 -307 l 339 -307 q 377 -239 359 -276 q 408 -165 394 -203 q 429 -96 421 -128 l 429 -85 "},"ķ":{"ha":581,"x_min":109,"x_max":577,"o":"m 176 1055 l 109 1055 l 109 0 l 176 0 l 176 263 l 279 389 l 502 0 l 577 0 l 324 439 l 556 737 l 479 737 l 238 420 q 206 377 222 399 q 174 333 191 356 l 172 333 q 175 425 174 380 q 176 518 176 471 l 176 1055 m 361 -85 l 290 -85 q 277 -154 288 -113 q 255 -232 267 -194 q 233 -294 243 -270 l 233 -307 l 271 -307 q 308 -239 291 -276 q 339 -165 326 -203 q 361 -96 353 -128 l 361 -85 "},"ĸ":{"ha":581,"x_min":109,"x_max":577,"o":"m 556 737 l 479 737 l 231 409 q 203 370 216 389 q 174 330 190 351 l 173 330 q 177 424 176 375 q 178 524 178 473 l 178 737 l 109 737 l 109 0 l 178 0 l 178 262 l 282 387 l 502 0 l 577 0 l 328 436 l 556 737 "},"Ĺ":{"ha":601,"x_min":111,"x_max":573,"o":"m 123 0 l 573 0 l 573 63 l 191 63 l 191 991 l 123 991 l 123 0 m 347 1317 l 268 1317 q 223 1249 248 1285 q 169 1178 197 1213 q 111 1110 140 1142 l 111 1096 l 155 1096 q 205 1143 179 1117 q 259 1198 232 1169 q 308 1255 286 1227 q 347 1306 331 1283 l 347 1317 "},"ĺ":{"ha":284,"x_min":92,"x_max":328,"o":"m 176 0 l 176 1055 l 109 1055 l 109 0 l 176 0 m 328 1381 l 249 1381 q 204 1313 229 1349 q 150 1241 178 1277 q 92 1174 121 1206 l 92 1160 l 136 1160 q 186 1207 160 1181 q 240 1262 213 1233 q 289 1319 267 1291 q 328 1370 312 1347 l 328 1381 "},"Ļ":{"ha":601,"x_min":123,"x_max":573,"o":"m 123 0 l 573 0 l 573 63 l 191 63 l 191 991 l 123 991 l 123 0 m 397 -85 l 327 -85 q 314 -154 324 -113 q 292 -232 304 -194 q 270 -294 280 -270 l 270 -307 l 307 -307 q 345 -239 328 -276 q 376 -165 362 -203 q 397 -96 389 -128 l 397 -85 "},"ļ":{"ha":284,"x_min":65,"x_max":193,"o":"m 176 0 l 176 1055 l 109 1055 l 109 0 l 176 0 m 193 -85 l 122 -85 q 109 -154 119 -113 q 87 -232 99 -194 q 65 -294 75 -270 l 65 -307 l 102 -307 q 140 -239 123 -276 q 171 -165 157 -203 q 193 -96 184 -128 l 193 -85 "},"Ľ":{"ha":601,"x_min":123,"x_max":573,"o":"m 123 0 l 573 0 l 573 63 l 191 63 l 191 991 l 123 991 l 123 0 m 560 991 l 489 991 q 481 944 487 973 q 469 882 476 914 q 456 823 463 850 q 443 783 449 795 l 443 768 l 480 768 q 513 833 497 795 q 541 911 528 872 q 560 980 553 951 l 560 991 "},"ľ":{"ha":286,"x_min":109,"x_max":344,"o":"m 176 0 l 176 1055 l 109 1055 l 109 0 l 176 0 m 345 1055 l 273 1055 q 266 1007 271 1037 q 254 946 260 978 q 240 886 247 913 q 227 846 233 859 l 227 832 l 264 832 q 297 897 281 859 q 325 975 313 936 q 345 1044 338 1015 l 345 1055 "},"Ŀ":{"ha":601,"x_min":123,"x_max":573,"o":"m 123 0 l 573 0 l 573 63 l 191 63 l 191 991 l 123 991 l 123 0 m 444 606 q 407 590 419 606 q 395 548 395 574 q 408 507 395 522 q 444 491 420 491 q 479 507 467 491 q 492 549 492 522 q 480 590 492 574 q 444 606 469 606 "},"ŀ":{"ha":322,"x_min":109,"x_max":353,"o":"m 176 0 l 176 1055 l 109 1055 l 109 0 l 176 0 m 304 613 q 268 597 280 613 q 256 555 256 581 q 269 513 256 529 q 304 498 281 498 q 340 513 328 498 q 353 555 353 529 q 341 597 353 581 q 304 613 330 613 "},"Ł":{"ha":604,"x_min":7,"x_max":574,"o":"m 125 0 l 574 0 l 574 63 l 193 63 l 193 409 l 423 553 l 393 602 l 193 477 l 193 991 l 125 991 l 125 434 l 7 359 l 38 311 l 125 366 l 125 0 "},"ł":{"ha":294,"x_min":-10,"x_max":314,"o":"m 113 0 l 179 0 l 179 505 l 314 597 l 283 644 l 179 572 l 179 1055 l 113 1055 l 113 528 l -10 444 l 20 397 l 113 460 l 113 0 "},"Ń":{"ha":868,"x_min":123,"x_max":745,"o":"m 745 0 l 745 991 l 680 991 l 680 326 q 681 261 680 296 q 683 189 682 225 q 684 119 684 152 l 681 119 l 199 991 l 123 991 l 123 0 l 189 0 l 189 674 q 188 747 189 712 q 186 815 186 783 q 184 878 185 847 l 187 878 l 670 0 l 745 0 m 604 1317 l 525 1317 q 480 1249 505 1285 q 426 1178 454 1213 q 368 1110 397 1142 l 368 1096 l 412 1096 q 463 1143 436 1117 q 516 1198 489 1169 q 565 1255 543 1227 q 604 1306 588 1283 l 604 1317 "},"ń":{"ha":706,"x_min":109,"x_max":602,"o":"m 390 751 q 290 731 332 751 q 219 677 248 711 q 174 602 191 643 l 170 602 l 162 737 l 109 737 l 109 0 l 176 0 l 176 411 q 230 623 176 553 q 382 692 285 692 q 496 644 456 692 q 535 488 535 595 l 535 0 l 602 0 l 602 498 q 547 690 602 629 q 390 751 492 751 m 541 1063 l 462 1063 q 417 995 442 1031 q 362 923 391 959 q 305 856 334 888 l 305 842 l 349 842 q 399 889 373 863 q 453 944 426 915 q 502 1001 479 973 q 541 1052 525 1029 l 541 1063 "},"Ņ":{"ha":868,"x_min":123,"x_max":745,"o":"m 745 0 l 745 991 l 680 991 l 680 326 q 681 261 680 296 q 683 189 682 225 q 684 119 684 152 l 681 119 l 199 991 l 123 991 l 123 0 l 189 0 l 189 674 q 188 747 189 712 q 186 815 186 783 q 184 878 185 847 l 187 878 l 670 0 l 745 0 m 490 -85 l 419 -85 q 406 -154 416 -113 q 384 -232 396 -194 q 362 -294 372 -270 l 362 -307 l 399 -307 q 437 -239 420 -276 q 468 -165 454 -203 q 490 -96 481 -128 l 490 -85 "},"ņ":{"ha":706,"x_min":109,"x_max":602,"o":"m 390 751 q 290 731 332 751 q 219 677 248 711 q 174 602 191 643 l 170 602 l 162 737 l 109 737 l 109 0 l 176 0 l 176 411 q 230 623 176 553 q 382 692 285 692 q 496 644 456 692 q 535 488 535 595 l 535 0 l 602 0 l 602 498 q 547 690 602 629 q 390 751 492 751 m 408 -85 l 338 -85 q 325 -154 335 -113 q 303 -232 315 -194 q 281 -294 291 -270 l 281 -307 l 318 -307 q 356 -239 338 -276 q 387 -165 373 -203 q 408 -96 400 -128 l 408 -85 "},"Ň":{"ha":868,"x_min":123,"x_max":745,"o":"m 745 0 l 745 991 l 680 991 l 680 326 q 681 261 680 296 q 683 189 682 225 q 684 119 684 152 l 681 119 l 199 991 l 123 991 l 123 0 l 189 0 l 189 674 q 188 747 189 712 q 186 815 186 783 q 184 878 185 847 l 187 878 l 670 0 l 745 0 m 401 1096 l 465 1096 q 507 1164 481 1127 q 560 1239 532 1202 q 610 1304 588 1276 l 610 1316 l 567 1316 q 497 1239 530 1278 q 433 1158 465 1200 q 369 1242 404 1199 q 301 1316 334 1284 l 258 1316 l 258 1304 q 307 1240 280 1277 q 359 1166 334 1204 q 401 1096 385 1128 "},"ň":{"ha":706,"x_min":109,"x_max":602,"o":"m 390 751 q 290 731 332 751 q 219 677 248 711 q 174 602 191 643 l 170 602 l 162 737 l 109 737 l 109 0 l 176 0 l 176 411 q 230 623 176 553 q 382 692 285 692 q 496 644 456 692 q 535 488 535 595 l 535 0 l 602 0 l 602 498 q 547 690 602 629 q 390 751 492 751 m 334 842 l 397 842 q 439 910 414 873 q 492 984 465 947 q 543 1050 520 1021 l 543 1061 l 499 1061 q 430 985 463 1023 q 365 904 397 946 q 301 987 336 945 q 233 1061 266 1030 l 190 1061 l 190 1050 q 239 986 212 1023 q 292 911 267 949 q 334 842 317 873 "},"ŉ":{"ha":745,"x_min":1,"x_max":641,"o":"m 429 751 q 329 731 372 751 q 258 677 287 711 q 214 602 230 643 l 210 602 l 201 737 l 148 737 l 148 0 l 215 0 l 215 411 q 270 623 215 553 q 421 692 324 692 q 535 644 496 692 q 574 488 574 595 l 574 0 l 641 0 l 641 498 q 586 690 641 629 q 429 751 532 751 m 143 991 l 77 991 q 64 913 71 954 q 47 830 56 873 q 25 745 37 788 q 1 663 14 703 l 51 663 q 92 765 73 713 q 126 872 111 818 q 153 977 142 926 l 143 991 "},"Ŋ":{"ha":869,"x_min":123,"x_max":747,"o":"m 555 -251 q 660 -223 617 -251 q 725 -139 703 -195 q 747 1 747 -83 l 747 991 l 681 991 l 681 342 q 681 276 681 311 q 683 208 682 242 q 685 140 684 173 l 682 140 l 198 991 l 123 991 l 123 0 l 189 0 l 189 675 q 188 749 189 714 q 185 818 186 785 q 183 880 184 851 l 186 880 l 682 9 q 666 -107 682 -64 q 622 -169 651 -150 q 553 -188 593 -188 q 503 -184 528 -188 q 459 -173 478 -180 l 459 -234 q 502 -246 475 -241 q 555 -251 528 -251 "},"ŋ":{"ha":706,"x_min":109,"x_max":602,"o":"m 458 -334 q 536 -313 505 -334 q 585 -248 568 -291 q 602 -142 602 -205 l 602 496 q 578 638 602 582 q 507 723 553 695 q 390 751 460 751 q 290 731 332 751 q 219 676 248 710 q 175 602 191 642 l 171 602 l 162 737 l 109 737 l 109 0 l 176 0 l 176 413 q 201 570 176 509 q 272 661 226 631 q 380 691 318 691 q 495 643 456 691 q 535 489 535 594 l 535 -142 q 514 -241 535 -208 q 452 -274 493 -274 q 420 -271 435 -274 q 389 -262 404 -269 l 389 -321 q 420 -331 403 -327 q 458 -334 437 -334 "},"Ō":{"ha":896,"x_min":79,"x_max":816,"o":"m 816 497 q 776 764 816 649 q 656 943 736 879 q 452 1006 575 1006 q 248 946 330 1006 q 122 772 165 886 q 79 498 79 659 q 101 299 79 392 q 166 136 122 206 q 281 26 211 66 q 449 -14 351 -14 q 615 25 546 -14 q 729 134 685 64 q 795 296 774 203 q 816 497 816 389 m 151 498 q 183 736 151 636 q 283 890 216 836 q 452 944 350 944 q 671 828 597 944 q 745 497 745 713 q 713 256 745 357 q 616 102 682 155 q 449 48 550 48 q 283 103 350 48 q 183 258 216 157 q 151 498 151 359 m 616 1162 l 277 1162 l 277 1106 l 616 1106 l 616 1162 "},"ō":{"ha":699,"x_min":71,"x_max":627,"o":"m 627 370 q 597 572 627 486 q 506 705 567 658 q 352 751 445 751 q 198 707 261 751 q 103 577 136 662 q 71 370 71 492 q 89 210 71 281 q 143 89 107 139 q 230 13 178 39 q 349 -14 281 -14 q 470 13 418 -14 q 557 89 522 39 q 609 209 592 138 q 627 370 627 280 m 139 370 q 192 608 139 524 q 351 692 244 692 q 472 652 426 692 q 538 540 517 612 q 559 370 559 468 q 537 194 559 267 q 468 84 515 121 q 350 46 422 46 q 231 85 278 46 q 162 196 184 123 q 139 370 139 269 m 518 907 l 179 907 l 179 852 l 518 852 l 518 907 "},"Ŏ":{"ha":896,"x_min":79,"x_max":816,"o":"m 816 497 q 776 764 816 649 q 656 943 736 879 q 452 1006 575 1006 q 248 946 330 1006 q 122 772 165 886 q 79 498 79 659 q 101 299 79 392 q 166 136 122 206 q 281 26 211 66 q 449 -14 351 -14 q 615 25 546 -14 q 729 134 685 64 q 795 296 774 203 q 816 497 816 389 m 151 498 q 183 736 151 636 q 283 890 216 836 q 452 944 350 944 q 671 828 597 944 q 745 497 745 713 q 713 256 745 357 q 616 102 682 155 q 449 48 550 48 q 283 103 350 48 q 183 258 216 157 q 151 498 151 359 m 617 1261 l 568 1261 q 550 1203 564 1227 q 510 1166 535 1179 q 448 1154 484 1154 q 386 1166 412 1154 q 346 1202 360 1178 q 328 1261 331 1226 l 279 1261 q 328 1140 284 1182 q 447 1098 372 1098 q 534 1118 498 1098 q 592 1175 571 1138 q 617 1261 613 1211 "},"ŏ":{"ha":699,"x_min":71,"x_max":627,"o":"m 627 370 q 597 572 627 486 q 506 705 567 658 q 352 751 445 751 q 198 707 261 751 q 103 577 136 662 q 71 370 71 492 q 89 210 71 281 q 143 89 107 139 q 230 13 178 39 q 349 -14 281 -14 q 470 13 418 -14 q 557 89 522 39 q 609 209 592 138 q 627 370 627 280 m 139 370 q 192 608 139 524 q 351 692 244 692 q 472 652 426 692 q 538 540 517 612 q 559 370 559 468 q 537 194 559 267 q 468 84 515 121 q 350 46 422 46 q 231 85 278 46 q 162 196 184 123 q 139 370 139 269 m 517 1007 l 468 1007 q 450 949 465 973 q 410 912 435 924 q 349 899 385 899 q 286 911 312 899 q 246 948 260 924 q 228 1007 231 972 l 180 1007 q 228 886 184 928 q 347 844 272 844 q 435 864 398 844 q 492 920 471 884 q 517 1007 513 957 "},"Ő":{"ha":896,"x_min":79,"x_max":816,"o":"m 816 497 q 776 764 816 649 q 656 943 736 879 q 452 1006 575 1006 q 248 946 330 1006 q 122 772 165 886 q 79 498 79 659 q 101 299 79 392 q 166 136 122 206 q 281 26 211 66 q 449 -14 351 -14 q 615 25 546 -14 q 729 134 685 64 q 795 296 774 203 q 816 497 816 389 m 151 498 q 183 736 151 636 q 283 890 216 836 q 452 944 350 944 q 671 828 597 944 q 745 497 745 713 q 713 256 745 357 q 616 102 682 155 q 449 48 550 48 q 283 103 350 48 q 183 258 216 157 q 151 498 151 359 m 714 1318 l 642 1318 q 606 1253 629 1291 q 556 1175 583 1214 q 508 1108 530 1137 l 508 1096 l 548 1096 q 593 1144 568 1117 q 641 1202 617 1172 q 683 1259 664 1232 q 714 1307 703 1286 l 714 1318 m 514 1318 l 441 1318 q 405 1253 428 1291 q 356 1177 382 1215 q 307 1108 330 1138 l 307 1096 l 347 1096 q 393 1145 368 1118 q 440 1202 417 1173 q 483 1259 464 1232 q 514 1307 503 1286 l 514 1318 "},"ő":{"ha":699,"x_min":71,"x_max":627,"o":"m 627 370 q 597 572 627 486 q 506 705 567 658 q 352 751 445 751 q 198 707 261 751 q 103 577 136 662 q 71 370 71 492 q 89 210 71 281 q 143 89 107 139 q 230 13 178 39 q 349 -14 281 -14 q 470 13 418 -14 q 557 89 522 39 q 609 209 592 138 q 627 370 627 280 m 139 370 q 192 608 139 524 q 351 692 244 692 q 472 652 426 692 q 538 540 517 612 q 559 370 559 468 q 537 194 559 267 q 468 84 515 121 q 350 46 422 46 q 231 85 278 46 q 162 196 184 123 q 139 370 139 269 m 620 1064 l 547 1064 q 511 998 534 1037 q 462 921 488 960 q 414 854 436 882 l 414 842 l 454 842 q 498 890 474 863 q 546 947 523 918 q 589 1005 570 977 q 620 1053 608 1032 l 620 1064 m 420 1064 l 347 1064 q 311 999 334 1037 q 262 922 288 961 q 213 854 236 884 l 213 842 l 252 842 q 298 891 274 863 q 346 948 323 918 q 389 1005 370 977 q 420 1053 408 1032 l 420 1064 "},"Œ":{"ha":1062,"x_min":79,"x_max":988,"o":"m 465 997 q 246 936 332 997 q 120 762 161 874 q 79 498 79 650 q 121 228 79 341 q 248 55 163 115 q 462 -5 333 -5 q 516 -3 491 -5 q 563 0 541 -1 l 988 0 l 988 62 l 597 62 l 597 490 l 966 490 l 966 552 l 597 552 l 597 930 l 988 930 l 988 991 l 568 991 q 519 996 543 994 q 465 997 496 997 m 463 936 q 500 934 484 936 q 529 928 517 932 l 529 62 q 500 58 516 60 q 463 56 484 56 q 285 111 354 56 q 183 264 216 165 q 151 498 151 364 q 167 675 151 595 q 221 813 184 755 q 317 904 258 871 q 463 936 376 936 "},"œ":{"ha":1143,"x_min":71,"x_max":1072,"o":"m 829 751 q 720 726 767 751 q 642 656 673 701 q 592 554 610 611 q 509 697 568 644 q 354 751 451 751 q 200 707 263 751 q 104 578 137 663 q 71 370 71 494 q 102 165 71 251 q 196 33 134 79 q 347 -14 258 -14 q 506 40 444 -14 q 593 184 567 94 q 684 40 621 93 q 852 -14 747 -14 q 956 -2 910 -14 q 1045 32 1001 9 l 1045 94 q 952 57 995 68 q 856 45 909 45 q 684 125 743 45 q 625 364 625 205 l 1072 364 l 1072 416 q 1046 585 1072 509 q 968 706 1021 661 q 829 751 915 751 m 353 692 q 471 653 426 692 q 537 542 515 614 q 558 369 558 469 q 536 196 558 269 q 468 85 514 124 q 347 45 421 45 q 231 84 277 45 q 162 195 184 123 q 139 370 139 268 q 192 608 139 525 q 353 692 244 692 m 829 693 q 930 658 890 693 q 987 561 969 623 q 1005 421 1006 499 l 626 421 q 689 626 635 559 q 829 693 743 693 "},"Ŕ":{"ha":708,"x_min":123,"x_max":681,"o":"m 315 991 l 123 991 l 123 0 l 191 0 l 191 433 l 378 433 l 602 0 l 681 0 l 442 452 q 545 505 503 470 q 610 594 587 540 q 633 722 633 648 q 598 880 633 821 q 491 965 562 939 q 315 991 420 991 m 311 930 q 503 883 442 930 q 564 721 564 836 q 505 550 564 606 q 340 494 445 494 l 191 494 l 191 930 l 311 930 m 545 1317 l 465 1317 q 420 1249 446 1285 q 366 1178 395 1213 q 309 1110 337 1142 l 309 1096 l 353 1096 q 403 1143 376 1117 q 456 1198 429 1169 q 506 1255 483 1227 q 545 1306 528 1283 l 545 1317 "},"ŕ":{"ha":463,"x_min":109,"x_max":446,"o":"m 363 750 q 278 728 315 750 q 216 670 241 705 q 177 593 191 634 l 172 593 l 163 737 l 109 737 l 109 0 l 176 0 l 176 397 q 189 508 176 456 q 224 600 201 559 q 282 662 248 640 q 360 685 317 685 q 399 682 381 685 q 434 673 418 678 l 446 736 q 406 747 427 743 q 363 750 385 750 m 443 1063 l 363 1063 q 318 995 344 1031 q 264 923 293 959 q 207 856 235 888 l 207 842 l 251 842 q 301 889 275 863 q 354 944 328 915 q 404 1001 381 973 q 443 1052 427 1029 l 443 1063 "},"Ŗ":{"ha":708,"x_min":123,"x_max":681,"o":"m 315 991 l 123 991 l 123 0 l 191 0 l 191 433 l 378 433 l 602 0 l 681 0 l 442 452 q 545 505 503 470 q 610 594 587 540 q 633 722 633 648 q 598 880 633 821 q 491 965 562 939 q 315 991 420 991 m 311 930 q 503 883 442 930 q 564 721 564 836 q 505 550 564 606 q 340 494 445 494 l 191 494 l 191 930 l 311 930 m 432 -85 l 361 -85 q 349 -154 359 -113 q 327 -232 338 -194 q 304 -294 315 -270 l 304 -307 l 342 -307 q 379 -239 362 -276 q 410 -165 397 -203 q 432 -96 424 -128 l 432 -85 "},"ŗ":{"ha":463,"x_min":67,"x_max":446,"o":"m 363 750 q 278 728 315 750 q 216 670 241 705 q 177 593 191 634 l 172 593 l 163 737 l 109 737 l 109 0 l 176 0 l 176 397 q 189 508 176 456 q 224 600 201 559 q 282 662 248 640 q 360 685 317 685 q 399 682 381 685 q 434 673 418 678 l 446 736 q 406 747 427 743 q 363 750 385 750 m 195 -85 l 124 -85 q 111 -154 121 -113 q 89 -232 101 -194 q 67 -294 77 -270 l 67 -307 l 104 -307 q 142 -239 125 -276 q 173 -165 159 -203 q 195 -96 186 -128 l 195 -85 "},"Ř":{"ha":708,"x_min":123,"x_max":681,"o":"m 315 991 l 123 991 l 123 0 l 191 0 l 191 433 l 378 433 l 602 0 l 681 0 l 442 452 q 545 505 503 470 q 610 594 587 540 q 633 722 633 648 q 598 880 633 821 q 491 965 562 939 q 315 991 420 991 m 311 930 q 503 883 442 930 q 564 721 564 836 q 505 550 564 606 q 340 494 445 494 l 191 494 l 191 930 l 311 930 m 330 1096 l 393 1096 q 436 1164 410 1127 q 489 1239 461 1202 q 539 1304 517 1276 l 539 1316 l 496 1316 q 426 1239 459 1278 q 361 1158 393 1200 q 297 1242 332 1199 q 230 1316 262 1284 l 186 1316 l 186 1304 q 236 1240 209 1277 q 288 1166 263 1204 q 330 1096 313 1128 "},"ř":{"ha":463,"x_min":92,"x_max":446,"o":"m 363 750 q 278 728 315 750 q 216 670 241 705 q 177 593 191 634 l 172 593 l 163 737 l 109 737 l 109 0 l 176 0 l 176 397 q 189 508 176 456 q 224 600 201 559 q 282 662 248 640 q 360 685 317 685 q 399 682 381 685 q 434 673 418 678 l 446 736 q 406 747 427 743 q 363 750 385 750 m 236 842 l 299 842 q 341 910 316 873 q 395 984 367 947 q 445 1050 422 1021 l 445 1061 l 401 1061 q 332 985 365 1023 q 267 904 299 946 q 203 987 238 945 q 136 1061 168 1030 l 92 1061 l 92 1050 q 142 986 115 1023 q 194 911 169 949 q 236 842 219 873 "},"Ś":{"ha":656,"x_min":66,"x_max":591,"o":"m 591 259 q 562 385 591 336 q 479 467 533 434 q 349 533 425 500 q 240 586 286 559 q 169 652 194 613 q 144 755 144 692 q 171 857 144 815 q 244 921 197 899 q 355 943 291 943 q 449 932 399 943 q 549 898 499 922 l 574 958 q 472 993 528 980 q 355 1006 416 1006 q 211 977 275 1006 q 111 891 148 947 q 75 753 75 835 q 92 651 75 694 q 139 578 109 608 q 213 524 170 547 q 307 479 256 501 q 428 421 380 449 q 499 354 475 393 q 522 256 522 316 q 495 144 522 191 q 417 73 467 98 q 297 49 367 49 q 173 63 234 49 q 66 97 113 77 l 66 27 q 132 5 96 14 q 210 -8 168 -3 q 296 -14 251 -14 q 450 18 384 -14 q 553 111 516 50 q 591 259 591 172 m 514 1317 l 435 1317 q 390 1249 415 1285 q 335 1178 364 1213 q 278 1110 307 1142 l 278 1096 l 322 1096 q 372 1143 346 1117 q 426 1198 399 1169 q 475 1255 452 1227 q 514 1306 498 1283 l 514 1317 "},"ś":{"ha":547,"x_min":55,"x_max":492,"o":"m 492 188 q 466 289 492 250 q 394 354 439 328 q 294 406 349 380 q 204 451 241 430 q 148 498 167 471 q 129 567 129 525 q 172 661 129 628 q 291 693 216 693 q 379 682 335 693 q 456 652 422 671 l 482 708 q 395 740 443 728 q 292 751 347 751 q 124 700 185 751 q 64 565 64 649 q 89 467 64 505 q 158 403 114 429 q 260 351 203 377 q 350 306 313 328 q 406 257 387 285 q 425 186 425 229 q 384 83 425 120 q 254 45 343 45 q 147 61 199 45 q 55 100 96 76 l 55 31 q 139 0 88 13 q 254 -14 190 -14 q 385 10 332 -14 q 465 79 437 34 q 492 188 492 125 m 452 1063 l 373 1063 q 328 995 353 1031 q 274 923 302 959 q 216 856 245 888 l 216 842 l 260 842 q 311 889 284 863 q 364 944 337 915 q 413 1001 391 973 q 452 1052 436 1029 l 452 1063 "},"Ŝ":{"ha":656,"x_min":66,"x_max":591,"o":"m 591 259 q 562 385 591 336 q 479 467 533 434 q 349 533 425 500 q 240 586 286 559 q 169 652 194 613 q 144 755 144 692 q 171 857 144 815 q 244 921 197 899 q 355 943 291 943 q 449 932 399 943 q 549 898 499 922 l 574 958 q 472 993 528 980 q 355 1006 416 1006 q 211 977 275 1006 q 111 891 148 947 q 75 753 75 835 q 92 651 75 694 q 139 578 109 608 q 213 524 170 547 q 307 479 256 501 q 428 421 380 449 q 499 354 475 393 q 522 256 522 316 q 495 144 522 191 q 417 73 467 98 q 297 49 367 49 q 173 63 234 49 q 66 97 113 77 l 66 27 q 132 5 96 14 q 210 -8 168 -3 q 296 -14 251 -14 q 450 18 384 -14 q 553 111 516 50 q 591 259 591 172 m 374 1316 l 308 1316 q 267 1248 292 1286 q 213 1172 241 1209 q 163 1107 186 1134 l 163 1096 l 207 1096 q 275 1172 239 1128 q 342 1253 311 1215 q 407 1171 372 1214 q 476 1096 443 1128 l 519 1096 l 519 1107 q 472 1168 500 1131 q 418 1245 444 1206 q 374 1316 391 1285 "},"ŝ":{"ha":547,"x_min":55,"x_max":492,"o":"m 492 188 q 466 289 492 250 q 394 354 439 328 q 294 406 349 380 q 204 451 241 430 q 148 498 167 471 q 129 567 129 525 q 172 661 129 628 q 291 693 216 693 q 379 682 335 693 q 456 652 422 671 l 482 708 q 395 740 443 728 q 292 751 347 751 q 124 700 185 751 q 64 565 64 649 q 89 467 64 505 q 158 403 114 429 q 260 351 203 377 q 350 306 313 328 q 406 257 387 285 q 425 186 425 229 q 384 83 425 120 q 254 45 343 45 q 147 61 199 45 q 55 100 96 76 l 55 31 q 139 0 88 13 q 254 -14 190 -14 q 385 10 332 -14 q 465 79 437 34 q 492 188 492 125 m 312 1061 l 245 1061 q 204 994 230 1032 q 151 917 178 955 q 101 852 123 880 l 101 842 l 144 842 q 213 917 177 873 q 279 999 249 961 q 345 917 309 960 q 414 842 380 874 l 457 842 l 457 852 q 410 914 437 877 q 355 991 382 951 q 312 1061 329 1031 "},"Ş":{"ha":656,"x_min":66,"x_max":591,"o":"m 591 259 q 562 385 591 336 q 479 467 533 434 q 349 533 425 500 q 240 586 286 559 q 169 652 194 613 q 144 755 144 692 q 171 857 144 815 q 244 921 197 899 q 355 943 291 943 q 449 932 399 943 q 549 898 499 922 l 574 958 q 472 993 528 980 q 355 1006 416 1006 q 211 977 275 1006 q 111 891 148 947 q 75 753 75 835 q 92 651 75 694 q 139 578 109 608 q 213 524 170 547 q 307 479 256 501 q 428 421 380 449 q 499 354 475 393 q 522 256 522 316 q 495 144 522 191 q 417 73 467 98 q 297 49 367 49 q 173 63 234 49 q 66 97 113 77 l 66 27 q 132 5 96 14 q 210 -8 168 -3 q 296 -14 251 -14 q 450 18 384 -14 q 553 111 516 50 q 591 259 591 172 m 435 -197 q 420 -141 435 -165 q 379 -102 406 -117 q 315 -82 352 -87 l 353 0 l 302 0 l 248 -115 q 343 -137 309 -119 q 377 -199 377 -155 q 347 -262 377 -241 q 267 -284 316 -284 q 229 -282 247 -284 q 196 -276 211 -280 l 196 -325 q 230 -331 211 -329 q 269 -334 248 -334 q 390 -297 346 -334 q 435 -197 435 -261 "},"ş":{"ha":547,"x_min":55,"x_max":492,"o":"m 492 188 q 466 289 492 250 q 394 354 439 328 q 294 406 349 380 q 204 451 241 430 q 148 498 167 471 q 129 567 129 525 q 172 661 129 628 q 291 693 216 693 q 379 682 335 693 q 456 652 422 671 l 482 708 q 395 740 443 728 q 292 751 347 751 q 124 700 185 751 q 64 565 64 649 q 89 467 64 505 q 158 403 114 429 q 260 351 203 377 q 350 306 313 328 q 406 257 387 285 q 425 186 425 229 q 384 83 425 120 q 254 45 343 45 q 147 61 199 45 q 55 100 96 76 l 55 31 q 139 0 88 13 q 254 -14 190 -14 q 385 10 332 -14 q 465 79 437 34 q 492 188 492 125 m 387 -197 q 372 -141 387 -165 q 331 -102 358 -117 q 267 -82 304 -87 l 304 0 l 254 0 l 200 -115 q 295 -137 260 -119 q 329 -199 329 -155 q 298 -262 329 -241 q 218 -284 268 -284 q 181 -282 199 -284 q 148 -276 163 -280 l 148 -325 q 181 -331 163 -329 q 221 -334 200 -334 q 342 -297 298 -334 q 387 -197 387 -261 "},"Š":{"ha":656,"x_min":66,"x_max":591,"o":"m 591 259 q 562 385 591 336 q 479 467 533 434 q 349 533 425 500 q 240 586 286 559 q 169 652 194 613 q 144 755 144 692 q 171 857 144 815 q 244 921 197 899 q 355 943 291 943 q 449 932 399 943 q 549 898 499 922 l 574 958 q 472 993 528 980 q 355 1006 416 1006 q 211 977 275 1006 q 111 891 148 947 q 75 753 75 835 q 92 651 75 694 q 139 578 109 608 q 213 524 170 547 q 307 479 256 501 q 428 421 380 449 q 499 354 475 393 q 522 256 522 316 q 495 144 522 191 q 417 73 467 98 q 297 49 367 49 q 173 63 234 49 q 66 97 113 77 l 66 27 q 132 5 96 14 q 210 -8 168 -3 q 296 -14 251 -14 q 450 18 384 -14 q 553 111 516 50 q 591 259 591 172 m 312 1096 l 375 1096 q 417 1164 392 1127 q 471 1239 443 1202 q 521 1304 498 1276 l 521 1316 l 477 1316 q 408 1239 441 1278 q 343 1158 375 1200 q 279 1242 314 1199 q 212 1316 244 1284 l 168 1316 l 168 1304 q 218 1240 191 1277 q 270 1166 245 1204 q 312 1096 295 1128 "},"š":{"ha":547,"x_min":55,"x_max":492,"o":"m 492 188 q 466 289 492 250 q 394 354 439 328 q 294 406 349 380 q 204 451 241 430 q 148 498 167 471 q 129 567 129 525 q 172 661 129 628 q 291 693 216 693 q 379 682 335 693 q 456 652 422 671 l 482 708 q 395 740 443 728 q 292 751 347 751 q 124 700 185 751 q 64 565 64 649 q 89 467 64 505 q 158 403 114 429 q 260 351 203 377 q 350 306 313 328 q 406 257 387 285 q 425 186 425 229 q 384 83 425 120 q 254 45 343 45 q 147 61 199 45 q 55 100 96 76 l 55 31 q 139 0 88 13 q 254 -14 190 -14 q 385 10 332 -14 q 465 79 437 34 q 492 188 492 125 m 247 842 l 310 842 q 352 910 327 873 q 406 984 378 947 q 456 1050 433 1021 l 456 1061 l 412 1061 q 343 985 376 1023 q 278 904 310 946 q 214 987 249 945 q 146 1061 179 1030 l 103 1061 l 103 1050 q 153 986 125 1023 q 205 911 180 949 q 247 842 230 873 "},"Ț":{"ha":610,"x_min":9,"x_max":599,"o":"m 338 0 l 338 930 l 599 930 l 599 991 l 9 991 l 9 930 l 269 930 l 269 0 l 338 0 m 350 -85 l 279 -85 q 267 -154 277 -113 q 244 -232 256 -194 q 222 -294 233 -270 l 222 -307 l 260 -307 q 297 -239 280 -276 q 328 -165 315 -203 q 350 -96 342 -128 l 350 -85 "},"ț":{"ha":391,"x_min":22,"x_max":362,"o":"m 276 45 q 200 81 222 45 q 178 188 178 117 l 178 681 l 359 681 l 359 737 l 178 737 l 178 914 l 132 914 l 112 739 l 22 720 l 22 681 l 112 681 l 112 184 q 128 74 112 118 q 177 8 144 31 q 265 -14 211 -14 q 319 -8 294 -14 q 362 5 343 -3 l 362 61 q 323 50 345 54 q 276 45 300 45 m 281 -85 l 210 -85 q 197 -154 208 -113 q 175 -232 187 -194 q 153 -294 163 -270 l 153 -307 l 191 -307 q 228 -239 211 -276 q 259 -165 245 -203 q 281 -96 273 -128 l 281 -85 "},"Ť":{"ha":610,"x_min":9,"x_max":599,"o":"m 338 0 l 338 930 l 599 930 l 599 991 l 9 991 l 9 930 l 269 930 l 269 0 l 338 0 m 271 1096 l 334 1096 q 377 1164 351 1127 q 430 1239 402 1202 q 480 1304 458 1276 l 480 1316 l 437 1316 q 367 1239 400 1278 q 302 1158 334 1200 q 238 1242 273 1199 q 171 1316 203 1284 l 127 1316 l 127 1304 q 177 1240 150 1277 q 229 1166 204 1204 q 271 1096 254 1128 "},"ť":{"ha":391,"x_min":22,"x_max":484,"o":"m 276 45 q 200 81 222 45 q 178 188 178 117 l 178 681 l 359 681 l 359 737 l 178 737 l 178 914 l 132 914 l 112 739 l 22 720 l 22 681 l 112 681 l 112 184 q 128 74 112 118 q 177 8 144 31 q 265 -14 211 -14 q 319 -8 294 -14 q 362 5 343 -3 l 362 61 q 323 50 345 54 q 276 45 300 45 m 484 1055 l 412 1055 q 405 1007 410 1037 q 393 946 399 978 q 379 886 386 913 q 366 846 372 859 l 366 832 l 404 832 q 436 897 420 859 q 464 975 452 936 q 484 1044 477 1015 l 484 1055 "},"Ŧ":{"ha":610,"x_min":9,"x_max":599,"o":"m 269 0 l 337 0 l 337 481 l 539 481 l 539 540 l 337 540 l 337 929 l 599 929 l 599 991 l 9 991 l 9 929 l 269 929 l 269 540 l 68 540 l 68 481 l 269 481 l 269 0 "},"ŧ":{"ha":391,"x_min":22,"x_max":362,"o":"m 29 392 l 349 392 l 349 447 l 29 447 l 29 392 m 276 45 q 200 81 222 45 q 178 188 178 117 l 178 681 l 359 681 l 359 737 l 178 737 l 178 914 l 132 914 l 112 739 l 22 720 l 22 681 l 112 681 l 112 184 q 128 74 112 118 q 177 8 144 31 q 265 -14 211 -14 q 319 -8 294 -14 q 362 5 343 -3 l 362 61 q 323 50 345 54 q 276 45 300 45 "},"Ũ":{"ha":846,"x_min":113,"x_max":734,"o":"m 734 991 l 665 991 l 665 326 q 636 168 665 230 q 553 77 608 106 q 424 48 499 48 q 244 117 307 48 q 181 330 181 185 l 181 991 l 113 991 l 113 329 q 193 73 113 159 q 422 -14 273 -14 q 587 23 517 -14 q 695 135 657 60 q 734 328 734 210 l 734 991 m 211 1106 l 258 1106 q 283 1176 264 1156 q 330 1197 303 1197 q 374 1183 353 1197 q 417 1151 395 1169 q 464 1120 439 1133 q 518 1106 488 1106 q 600 1144 568 1106 q 637 1253 633 1181 l 591 1253 q 566 1183 585 1204 q 519 1161 547 1161 q 474 1175 495 1161 q 431 1207 452 1189 q 385 1238 409 1225 q 330 1252 360 1252 q 283 1242 304 1252 q 248 1214 262 1232 q 223 1168 233 1196 q 211 1106 214 1141 "},"ũ":{"ha":706,"x_min":102,"x_max":596,"o":"m 596 737 l 529 737 l 529 330 q 505 171 529 234 q 436 77 481 108 q 323 46 391 46 q 209 97 248 46 q 170 256 170 147 l 170 737 l 102 737 l 102 245 q 126 102 102 160 q 196 15 149 44 q 315 -14 243 -14 q 416 7 374 -14 q 487 61 458 27 q 530 134 515 94 l 534 134 l 543 0 l 596 0 l 596 737 m 138 852 l 185 852 q 210 922 191 901 q 256 943 230 943 q 301 929 280 943 q 344 897 322 915 q 390 865 366 879 q 445 852 415 852 q 527 889 494 852 q 564 998 559 927 l 517 998 q 492 928 511 950 q 446 907 473 907 q 400 921 422 907 q 357 952 379 935 q 311 984 336 970 q 256 998 287 998 q 210 988 231 998 q 174 960 189 978 q 150 914 159 941 q 138 852 141 887 "},"Ū":{"ha":846,"x_min":113,"x_max":734,"o":"m 734 991 l 665 991 l 665 326 q 636 168 665 230 q 553 77 608 106 q 424 48 499 48 q 244 117 307 48 q 181 330 181 185 l 181 991 l 113 991 l 113 329 q 193 73 113 159 q 422 -14 273 -14 q 587 23 517 -14 q 695 135 657 60 q 734 328 734 210 l 734 991 m 593 1162 l 254 1162 l 254 1106 l 593 1106 l 593 1162 "},"ū":{"ha":706,"x_min":102,"x_max":596,"o":"m 596 737 l 529 737 l 529 330 q 505 171 529 234 q 436 77 481 108 q 323 46 391 46 q 209 97 248 46 q 170 256 170 147 l 170 737 l 102 737 l 102 245 q 126 102 102 160 q 196 15 149 44 q 315 -14 243 -14 q 416 7 374 -14 q 487 61 458 27 q 530 134 515 94 l 534 134 l 543 0 l 596 0 l 596 737 m 522 907 l 183 907 l 183 852 l 522 852 l 522 907 "},"Ŭ":{"ha":846,"x_min":113,"x_max":734,"o":"m 734 991 l 665 991 l 665 326 q 636 168 665 230 q 553 77 608 106 q 424 48 499 48 q 244 117 307 48 q 181 330 181 185 l 181 991 l 113 991 l 113 329 q 193 73 113 159 q 422 -14 273 -14 q 587 23 517 -14 q 695 135 657 60 q 734 328 734 210 l 734 991 m 592 1261 l 543 1261 q 525 1203 539 1227 q 485 1166 510 1179 q 423 1154 459 1154 q 361 1166 387 1154 q 320 1202 335 1178 q 302 1261 306 1226 l 254 1261 q 303 1140 259 1182 q 422 1098 347 1098 q 509 1118 473 1098 q 567 1175 546 1138 q 592 1261 588 1211 "},"ŭ":{"ha":706,"x_min":102,"x_max":596,"o":"m 596 737 l 529 737 l 529 330 q 505 171 529 234 q 436 77 481 108 q 323 46 391 46 q 209 97 248 46 q 170 256 170 147 l 170 737 l 102 737 l 102 245 q 126 102 102 160 q 196 15 149 44 q 315 -14 243 -14 q 416 7 374 -14 q 487 61 458 27 q 530 134 515 94 l 534 134 l 543 0 l 596 0 l 596 737 m 522 1007 l 472 1007 q 454 949 469 973 q 414 912 439 924 q 353 899 389 899 q 290 911 316 899 q 250 948 264 924 q 232 1007 235 972 l 184 1007 q 232 886 189 928 q 351 844 276 844 q 439 864 402 844 q 496 920 475 884 q 522 1007 517 957 "},"Ů":{"ha":846,"x_min":113,"x_max":734,"o":"m 734 991 l 665 991 l 665 326 q 636 168 665 230 q 553 77 608 106 q 424 48 499 48 q 244 117 307 48 q 181 330 181 185 l 181 991 l 113 991 l 113 329 q 193 73 113 159 q 422 -14 273 -14 q 587 23 517 -14 q 695 135 657 60 q 734 328 734 210 l 734 991 m 424 1103 q 522 1140 483 1103 q 561 1239 561 1177 q 522 1335 561 1298 q 423 1373 482 1373 q 325 1336 364 1373 q 286 1238 286 1299 q 326 1140 286 1176 q 424 1103 366 1103 m 425 1149 q 358 1175 382 1149 q 334 1238 334 1201 q 359 1302 334 1278 q 424 1327 384 1327 q 488 1302 463 1327 q 513 1238 513 1278 q 488 1175 513 1200 q 425 1149 464 1149 "},"ů":{"ha":706,"x_min":102,"x_max":596,"o":"m 596 737 l 529 737 l 529 330 q 505 171 529 234 q 436 77 481 108 q 323 46 391 46 q 209 97 248 46 q 170 256 170 147 l 170 737 l 102 737 l 102 245 q 126 102 102 160 q 196 15 149 44 q 315 -14 243 -14 q 416 7 374 -14 q 487 61 458 27 q 530 134 515 94 l 534 134 l 543 0 l 596 0 l 596 737 m 353 849 q 451 886 412 849 q 490 985 490 923 q 450 1081 490 1044 q 352 1118 411 1118 q 254 1082 293 1118 q 215 984 215 1045 q 255 885 215 922 q 353 849 294 849 m 353 895 q 287 921 311 895 q 262 984 262 947 q 288 1048 262 1023 q 353 1073 313 1073 q 417 1048 392 1073 q 441 983 441 1023 q 417 920 441 945 q 353 895 393 895 "},"Ű":{"ha":846,"x_min":113,"x_max":734,"o":"m 734 991 l 665 991 l 665 326 q 636 168 665 230 q 553 77 608 106 q 424 48 499 48 q 244 117 307 48 q 181 330 181 185 l 181 991 l 113 991 l 113 329 q 193 73 113 159 q 422 -14 273 -14 q 587 23 517 -14 q 695 135 657 60 q 734 328 734 210 l 734 991 m 688 1318 l 616 1318 q 580 1253 603 1291 q 531 1175 557 1214 q 482 1108 505 1137 l 482 1096 l 522 1096 q 567 1144 543 1117 q 615 1202 591 1172 q 657 1259 638 1232 q 688 1307 677 1286 l 688 1318 m 488 1318 l 416 1318 q 379 1253 402 1291 q 330 1177 356 1215 q 281 1108 304 1138 l 281 1096 l 321 1096 q 367 1145 342 1118 q 415 1202 391 1173 q 457 1259 438 1232 q 488 1307 477 1286 l 488 1318 "},"ű":{"ha":706,"x_min":102,"x_max":616,"o":"m 596 737 l 529 737 l 529 330 q 505 171 529 234 q 436 77 481 108 q 323 46 391 46 q 209 97 248 46 q 170 256 170 147 l 170 737 l 102 737 l 102 245 q 126 102 102 160 q 196 15 149 44 q 315 -14 243 -14 q 416 7 374 -14 q 487 61 458 27 q 530 134 515 94 l 534 134 l 543 0 l 596 0 l 596 737 m 616 1064 l 543 1064 q 507 998 530 1037 q 458 921 484 960 q 410 854 432 882 l 410 842 l 450 842 q 494 890 470 863 q 542 947 519 918 q 585 1005 566 977 q 616 1053 604 1032 l 616 1064 m 416 1064 l 343 1064 q 307 999 330 1037 q 258 922 283 961 q 209 854 232 884 l 209 842 l 248 842 q 294 891 270 863 q 342 948 319 918 q 385 1005 366 977 q 416 1053 404 1032 l 416 1064 "},"Ų":{"ha":846,"x_min":113,"x_max":734,"o":"m 498 -172 q 515 -95 498 -132 q 562 -21 532 -58 q 628 53 591 16 l 569 38 q 503 -26 532 9 q 457 -100 474 -62 q 439 -180 439 -139 q 472 -273 439 -243 q 560 -304 504 -304 q 597 -301 581 -304 q 627 -294 614 -298 l 627 -243 q 603 -249 618 -246 q 570 -252 587 -252 q 516 -232 534 -252 q 498 -172 498 -213 m 734 991 l 665 991 l 665 326 q 636 168 665 230 q 553 77 608 106 q 424 48 499 48 q 244 117 307 48 q 181 330 181 185 l 181 991 l 113 991 l 113 329 q 193 73 113 159 q 422 -14 273 -14 q 587 23 517 -14 q 695 135 657 60 q 734 328 734 210 l 734 991 "},"ų":{"ha":706,"x_min":102,"x_max":607,"o":"m 596 737 l 529 737 l 529 330 q 505 171 529 234 q 436 77 481 108 q 323 46 391 46 q 209 97 248 46 q 170 256 170 147 l 170 737 l 102 737 l 102 245 q 126 102 102 160 q 196 15 149 44 q 315 -14 243 -14 q 416 7 374 -14 q 487 61 458 27 q 530 134 515 94 l 534 134 l 543 0 l 596 0 l 596 737 m 482 -177 q 511 -86 482 -129 q 589 0 539 -44 l 548 16 q 481 -46 509 -14 q 438 -114 454 -79 q 423 -186 423 -149 q 454 -273 423 -243 q 541 -304 486 -304 q 578 -300 562 -304 q 607 -294 595 -297 l 607 -244 q 583 -249 598 -247 q 551 -252 568 -252 q 500 -233 517 -252 q 482 -177 482 -214 "},"Ŵ":{"ha":1088,"x_min":21,"x_max":1068,"o":"m 1068 991 l 998 991 l 827 283 q 811 216 819 248 q 798 151 804 183 q 787 85 792 119 q 778 136 782 112 q 769 183 773 159 q 759 231 764 206 q 747 283 753 256 l 574 991 l 508 991 l 340 285 q 329 238 334 262 q 318 189 323 214 q 308 138 313 164 q 299 89 303 113 q 292 128 296 107 q 283 174 288 149 q 272 225 278 198 q 259 283 266 252 l 91 991 l 21 991 l 259 0 l 336 0 l 513 746 q 522 784 517 766 q 529 821 526 803 q 535 857 532 839 q 541 893 538 875 q 548 853 544 873 q 555 814 551 833 q 564 776 559 795 q 573 736 568 757 l 751 0 l 827 0 l 1068 991 m 578 1316 l 511 1316 q 470 1248 496 1286 q 417 1172 444 1209 q 367 1107 389 1134 l 367 1096 l 410 1096 q 479 1172 443 1128 q 545 1253 515 1215 q 611 1171 575 1214 q 680 1096 646 1128 l 723 1096 l 723 1107 q 675 1168 703 1131 q 621 1245 648 1206 q 578 1316 595 1285 "},"ŵ":{"ha":882,"x_min":16,"x_max":865,"o":"m 612 0 l 684 0 l 865 737 l 799 737 l 684 254 q 669 193 675 220 q 659 140 663 165 q 650 87 654 115 l 646 87 q 635 146 641 117 q 622 206 629 176 q 606 267 614 236 l 481 737 l 412 737 l 284 269 q 271 217 277 242 q 260 169 264 193 q 251 125 255 146 q 243 87 246 105 l 240 87 q 229 143 235 115 q 216 203 223 172 q 200 271 209 235 l 85 737 l 16 737 l 203 0 l 275 0 l 410 501 q 420 539 415 521 q 429 577 425 558 q 437 614 433 596 q 444 650 441 632 l 447 650 q 455 614 451 632 q 463 578 458 597 q 472 541 467 560 q 482 502 476 522 l 612 0 m 477 1061 l 411 1061 q 370 994 395 1032 q 316 917 344 955 q 267 852 289 880 l 267 842 l 310 842 q 378 917 342 873 q 445 999 414 961 q 510 917 475 960 q 579 842 546 874 l 623 842 l 623 852 q 575 914 603 877 q 521 991 547 951 q 477 1061 494 1031 "},"Ŷ":{"ha":606,"x_min":0,"x_max":606,"o":"m 303 460 l 73 991 l 0 991 l 269 382 l 269 0 l 338 0 l 338 385 l 606 991 l 532 991 l 303 460 m 333 1316 l 267 1316 q 225 1248 251 1286 q 172 1172 199 1209 q 122 1107 144 1134 l 122 1096 l 165 1096 q 234 1172 198 1128 q 300 1253 270 1215 q 366 1171 330 1214 q 435 1096 401 1128 l 478 1096 l 478 1107 q 431 1168 458 1131 q 376 1245 403 1206 q 333 1316 350 1285 "},"ŷ":{"ha":553,"x_min":8,"x_max":548,"o":"m 12 737 l 247 9 l 203 -134 q 168 -216 186 -185 q 125 -261 149 -248 q 73 -275 102 -275 q 39 -272 56 -275 q 8 -262 23 -268 l 8 -323 q 42 -332 26 -328 q 79 -336 59 -336 q 160 -315 125 -336 q 220 -252 195 -295 q 267 -144 246 -210 l 548 737 l 478 737 l 329 256 q 302 169 314 210 q 282 93 290 129 l 277 93 q 267 136 273 113 q 253 188 261 159 q 231 256 244 217 l 81 737 l 12 737 m 306 1061 l 239 1061 q 198 994 224 1032 q 145 917 172 955 q 95 852 117 880 l 95 842 l 138 842 q 207 917 171 873 q 273 999 243 961 q 339 917 303 960 q 408 842 374 874 l 451 842 l 451 852 q 404 914 431 877 q 349 991 376 951 q 306 1061 323 1031 "},"Ÿ":{"ha":606,"x_min":0,"x_max":606,"o":"m 303 460 l 73 991 l 0 991 l 269 382 l 269 0 l 338 0 l 338 385 l 606 991 l 532 991 l 303 460 m 138 1188 q 150 1148 138 1163 q 182 1134 162 1134 q 216 1148 204 1134 q 227 1188 227 1162 q 216 1227 227 1213 q 182 1241 204 1241 q 150 1226 162 1241 q 138 1188 138 1212 m 372 1188 q 383 1148 372 1163 q 416 1134 395 1134 q 449 1148 437 1134 q 460 1188 460 1163 q 449 1227 460 1213 q 416 1241 437 1241 q 384 1227 395 1241 q 372 1188 372 1213 "},"Ź":{"ha":634,"x_min":45,"x_max":593,"o":"m 593 0 l 593 63 l 125 63 l 581 939 l 581 991 l 66 991 l 66 929 l 500 929 l 45 53 l 45 0 l 593 0 m 494 1317 l 415 1317 q 370 1249 395 1285 q 316 1178 345 1213 q 258 1110 287 1142 l 258 1096 l 302 1096 q 353 1143 326 1117 q 406 1198 379 1169 q 455 1255 433 1227 q 494 1306 478 1283 l 494 1317 "},"ź":{"ha":511,"x_min":47,"x_max":467,"o":"m 467 0 l 467 58 l 124 58 l 463 688 l 463 737 l 72 737 l 72 680 l 387 680 l 47 47 l 47 0 l 467 0 m 437 1063 l 357 1063 q 312 995 338 1031 q 258 923 287 959 q 201 856 229 888 l 201 842 l 245 842 q 295 889 269 863 q 348 944 321 915 q 398 1001 375 973 q 437 1052 420 1029 l 437 1063 "},"Ż":{"ha":634,"x_min":45,"x_max":593,"o":"m 593 0 l 593 63 l 125 63 l 581 939 l 581 991 l 66 991 l 66 929 l 500 929 l 45 53 l 45 0 l 593 0 m 320 1261 q 284 1245 296 1261 q 272 1203 272 1229 q 284 1162 272 1177 q 320 1146 296 1146 q 356 1162 344 1146 q 368 1204 368 1177 q 357 1245 368 1229 q 320 1261 345 1261 "},"ż":{"ha":511,"x_min":47,"x_max":467,"o":"m 467 0 l 467 58 l 124 58 l 463 688 l 463 737 l 72 737 l 72 680 l 387 680 l 47 47 l 47 0 l 467 0 m 257 1012 q 221 996 233 1012 q 209 954 209 979 q 221 912 209 928 q 257 897 233 897 q 293 912 281 897 q 305 954 305 928 q 294 996 305 979 q 257 1012 282 1012 "},"Ž":{"ha":634,"x_min":45,"x_max":593,"o":"m 593 0 l 593 63 l 125 63 l 581 939 l 581 991 l 66 991 l 66 929 l 500 929 l 45 53 l 45 0 l 593 0 m 288 1096 l 351 1096 q 394 1164 368 1127 q 447 1239 419 1202 q 497 1304 475 1276 l 497 1316 l 454 1316 q 384 1239 417 1278 q 319 1158 351 1200 q 255 1242 290 1199 q 188 1316 220 1284 l 144 1316 l 144 1304 q 194 1240 167 1277 q 246 1166 221 1204 q 288 1096 271 1128 "},"ž":{"ha":511,"x_min":47,"x_max":467,"o":"m 467 0 l 467 58 l 124 58 l 463 688 l 463 737 l 72 737 l 72 680 l 387 680 l 47 47 l 47 0 l 467 0 m 229 842 l 292 842 q 334 910 309 873 q 387 984 359 947 q 437 1050 415 1021 l 437 1061 l 394 1061 q 325 985 357 1023 q 260 904 292 946 q 196 987 231 945 q 128 1061 161 1030 l 85 1061 l 85 1050 q 134 986 107 1023 q 186 911 161 949 q 229 842 212 873 "},"ſ":{"ha":346,"x_min":111,"x_max":395,"o":"m 302 1004 q 342 1000 323 1004 q 380 990 361 996 l 395 1046 q 350 1058 373 1054 q 300 1063 327 1063 q 193 1033 235 1063 q 131 947 151 1004 q 111 806 111 890 l 111 0 l 177 0 l 177 805 q 208 958 178 912 q 302 1004 239 1004 "},"ƒ":{"ha":672,"x_min":92,"x_max":590,"o":"m 475 1006 q 370 978 411 1006 q 309 896 328 951 q 289 757 289 840 l 289 635 l 169 616 l 169 576 l 289 576 l 289 -108 q 262 -232 289 -191 q 176 -273 236 -273 q 134 -270 155 -273 q 92 -260 113 -266 l 92 -321 q 132 -330 110 -326 q 180 -334 155 -334 q 282 -306 244 -334 q 338 -227 321 -279 q 356 -101 356 -175 l 356 576 l 517 576 l 517 633 l 355 633 l 355 753 q 384 902 355 856 q 478 947 413 947 q 528 942 505 947 q 571 928 551 937 l 590 983 q 535 1000 562 995 q 475 1006 507 1006 "},"Ǻ":{"ha":699,"x_min":-3,"x_max":701,"o":"m -3 0 l 68 0 l 178 298 l 519 298 l 629 0 l 701 0 l 395 833 q 463 877 437 845 q 489 959 489 909 q 450 1058 489 1021 q 350 1095 410 1095 q 251 1058 290 1095 q 212 960 212 1021 q 239 876 212 908 q 306 833 265 844 l -3 0 m 199 360 l 321 703 q 329 728 325 715 q 337 752 333 740 q 344 775 340 764 q 351 800 347 787 q 360 767 355 784 q 371 733 365 751 q 382 696 376 715 l 500 360 l 199 360 m 351 866 q 283 891 308 866 q 258 959 258 917 q 283 1025 258 1000 q 350 1050 308 1050 q 417 1025 392 1050 q 442 959 442 1000 q 417 891 442 916 q 351 866 392 866 m 300 1133 l 346 1133 q 394 1176 369 1153 q 443 1224 419 1200 q 488 1274 467 1249 q 524 1320 509 1299 l 524 1331 l 444 1331 q 405 1272 427 1301 q 356 1211 382 1242 q 300 1146 330 1179 l 300 1133 "},"ǻ":{"ha":634,"x_min":58,"x_max":532,"o":"m 322 751 q 216 736 268 751 q 120 698 165 722 l 142 644 q 232 681 189 669 q 317 693 275 693 q 430 647 393 693 q 466 489 466 601 l 466 431 l 355 424 q 135 357 212 415 q 58 190 58 300 q 81 85 58 131 q 146 13 103 39 q 254 -14 190 -14 q 354 5 314 -14 q 422 54 395 23 q 467 124 449 85 l 471 124 l 480 0 l 532 0 l 532 497 q 481 690 532 629 q 322 751 430 751 m 466 378 l 466 302 q 416 113 466 183 q 267 42 366 42 q 164 80 201 42 q 127 191 127 118 q 186 320 127 276 q 361 372 245 365 l 466 378 m 327 1031 q 391 1006 366 1031 q 416 942 416 981 q 392 878 416 903 q 328 852 368 852 q 261 878 285 852 q 237 943 237 904 q 262 1006 237 981 q 327 1031 287 1031 m 327 1076 q 229 1040 268 1076 q 189 943 189 1003 q 229 844 189 880 q 328 808 269 808 q 426 844 387 808 q 465 942 465 881 q 446 1013 465 983 q 397 1060 428 1043 q 327 1076 366 1076 m 497 1311 l 410 1311 q 369 1251 392 1281 q 320 1190 346 1221 q 266 1128 294 1160 l 266 1116 l 312 1116 q 376 1172 341 1140 q 444 1238 412 1204 q 497 1301 476 1272 l 497 1311 "},"Ǽ":{"ha":969,"x_min":-1,"x_max":914,"o":"m 914 0 l 914 62 l 517 62 l 517 490 l 892 490 l 892 552 l 517 552 l 517 930 l 914 930 l 914 991 l 364 991 l -1 0 l 73 0 l 201 355 l 448 355 l 448 0 l 914 0 m 222 418 l 408 928 l 449 928 l 449 418 l 222 418 m 677 1317 l 598 1317 q 553 1249 578 1285 q 499 1178 528 1213 q 441 1110 470 1142 l 441 1096 l 486 1096 q 536 1143 509 1117 q 589 1198 562 1169 q 638 1255 616 1227 q 677 1306 661 1283 l 677 1317 "},"ǽ":{"ha":1027,"x_min":58,"x_max":957,"o":"m 719 751 q 585 705 638 751 q 505 585 532 659 q 445 711 491 671 q 318 751 398 751 q 212 736 264 751 q 117 699 160 722 l 140 644 q 231 681 187 669 q 315 693 275 693 q 421 647 384 693 q 458 500 458 602 l 458 429 l 352 423 q 193 391 259 418 q 93 314 127 364 q 58 191 58 264 q 81 84 58 130 q 148 12 104 38 q 257 -14 193 -14 q 366 9 319 -14 q 443 74 412 32 q 492 175 474 117 q 543 77 509 119 q 625 11 576 35 q 739 -14 674 -14 q 839 -2 792 -14 q 929 32 885 9 l 929 94 q 835 57 880 68 q 741 45 790 45 q 582 127 639 45 q 525 366 526 208 l 956 366 l 956 418 q 931 587 957 511 q 853 707 906 662 q 719 751 800 751 m 458 376 l 458 284 q 436 159 458 213 q 371 74 414 105 q 267 43 328 43 q 163 82 199 43 q 127 191 127 121 q 185 320 127 275 q 359 372 243 365 l 458 376 m 718 693 q 815 658 777 693 q 872 562 853 623 q 890 422 890 501 l 526 422 q 586 625 533 556 q 718 693 638 693 m 694 1063 l 615 1063 q 570 995 595 1031 q 516 923 545 959 q 458 856 487 888 l 458 842 l 503 842 q 553 889 526 863 q 606 944 579 915 q 655 1001 633 973 q 694 1052 678 1029 l 694 1063 "},"Ǿ":{"ha":907,"x_min":90,"x_max":826,"o":"m 826 497 q 801 714 826 618 q 727 877 776 810 l 808 1010 l 760 1039 l 687 920 q 588 984 644 962 q 461 1006 531 1006 q 257 946 340 1006 q 132 772 175 886 q 90 498 90 659 q 114 286 90 383 q 188 119 138 189 l 98 -31 l 146 -58 l 228 75 q 328 10 270 33 q 458 -14 385 -14 q 624 24 554 -14 q 738 131 693 62 q 804 293 783 199 q 826 497 826 386 m 755 497 q 724 256 755 357 q 626 101 692 155 q 458 47 560 47 q 348 70 397 47 q 262 135 299 92 l 687 810 q 738 676 721 755 q 755 497 755 597 m 160 498 q 193 736 160 636 q 293 890 226 836 q 461 945 360 945 q 570 924 522 945 q 653 861 617 903 l 229 186 q 177 321 194 243 q 160 498 160 400 m 639 1317 l 559 1317 q 514 1249 540 1285 q 460 1178 489 1213 q 403 1110 431 1142 l 403 1096 l 447 1096 q 497 1143 471 1117 q 550 1198 524 1169 q 600 1255 577 1227 q 639 1306 623 1283 l 639 1317 "},"ǿ":{"ha":713,"x_min":63,"x_max":644,"o":"m 638 370 q 621 527 638 456 q 570 648 604 598 l 644 768 l 598 795 l 531 689 q 458 735 500 720 q 363 751 416 751 q 155 652 227 751 q 83 370 83 553 q 100 215 83 283 q 150 96 117 146 l 63 -43 l 108 -72 l 187 54 q 263 4 220 22 q 360 -14 307 -14 q 513 32 452 -14 q 607 163 575 78 q 638 370 638 249 m 150 370 q 203 608 150 524 q 363 692 256 692 q 441 677 407 692 q 498 635 475 663 l 189 158 q 160 251 170 198 q 150 370 150 304 m 572 370 q 549 194 572 267 q 480 83 527 121 q 361 45 433 45 q 280 61 316 45 q 220 108 245 77 l 530 585 q 562 490 552 545 q 572 370 572 435 m 543 1063 l 463 1063 q 418 995 444 1031 q 364 923 393 959 q 307 856 335 888 l 307 842 l 351 842 q 401 889 374 863 q 454 944 427 915 q 504 1001 481 973 q 543 1052 526 1029 l 543 1063 "},"Ș":{"ha":656,"x_min":66,"x_max":591,"o":"m 591 259 q 562 385 591 336 q 479 467 533 434 q 349 533 425 500 q 240 586 286 559 q 169 652 194 613 q 144 755 144 692 q 171 857 144 815 q 244 921 197 899 q 355 943 291 943 q 449 932 399 943 q 549 898 499 922 l 574 958 q 472 993 528 980 q 355 1006 416 1006 q 211 977 275 1006 q 111 891 148 947 q 75 753 75 835 q 92 651 75 694 q 139 578 109 608 q 213 524 170 547 q 307 479 256 501 q 428 421 380 449 q 499 354 475 393 q 522 256 522 316 q 495 144 522 191 q 417 73 467 98 q 297 49 367 49 q 173 63 234 49 q 66 97 113 77 l 66 27 q 132 5 96 14 q 210 -8 168 -3 q 296 -14 251 -14 q 450 18 384 -14 q 553 111 516 50 q 591 259 591 172 m 360 -85 l 290 -85 q 277 -154 287 -113 q 255 -232 267 -194 q 233 -294 243 -270 l 233 -307 l 270 -307 q 308 -239 290 -276 q 338 -165 325 -203 q 360 -96 352 -128 l 360 -85 "},"ș":{"ha":547,"x_min":55,"x_max":492,"o":"m 492 188 q 466 289 492 250 q 394 354 439 328 q 294 406 349 380 q 204 451 241 430 q 148 498 167 471 q 129 567 129 525 q 172 661 129 628 q 291 693 216 693 q 379 682 335 693 q 456 652 422 671 l 482 708 q 395 740 443 728 q 292 751 347 751 q 124 700 185 751 q 64 565 64 649 q 89 467 64 505 q 158 403 114 429 q 260 351 203 377 q 350 306 313 328 q 406 257 387 285 q 425 186 425 229 q 384 83 425 120 q 254 45 343 45 q 147 61 199 45 q 55 100 96 76 l 55 31 q 139 0 88 13 q 254 -14 190 -14 q 385 10 332 -14 q 465 79 437 34 q 492 188 492 125 m 315 -85 l 245 -85 q 232 -154 242 -113 q 210 -232 222 -194 q 188 -294 198 -270 l 188 -307 l 225 -307 q 263 -239 245 -276 q 294 -165 280 -203 q 315 -96 307 -128 l 315 -85 "},"ˆ":{"ha":467,"x_min":56,"x_max":412,"o":"m 267 1061 l 200 1061 q 159 994 184 1032 q 105 917 133 955 q 56 852 78 880 l 56 842 l 99 842 q 168 917 132 873 q 234 999 203 961 q 299 917 264 960 q 368 842 335 874 l 412 842 l 412 852 q 364 914 392 877 q 310 991 336 951 q 267 1061 283 1031 "},"ˇ":{"ha":464,"x_min":56,"x_max":408,"o":"m 199 842 l 262 842 q 305 910 279 873 q 358 984 330 947 q 408 1050 386 1021 l 408 1061 l 365 1061 q 295 985 328 1023 q 231 904 262 946 q 166 987 201 945 q 99 1061 132 1030 l 56 1061 l 56 1050 q 105 986 78 1023 q 157 911 132 949 q 199 842 182 873 "},"ˉ":{"ha":450,"x_min":56,"x_max":395,"o":"m 395 907 l 56 907 l 56 852 l 395 852 l 395 907 "},"˘":{"ha":449,"x_min":56,"x_max":393,"o":"m 393 1007 l 344 1007 q 326 949 340 973 q 286 912 311 924 q 224 899 260 899 q 162 911 188 899 q 122 948 136 924 q 104 1007 107 972 l 56 1007 q 104 886 60 928 q 223 844 148 844 q 311 864 274 844 q 368 920 347 884 q 393 1007 389 957 "},"˙":{"ha":208,"x_min":56,"x_max":152,"o":"m 104 1012 q 67 996 79 1012 q 56 954 56 979 q 68 912 56 928 q 104 897 80 897 q 140 912 127 897 q 152 954 152 928 q 140 996 152 979 q 104 1012 129 1012 "},"˚":{"ha":386,"x_min":56,"x_max":330,"o":"m 193 849 q 291 886 252 849 q 330 985 330 923 q 291 1081 330 1044 q 193 1118 252 1118 q 95 1082 134 1118 q 56 984 56 1045 q 95 885 56 922 q 193 849 135 849 m 194 895 q 127 921 151 895 q 103 984 103 947 q 128 1048 103 1023 q 193 1073 153 1073 q 257 1048 233 1073 q 282 983 282 1023 q 258 920 282 945 q 194 895 233 895 "},"˛":{"ha":295,"x_min":56,"x_max":239,"o":"m 115 -177 q 143 -86 115 -129 q 222 0 172 -44 l 180 16 q 114 -46 142 -14 q 71 -114 86 -79 q 56 -186 56 -149 q 87 -273 56 -243 q 174 -304 118 -304 q 211 -300 194 -304 q 239 -294 228 -297 l 239 -244 q 215 -249 231 -247 q 183 -252 200 -252 q 132 -233 150 -252 q 115 -177 115 -214 "},"˜":{"ha":537,"x_min":56,"x_max":482,"o":"m 56 852 l 103 852 q 128 922 109 901 q 174 943 148 943 q 219 929 198 943 q 262 897 240 915 q 308 865 283 879 q 363 852 333 852 q 445 889 412 852 q 482 998 477 927 l 435 998 q 410 928 429 950 q 363 907 391 907 q 318 921 340 907 q 275 952 297 935 q 229 984 254 970 q 174 998 205 998 q 128 988 149 998 q 92 960 107 978 q 68 914 77 941 q 56 852 59 887 "},"˝":{"ha":518,"x_min":56,"x_max":463,"o":"m 463 1064 l 390 1064 q 354 998 377 1037 q 305 921 331 960 q 256 854 279 882 l 256 842 l 296 842 q 341 890 317 863 q 389 947 366 918 q 432 1005 412 977 q 463 1053 451 1032 l 463 1064 m 262 1064 l 190 1064 q 153 999 176 1037 q 104 922 130 961 q 56 854 79 884 l 56 842 l 95 842 q 141 891 117 863 q 189 948 165 918 q 232 1005 212 977 q 262 1053 251 1032 l 262 1064 "},"΄":{"ha":779,"x_min":352,"x_max":491,"o":"m 352 842 l 395 842 q 431 921 412 877 q 466 1009 450 964 q 491 1090 482 1053 l 491 1105 l 421 1105 q 409 1046 417 1080 q 392 977 401 1013 q 371 909 382 941 q 352 855 361 878 l 352 842 "},"΅":{"ha":762,"x_min":207,"x_max":556,"o":"m 467 1122 l 396 1122 q 385 1056 393 1093 q 368 982 378 1019 q 349 917 359 945 l 349 903 l 387 903 q 418 970 402 933 q 446 1044 433 1008 q 467 1108 459 1081 l 467 1122 m 251 967 q 219 952 231 967 q 207 913 207 937 q 219 874 207 888 q 251 859 231 859 q 284 873 273 859 q 295 913 295 888 q 284 952 295 937 q 251 967 273 967 m 511 967 q 479 952 490 967 q 468 913 468 937 q 479 874 468 888 q 511 859 490 859 q 544 874 532 859 q 556 913 556 888 q 544 952 556 938 q 511 967 532 967 "},"Ά":{"ha":701,"x_min":2,"x_max":700,"o":"m 629 0 l 700 0 l 391 994 l 316 994 l 2 0 l 73 0 l 184 355 l 519 355 l 629 0 m 500 418 l 203 418 l 317 798 q 329 840 323 818 q 341 883 335 861 q 352 926 347 904 q 364 882 358 905 q 376 838 370 860 q 388 798 382 817 l 500 418 m 37 798 l 79 798 q 115 877 96 833 q 151 965 134 920 q 176 1046 167 1009 l 176 1061 l 106 1061 q 94 1002 102 1036 q 76 933 86 968 q 56 865 66 897 q 37 811 45 833 l 37 798 "},"·":{"ha":303,"x_min":99,"x_max":205,"o":"m 99 684 q 112 637 99 654 q 151 621 125 621 q 191 636 178 621 q 205 684 205 652 q 192 730 205 715 q 151 746 178 746 q 112 729 124 746 q 99 684 99 713 "},"Έ":{"ha":730,"x_min":-1,"x_max":654,"o":"m 654 0 l 654 62 l 267 62 l 267 490 l 632 490 l 632 552 l 267 552 l 267 930 l 654 930 l 654 991 l 199 991 l 199 0 l 654 0 m -1 795 l 42 795 q 78 874 59 830 q 113 962 97 918 q 138 1044 130 1006 l 138 1058 l 68 1058 q 57 999 64 1033 q 39 930 49 966 q 19 863 29 895 q -1 808 8 831 l -1 795 "},"Ή":{"ha":926,"x_min":-1,"x_max":804,"o":"m 804 0 l 804 991 l 735 991 l 735 552 l 268 552 l 268 991 l 199 991 l 199 0 l 268 0 l 268 489 l 735 489 l 735 0 l 804 0 m -1 795 l 42 795 q 78 874 59 830 q 113 962 97 918 q 138 1044 130 1006 l 138 1058 l 68 1058 q 57 999 64 1033 q 39 930 49 966 q 19 863 29 895 q -1 808 8 831 l -1 795 "},"Ί":{"ha":379,"x_min":-1,"x_max":257,"o":"m 189 0 l 257 0 l 257 991 l 189 991 l 189 0 m -1 795 l 42 795 q 78 874 59 830 q 113 962 97 918 q 138 1044 130 1006 l 138 1058 l 68 1058 q 57 999 64 1033 q 39 930 49 966 q 19 863 29 895 q -1 808 8 831 l -1 795 "},"Ό":{"ha":916,"x_min":-1,"x_max":836,"o":"m 836 497 q 797 764 836 649 q 676 943 757 879 q 472 1006 595 1006 q 268 946 351 1006 q 142 772 185 886 q 100 498 100 659 q 121 299 100 392 q 187 136 142 206 q 301 26 231 66 q 469 -14 372 -14 q 636 25 566 -14 q 750 134 705 64 q 815 296 794 203 q 836 497 836 389 m 171 498 q 204 736 171 636 q 303 890 237 836 q 472 944 370 944 q 692 828 618 944 q 766 497 766 713 q 734 256 766 357 q 636 102 702 155 q 469 48 570 48 q 303 103 370 48 q 204 258 237 157 q 171 498 171 359 m -1 795 l 42 795 q 78 874 59 830 q 113 962 97 918 q 138 1044 130 1006 l 138 1058 l 68 1058 q 57 999 64 1033 q 39 930 49 966 q 19 863 29 895 q -1 808 8 831 l -1 795 "},"Ύ":{"ha":773,"x_min":-1,"x_max":773,"o":"m 471 460 l 241 991 l 168 991 l 437 382 l 437 0 l 505 0 l 505 385 l 773 991 l 700 991 l 471 460 m -1 795 l 42 795 q 78 874 59 830 q 113 962 97 918 q 138 1044 130 1006 l 138 1058 l 68 1058 q 57 999 64 1033 q 39 930 49 966 q 19 863 29 895 q -1 808 8 831 l -1 795 "},"Ώ":{"ha":930,"x_min":-1,"x_max":880,"o":"m 475 944 q 636 897 569 944 q 740 760 704 850 q 775 537 775 669 q 751 335 775 425 q 676 175 726 245 q 551 53 627 105 l 551 0 l 880 0 l 880 62 l 639 62 q 747 173 701 108 q 820 329 793 239 q 846 540 846 419 q 802 796 846 692 q 673 953 757 899 q 474 1006 590 1006 q 276 952 360 1006 q 147 793 193 897 q 102 541 102 689 q 130 332 102 422 q 204 175 157 241 q 310 62 251 109 l 68 62 l 68 0 l 396 0 l 396 53 q 278 173 328 104 q 200 333 227 242 q 173 538 173 423 q 210 758 173 667 q 314 897 246 849 q 475 944 382 944 m -1 795 l 42 795 q 78 874 59 831 q 113 963 97 918 q 138 1044 130 1007 l 138 1059 l 68 1059 q 57 1000 64 1034 q 39 931 49 966 q 19 863 29 895 q -1 809 8 831 l -1 795 "},"ΐ":{"ha":364,"x_min":-28,"x_max":341,"o":"m 169 737 l 103 737 l 103 176 q 121 64 103 106 q 173 5 138 23 q 257 -14 208 -14 q 302 -9 280 -14 q 342 1 325 -5 l 342 58 q 308 50 329 54 q 267 46 287 46 q 193 76 218 46 q 169 181 169 106 l 169 737 m 231 1122 l 161 1122 q 150 1056 157 1093 q 133 982 142 1019 q 114 917 123 945 l 114 903 l 152 903 q 182 970 167 933 q 211 1044 198 1008 q 231 1108 224 1081 l 231 1122 m 16 967 q -17 952 -5 967 q -28 913 -28 937 q -17 874 -28 888 q 16 859 -5 859 q 48 873 37 859 q 60 913 60 888 q 48 952 60 937 q 16 967 37 967 m 275 967 q 244 952 255 967 q 233 913 233 937 q 244 874 233 888 q 275 859 255 859 q 309 874 297 859 q 321 913 321 888 q 309 952 321 938 q 275 967 296 967 "},"Α":{"ha":699,"x_min":0,"x_max":698,"o":"m 627 0 l 698 0 l 389 994 l 314 994 l 0 0 l 71 0 l 182 355 l 517 355 l 627 0 m 498 418 l 201 418 l 315 798 q 327 840 321 818 q 339 883 333 861 q 350 926 345 904 q 362 882 356 905 q 374 838 368 860 q 386 798 380 817 l 498 418 "},"Β":{"ha":747,"x_min":123,"x_max":681,"o":"m 123 991 l 123 0 l 387 0 q 543 32 477 0 q 645 126 609 64 q 681 280 681 189 q 660 397 681 347 q 597 477 640 446 q 489 521 555 508 l 489 525 q 581 567 543 536 q 637 646 618 598 q 656 755 656 694 q 584 934 656 876 q 360 991 512 991 l 123 991 m 191 551 l 191 931 l 354 931 q 532 887 477 931 q 587 750 587 844 q 533 601 587 650 q 366 551 480 551 l 191 551 m 191 490 l 369 490 q 499 470 446 490 q 582 403 553 449 q 610 283 610 357 q 551 116 610 172 q 380 61 492 61 l 191 61 l 191 490 "},"Γ":{"ha":588,"x_min":123,"x_max":574,"o":"m 574 991 l 123 991 l 123 0 l 191 0 l 191 929 l 574 929 l 574 991 "},"Δ":{"ha":667,"x_min":15,"x_max":653,"o":"m 371 991 l 297 991 l 15 47 l 15 0 l 653 0 l 653 45 l 371 991 m 577 62 l 90 62 l 281 711 q 300 783 290 747 q 319 856 310 820 q 334 920 328 891 q 348 859 338 895 q 367 784 357 823 q 388 709 377 745 l 577 62 "},"Ε":{"ha":654,"x_min":123,"x_max":578,"o":"m 578 0 l 578 62 l 191 62 l 191 490 l 556 490 l 556 552 l 191 552 l 191 930 l 578 930 l 578 991 l 123 991 l 123 0 l 578 0 "},"Ζ":{"ha":634,"x_min":45,"x_max":593,"o":"m 593 0 l 593 63 l 125 63 l 581 939 l 581 991 l 66 991 l 66 929 l 500 929 l 45 53 l 45 0 l 593 0 "},"Η":{"ha":849,"x_min":123,"x_max":727,"o":"m 727 0 l 727 991 l 659 991 l 659 552 l 191 552 l 191 991 l 123 991 l 123 0 l 191 0 l 191 489 l 659 489 l 659 0 l 727 0 "},"Θ":{"ha":896,"x_min":79,"x_max":816,"o":"m 630 532 l 264 532 l 264 472 l 630 472 l 630 532 m 816 497 q 776 764 816 649 q 656 943 736 879 q 452 1006 575 1006 q 248 946 330 1006 q 122 772 165 886 q 79 498 79 659 q 101 299 79 392 q 166 136 122 206 q 281 26 211 66 q 449 -14 351 -14 q 615 25 546 -14 q 729 134 685 64 q 795 296 774 203 q 816 497 816 389 m 151 498 q 183 736 151 636 q 283 890 216 836 q 452 944 350 944 q 671 828 597 944 q 745 497 745 713 q 713 256 745 357 q 616 102 682 155 q 449 48 550 48 q 283 103 350 48 q 183 258 216 157 q 151 498 151 359 "},"Ι":{"ha":313,"x_min":123,"x_max":191,"o":"m 123 0 l 191 0 l 191 991 l 123 991 l 123 0 "},"Κ":{"ha":684,"x_min":123,"x_max":686,"o":"m 686 0 l 343 564 l 673 991 l 593 991 l 283 593 q 231 521 255 553 q 191 466 208 490 l 191 991 l 123 991 l 123 0 l 191 0 l 191 393 l 295 511 l 607 0 l 686 0 "},"Λ":{"ha":670,"x_min":0,"x_max":670,"o":"m 372 991 l 298 991 l 0 0 l 72 0 l 283 713 q 302 784 293 749 q 320 852 312 819 q 334 915 328 886 q 349 855 340 888 q 366 786 357 822 q 385 714 376 750 l 598 0 l 670 0 l 372 991 "},"Μ":{"ha":1069,"x_min":123,"x_max":947,"o":"m 501 0 l 566 0 l 880 903 l 884 903 q 882 839 883 868 q 881 787 881 810 q 880 745 880 763 l 880 0 l 947 0 l 947 991 l 847 991 l 536 102 l 532 102 l 223 991 l 123 991 l 123 0 l 189 0 l 189 743 q 188 788 189 764 q 186 841 187 812 q 184 904 185 869 l 187 904 l 501 0 "},"Ν":{"ha":868,"x_min":123,"x_max":745,"o":"m 745 0 l 745 991 l 680 991 l 680 326 q 681 261 680 296 q 683 189 682 225 q 684 119 684 152 l 681 119 l 199 991 l 123 991 l 123 0 l 189 0 l 189 674 q 188 747 189 712 q 186 815 186 783 q 184 878 185 847 l 187 878 l 670 0 l 745 0 "},"Ξ":{"ha":635,"x_min":46,"x_max":590,"o":"m 46 0 l 590 0 l 590 62 l 46 62 l 46 0 m 109 490 l 527 490 l 527 552 l 109 552 l 109 490 m 67 930 l 568 930 l 568 991 l 67 991 l 67 930 "},"Ο":{"ha":896,"x_min":79,"x_max":816,"o":"m 816 497 q 776 764 816 649 q 656 943 736 879 q 452 1006 575 1006 q 248 946 330 1006 q 122 772 165 886 q 79 498 79 659 q 101 299 79 392 q 166 136 122 206 q 281 26 211 66 q 449 -14 351 -14 q 615 25 546 -14 q 729 134 685 64 q 795 296 774 203 q 816 497 816 389 m 151 498 q 183 736 151 636 q 283 890 216 836 q 452 944 350 944 q 671 828 597 944 q 745 497 745 713 q 713 256 745 357 q 616 102 682 155 q 449 48 550 48 q 283 103 350 48 q 183 258 216 157 q 151 498 151 359 "},"Π":{"ha":846,"x_min":123,"x_max":723,"o":"m 123 0 l 191 0 l 191 930 l 656 930 l 656 0 l 723 0 l 723 991 l 123 991 l 123 0 "},"Ρ":{"ha":693,"x_min":123,"x_max":633,"o":"m 319 991 l 123 991 l 123 0 l 191 0 l 191 410 l 309 410 q 452 429 391 410 q 553 486 513 448 q 613 580 593 524 q 633 713 633 637 q 555 925 633 859 q 319 991 477 991 m 315 930 q 502 880 441 930 q 563 711 563 829 q 533 571 563 623 q 447 495 504 518 q 306 471 389 471 l 191 471 l 191 930 l 315 930 "},"Σ":{"ha":648,"x_min":41,"x_max":621,"o":"m 41 0 l 621 0 l 621 63 l 261 63 q 185 62 220 63 q 119 60 151 61 l 425 518 l 132 930 q 172 930 153 930 q 210 929 191 929 q 248 929 230 929 l 589 929 l 589 991 l 51 991 l 51 939 l 347 517 l 41 56 l 41 0 "},"Τ":{"ha":610,"x_min":9,"x_max":599,"o":"m 338 0 l 338 930 l 599 930 l 599 991 l 9 991 l 9 930 l 269 930 l 269 0 l 338 0 "},"Υ":{"ha":606,"x_min":0,"x_max":606,"o":"m 303 460 l 73 991 l 0 991 l 269 382 l 269 0 l 338 0 l 338 385 l 606 991 l 532 991 l 303 460 "},"Φ":{"ha":941,"x_min":72,"x_max":869,"o":"m 503 1006 l 437 1006 l 437 884 q 281 857 349 883 q 167 784 214 831 q 96 669 120 736 q 72 517 72 602 q 97 360 72 429 q 170 241 122 290 q 285 165 218 192 q 437 138 352 139 l 437 -14 l 503 -14 l 503 138 q 658 166 590 140 q 772 242 726 193 q 844 361 819 292 q 869 519 869 431 q 825 717 869 636 q 701 841 782 798 q 503 884 619 883 l 503 1006 m 437 823 l 437 198 q 281 236 348 200 q 178 342 215 272 q 141 517 141 412 q 177 684 141 616 q 278 787 212 752 q 437 823 345 822 m 503 823 q 664 789 598 822 q 765 690 730 756 q 800 520 800 623 q 764 344 800 414 q 661 237 728 273 q 503 198 595 201 l 503 823 "},"Χ":{"ha":621,"x_min":6,"x_max":616,"o":"m 616 0 l 357 515 l 602 991 l 528 991 l 318 573 l 111 991 l 36 991 l 277 517 l 6 0 l 79 0 l 315 458 l 540 0 l 616 0 "},"Ψ":{"ha":931,"x_min":89,"x_max":836,"o":"m 836 991 l 767 991 l 767 671 q 740 498 767 564 q 653 401 713 432 q 495 368 593 370 l 495 991 l 429 991 l 429 368 q 268 404 327 370 q 182 506 208 438 q 157 673 157 573 l 157 991 l 89 991 l 89 669 q 110 506 89 574 q 172 394 130 437 q 277 329 214 351 q 429 307 341 308 l 429 0 l 495 0 l 495 307 q 648 330 584 308 q 754 396 712 352 q 816 508 796 440 q 836 669 836 576 l 836 991 "},"Ω":{"ha":910,"x_min":50,"x_max":861,"o":"m 456 944 q 617 897 550 944 q 721 760 685 850 q 756 537 756 669 q 732 335 756 425 q 657 175 707 245 q 532 53 608 105 l 532 0 l 861 0 l 861 62 l 620 62 q 728 173 682 108 q 801 329 774 239 q 827 540 827 419 q 783 796 827 692 q 654 953 738 899 q 455 1006 571 1006 q 257 952 341 1006 q 128 793 174 897 q 83 541 83 689 q 111 332 83 422 q 185 175 138 241 q 291 62 232 109 l 50 62 l 50 0 l 377 0 l 377 53 q 259 173 309 104 q 181 333 208 242 q 154 538 154 423 q 191 758 154 667 q 295 897 227 849 q 456 944 363 944 "},"Ϊ":{"ha":313,"x_min":-4,"x_max":318,"o":"m 123 0 l 191 0 l 191 991 l 123 991 l 123 0 m -4 1179 q 8 1139 -4 1154 q 40 1124 20 1124 q 73 1139 62 1124 q 85 1179 85 1153 q 73 1217 85 1203 q 40 1232 62 1232 q 8 1217 20 1232 q -4 1179 -4 1202 m 229 1179 q 241 1139 229 1154 q 273 1124 252 1124 q 306 1139 294 1124 q 318 1179 318 1154 q 306 1217 318 1203 q 273 1232 294 1232 q 241 1217 253 1232 q 229 1179 229 1203 "},"Ϋ":{"ha":606,"x_min":0,"x_max":606,"o":"m 303 460 l 73 991 l 0 991 l 269 382 l 269 0 l 338 0 l 338 385 l 606 991 l 532 991 l 303 460 m 142 1177 q 154 1137 142 1152 q 186 1122 165 1122 q 219 1137 208 1122 q 231 1177 231 1151 q 219 1215 231 1201 q 186 1230 208 1230 q 154 1215 165 1230 q 142 1177 142 1200 m 375 1177 q 387 1137 375 1152 q 419 1122 398 1122 q 452 1137 440 1122 q 464 1177 464 1152 q 452 1215 464 1201 q 419 1230 440 1230 q 387 1215 399 1230 q 375 1177 375 1201 "},"ά":{"ha":726,"x_min":72,"x_max":715,"o":"m 338 45 q 190 125 239 45 q 140 363 140 205 q 192 606 140 521 q 345 692 243 692 q 491 620 443 692 q 539 399 539 547 l 539 343 q 518 187 539 254 q 453 83 498 120 q 338 45 409 45 m 329 -14 q 427 6 386 -14 q 496 60 469 26 q 539 132 524 94 l 544 132 q 576 20 550 54 q 656 -14 602 -14 q 679 -12 668 -14 q 700 -7 690 -9 q 715 -1 709 -5 l 715 53 q 693 47 706 49 q 669 45 680 45 q 622 72 637 45 q 606 171 606 99 l 606 486 q 609 591 606 545 q 618 673 612 637 q 632 737 624 709 l 578 737 q 557 681 566 711 q 545 621 549 650 l 541 621 q 464 718 515 684 q 340 751 414 751 q 144 654 216 751 q 72 364 72 557 q 138 82 72 178 q 329 -14 204 -14 m 319 842 l 362 842 q 398 921 379 877 q 433 1009 417 964 q 458 1090 450 1053 l 458 1105 l 389 1105 q 377 1046 385 1080 q 359 977 369 1013 q 339 909 349 941 q 319 855 328 878 l 319 842 "},"έ":{"ha":534,"x_min":60,"x_max":491,"o":"m 386 420 l 333 420 q 198 456 243 420 q 153 558 153 492 q 193 657 153 623 q 310 692 233 692 q 394 682 355 692 q 464 653 433 671 l 491 707 q 408 740 450 728 q 309 751 366 751 q 196 730 246 751 q 116 667 146 709 q 87 562 87 625 q 116 459 87 503 q 205 395 144 416 l 205 391 q 99 324 138 372 q 60 197 60 276 q 119 45 60 104 q 301 -14 178 -14 q 411 -2 364 -14 q 489 28 457 10 l 489 90 q 407 59 454 73 q 305 45 360 45 q 209 64 248 45 q 148 117 169 82 q 127 200 127 151 q 151 291 127 255 q 217 345 174 327 q 324 362 261 362 l 386 362 l 386 420 m 262 842 l 305 842 q 341 921 322 877 q 376 1009 360 964 q 401 1090 393 1053 l 401 1105 l 332 1105 q 320 1046 328 1080 q 302 977 312 1013 q 282 909 292 941 q 262 855 271 878 l 262 842 "},"ή":{"ha":706,"x_min":109,"x_max":602,"o":"m 391 751 q 291 731 333 751 q 219 676 248 710 q 175 602 191 642 l 171 602 l 162 737 l 109 737 l 109 0 l 176 0 l 176 413 q 201 570 176 508 q 272 662 226 631 q 381 692 318 692 q 496 643 456 692 q 535 488 535 595 l 535 -330 l 602 -330 l 602 498 q 577 642 602 586 q 505 724 552 697 q 391 751 458 751 m 325 842 l 368 842 q 404 921 385 877 q 439 1009 422 964 q 464 1090 455 1053 l 464 1105 l 394 1105 q 382 1046 390 1080 q 365 977 374 1013 q 344 909 355 941 q 325 855 334 878 l 325 842 "},"ί":{"ha":365,"x_min":103,"x_max":342,"o":"m 169 737 l 103 737 l 103 176 q 121 64 103 106 q 173 5 138 23 q 257 -14 208 -14 q 302 -9 280 -14 q 342 1 325 -5 l 342 58 q 308 50 329 54 q 267 46 287 46 q 193 76 218 46 q 169 181 169 106 l 169 737 m 109 842 l 151 842 q 187 921 168 877 q 222 1009 206 964 q 248 1090 239 1053 l 248 1105 l 178 1105 q 166 1046 174 1080 q 148 977 158 1013 q 128 909 138 941 q 109 855 117 878 l 109 842 "},"ΰ":{"ha":699,"x_min":102,"x_max":626,"o":"m 348 -13 q 556 86 486 -13 q 626 391 626 186 q 621 512 626 456 q 607 622 616 568 q 584 737 597 677 l 516 737 q 549 562 539 649 q 558 389 558 475 q 507 132 558 218 q 351 46 456 46 q 212 114 255 46 q 169 318 169 182 l 169 737 l 102 737 l 102 313 q 128 132 103 204 q 207 23 153 59 q 348 -13 261 -13 m 434 1122 l 363 1122 q 353 1056 360 1093 q 336 982 345 1019 q 317 917 326 945 l 317 903 l 355 903 q 385 970 370 933 q 414 1044 401 1008 q 434 1108 427 1081 l 434 1122 m 218 967 q 186 952 198 967 q 174 913 174 937 q 186 874 174 888 q 218 859 198 859 q 251 873 240 859 q 262 913 262 888 q 251 952 262 937 q 218 967 240 967 m 478 967 q 447 952 458 967 q 435 913 435 937 q 447 874 435 888 q 478 859 458 859 q 512 874 500 859 q 524 913 524 888 q 511 952 524 938 q 478 967 499 967 "},"α":{"ha":726,"x_min":72,"x_max":715,"o":"m 338 45 q 190 125 239 45 q 140 363 140 205 q 192 606 140 521 q 345 692 243 692 q 491 620 443 692 q 539 399 539 547 l 539 343 q 518 187 539 254 q 453 83 498 120 q 338 45 409 45 m 329 -14 q 427 6 386 -14 q 496 60 469 26 q 539 132 524 94 l 544 132 q 576 20 550 54 q 656 -14 602 -14 q 679 -12 668 -14 q 700 -7 690 -9 q 715 -1 709 -5 l 715 53 q 693 47 706 49 q 669 45 680 45 q 622 72 637 45 q 606 171 606 99 l 606 486 q 609 591 606 545 q 618 673 612 637 q 632 737 624 709 l 578 737 q 557 681 566 711 q 545 621 549 650 l 541 621 q 464 718 515 684 q 340 751 414 751 q 144 654 216 751 q 72 364 72 557 q 138 82 72 178 q 329 -14 204 -14 "},"β":{"ha":725,"x_min":109,"x_max":661,"o":"m 376 1063 q 233 1028 293 1063 q 141 928 173 994 q 109 770 109 863 l 109 -330 l 176 -330 l 176 51 q 270 5 220 22 q 382 -11 319 -11 q 533 25 471 -11 q 628 127 595 61 q 661 284 661 194 q 608 476 661 408 q 457 557 555 543 l 457 562 q 579 638 535 576 q 623 806 623 701 q 594 944 623 887 q 510 1032 565 1002 q 376 1063 454 1063 m 375 1004 q 508 951 462 1004 q 555 802 555 899 q 505 639 555 693 q 363 585 456 585 l 312 585 l 312 526 l 366 526 q 495 498 445 526 q 569 418 545 471 q 593 290 593 365 q 538 113 593 177 q 376 49 484 49 q 268 66 319 49 q 176 114 218 84 l 176 764 q 200 897 176 844 q 269 977 224 950 q 375 1004 313 1004 "},"γ":{"ha":556,"x_min":5,"x_max":545,"o":"m 545 737 l 475 737 l 335 290 q 315 218 325 252 q 297 151 305 183 q 283 89 289 119 l 279 89 q 266 152 274 119 q 246 220 257 184 q 224 290 235 255 l 75 737 l 5 737 l 247 8 q 224 -95 235 -36 q 204 -217 212 -155 q 197 -330 197 -279 l 266 -330 q 274 -212 267 -275 q 295 -80 281 -148 q 329 55 309 -12 l 545 737 "},"δ":{"ha":698,"x_min":71,"x_max":627,"o":"m 389 1061 q 231 1013 294 1061 q 168 877 168 965 q 188 788 168 827 q 243 714 208 749 q 328 643 279 680 q 188 563 245 614 q 101 444 131 513 q 71 294 71 376 q 104 134 71 203 q 200 26 137 65 q 350 -14 262 -14 q 502 27 440 -14 q 595 140 564 68 q 627 304 627 212 q 598 453 627 391 q 519 566 570 516 q 403 664 468 616 q 312 735 350 703 q 255 801 275 768 q 235 876 235 835 q 275 967 235 933 q 387 1001 315 1001 q 483 988 437 1001 q 572 949 528 975 l 602 1005 q 502 1045 555 1030 q 389 1061 449 1061 m 376 607 q 512 473 465 544 q 559 304 559 401 q 535 167 559 225 q 464 77 511 109 q 350 45 418 45 q 237 77 284 45 q 165 166 190 109 q 140 294 140 222 q 168 432 140 371 q 248 538 195 494 q 376 607 301 582 "},"ε":{"ha":534,"x_min":60,"x_max":491,"o":"m 386 420 l 333 420 q 198 456 243 420 q 153 558 153 492 q 193 657 153 623 q 310 692 233 692 q 394 682 355 692 q 464 653 433 671 l 491 707 q 408 740 450 728 q 309 751 366 751 q 196 730 246 751 q 116 667 146 709 q 87 562 87 625 q 116 459 87 503 q 205 395 144 416 l 205 391 q 99 324 138 372 q 60 197 60 276 q 119 45 60 104 q 301 -14 178 -14 q 411 -2 364 -14 q 489 28 457 10 l 489 90 q 407 59 454 73 q 305 45 360 45 q 209 64 248 45 q 148 117 169 82 q 127 200 127 151 q 151 291 127 255 q 217 345 174 327 q 324 362 261 362 l 386 362 l 386 420 "},"ζ":{"ha":547,"x_min":72,"x_max":513,"o":"m 508 -92 q 487 -12 508 -42 q 428 38 466 19 q 339 71 389 58 q 222 124 266 94 q 159 202 179 155 q 140 318 140 249 q 160 481 140 404 q 225 637 181 558 q 341 805 269 716 q 513 1003 412 895 l 513 1055 l 107 1055 l 107 996 l 303 996 q 353 997 328 996 q 399 999 377 998 q 437 1000 421 999 q 277 812 346 899 q 163 646 208 726 q 95 486 117 566 q 72 317 72 406 q 96 170 72 229 q 169 76 119 112 q 296 17 219 39 q 376 -10 345 5 q 424 -46 408 -24 q 441 -102 440 -68 q 430 -158 441 -128 q 399 -219 418 -189 q 357 -277 380 -250 l 430 -277 q 486 -188 463 -235 q 508 -92 508 -141 "},"η":{"ha":706,"x_min":109,"x_max":602,"o":"m 391 751 q 291 731 333 751 q 219 676 248 710 q 175 602 191 642 l 171 602 l 162 737 l 109 737 l 109 0 l 176 0 l 176 413 q 201 570 176 508 q 272 662 226 631 q 381 692 318 692 q 496 643 456 692 q 535 488 535 595 l 535 -330 l 602 -330 l 602 498 q 577 642 602 586 q 505 724 552 697 q 391 751 458 751 "},"θ":{"ha":701,"x_min":71,"x_max":632,"o":"m 632 541 q 562 937 632 805 q 351 1068 492 1068 q 196 1010 259 1068 q 102 834 134 951 q 71 539 71 717 q 140 124 71 261 q 349 -14 210 -14 q 507 47 444 -14 q 601 232 570 109 q 632 541 632 355 m 350 45 q 193 164 243 45 q 138 515 142 283 l 564 515 q 508 162 561 279 q 350 45 455 45 m 351 1010 q 509 899 458 1010 q 564 574 560 787 l 138 574 q 195 901 142 792 q 351 1010 247 1010 "},"ι":{"ha":366,"x_min":104,"x_max":343,"o":"m 170 737 l 104 737 l 104 176 q 122 64 104 106 q 174 5 140 23 q 258 -14 209 -14 q 304 -9 281 -14 q 343 1 326 -5 l 343 58 q 309 50 330 54 q 268 46 288 46 q 195 76 219 46 q 170 181 170 106 l 170 737 "},"κ":{"ha":581,"x_min":109,"x_max":577,"o":"m 556 737 l 479 737 l 231 409 q 203 370 216 389 q 174 330 190 351 l 173 330 q 177 424 176 375 q 178 524 178 473 l 178 737 l 109 737 l 109 0 l 178 0 l 178 262 l 282 387 l 502 0 l 577 0 l 328 436 l 556 737 "},"λ":{"ha":601,"x_min":2,"x_max":610,"o":"m 2 0 l 73 0 l 254 535 q 273 590 264 563 q 288 644 281 618 l 292 644 q 299 615 296 629 q 308 586 303 602 q 317 550 312 570 q 330 503 323 530 l 440 115 q 468 41 452 69 q 506 0 484 14 q 560 -13 528 -13 q 580 -12 572 -13 q 596 -8 589 -10 q 610 -4 603 -6 l 610 52 q 593 48 603 50 q 573 47 584 47 q 543 55 556 47 q 520 82 530 62 q 501 134 511 101 l 288 894 q 248 995 270 958 q 196 1048 226 1032 q 123 1064 166 1064 q 98 1063 110 1064 q 77 1059 86 1061 q 58 1053 67 1057 l 58 995 q 83 1002 70 998 q 114 1005 96 1005 q 181 977 157 1005 q 222 886 204 948 l 260 740 l 2 0 "},"μ":{"ha":711,"x_min":109,"x_max":602,"o":"m 602 737 l 536 737 l 536 332 q 515 174 536 238 q 450 78 494 111 q 335 46 406 46 q 215 97 255 46 q 175 253 175 148 l 175 737 l 109 737 l 109 -330 l 175 -330 l 175 -68 q 175 -22 175 -45 q 174 24 174 1 q 170 70 173 47 l 174 70 q 235 8 196 29 q 334 -14 275 -14 q 431 6 392 -14 q 495 58 469 26 q 535 127 520 90 l 539 127 l 548 0 l 602 0 l 602 737 "},"ν":{"ha":607,"x_min":9,"x_max":562,"o":"m 9 737 l 227 0 l 289 0 q 441 216 381 103 q 532 457 502 328 q 562 737 562 587 l 496 737 q 469 478 496 597 q 393 259 443 359 q 271 73 344 159 l 268 73 q 257 120 264 94 q 244 170 251 145 q 232 214 238 195 l 79 737 l 9 737 "},"ξ":{"ha":541,"x_min":73,"x_max":503,"o":"m 73 288 q 98 155 73 208 q 173 72 124 103 q 290 20 221 40 q 377 -11 345 5 q 424 -49 410 -28 q 437 -102 437 -70 q 429 -151 437 -124 q 402 -210 420 -178 q 357 -277 385 -241 l 428 -277 q 480 -186 458 -233 q 503 -91 503 -139 q 485 -16 503 -46 q 428 35 466 14 q 330 75 389 56 q 226 119 268 95 q 163 183 184 142 q 142 292 142 224 q 172 425 142 372 q 256 504 201 478 q 382 530 310 530 l 460 530 l 460 588 l 385 588 q 228 630 281 588 q 175 766 175 672 q 198 871 175 827 q 260 943 220 914 q 350 985 299 971 q 454 998 400 998 l 490 998 l 490 1055 l 95 1055 l 95 996 l 167 996 q 213 997 193 996 q 253 999 233 998 q 296 1001 273 1000 q 202 958 245 987 q 134 881 159 928 q 108 765 108 833 q 129 658 108 701 q 186 591 149 615 q 271 560 222 568 l 271 556 q 164 509 209 545 q 96 417 120 473 q 73 288 73 361 "},"ο":{"ha":699,"x_min":71,"x_max":627,"o":"m 627 370 q 597 572 627 486 q 506 705 567 658 q 352 751 445 751 q 198 707 261 751 q 103 577 136 662 q 71 370 71 492 q 89 210 71 281 q 143 89 107 139 q 230 13 178 39 q 349 -14 281 -14 q 470 13 418 -14 q 557 89 522 39 q 609 209 592 138 q 627 370 627 280 m 139 370 q 192 608 139 524 q 351 692 244 692 q 472 652 426 692 q 538 540 517 612 q 559 370 559 468 q 537 194 559 267 q 468 84 515 121 q 350 46 422 46 q 231 85 278 46 q 162 196 184 123 q 139 370 139 269 "},"π":{"ha":729,"x_min":13,"x_max":692,"o":"m 638 48 q 581 73 598 48 q 564 153 564 98 l 564 680 l 692 680 l 692 737 l 101 737 l 13 715 l 13 680 l 140 680 l 140 0 l 206 0 l 206 680 l 497 680 l 497 144 q 528 28 497 66 q 621 -11 559 -11 q 662 -7 644 -11 q 688 -1 680 -4 l 688 56 q 666 51 677 53 q 638 48 654 48 "},"ρ":{"ha":705,"x_min":106,"x_max":635,"o":"m 635 375 q 605 584 635 500 q 517 709 575 667 q 372 751 458 751 q 224 710 283 751 q 136 589 165 669 q 106 391 106 509 l 106 -330 l 174 -330 l 174 -114 q 173 -31 174 -71 q 168 55 172 10 l 173 55 q 256 5 208 24 q 364 -14 304 -14 q 514 32 454 -14 q 605 164 574 78 q 635 375 635 251 m 370 692 q 520 611 473 692 q 567 375 567 530 q 514 129 567 212 q 361 45 462 45 q 256 65 305 45 q 173 118 206 85 l 173 385 q 220 613 173 534 q 370 692 267 692 "},"ς":{"ha":545,"x_min":72,"x_max":512,"o":"m 363 751 q 205 709 270 751 q 106 581 140 667 q 72 367 72 496 q 86 229 72 287 q 127 132 100 172 q 196 66 155 92 q 293 23 237 40 q 377 -10 346 6 q 422 -48 409 -26 q 436 -100 436 -69 q 426 -156 436 -127 q 398 -215 416 -185 q 357 -277 380 -245 l 426 -277 q 478 -192 454 -239 q 502 -92 502 -144 q 480 -10 502 -41 q 421 42 459 21 q 330 79 382 62 q 216 138 257 102 q 157 228 174 173 q 140 367 140 283 q 195 609 140 528 q 364 690 250 690 q 431 684 398 690 q 494 663 464 677 l 512 722 q 446 743 484 735 q 363 751 408 751 "},"σ":{"ha":703,"x_min":72,"x_max":673,"o":"m 622 347 q 596 528 622 448 q 524 678 570 608 l 673 678 l 673 737 l 412 737 q 221 693 297 737 q 109 563 146 649 q 72 352 72 476 q 103 156 72 237 q 196 30 135 74 q 345 -14 257 -14 q 495 29 433 -14 q 589 152 557 71 q 622 347 622 232 m 140 353 q 204 595 140 512 q 410 678 268 678 l 459 678 q 511 578 490 629 q 543 470 532 526 q 553 348 553 414 q 502 125 553 204 q 347 45 450 45 q 231 82 277 45 q 163 188 185 119 q 140 353 140 257 "},"τ":{"ha":498,"x_min":7,"x_max":465,"o":"m 465 737 l 85 737 l 7 714 l 7 678 l 170 678 l 170 206 q 188 83 170 132 q 243 10 205 34 q 340 -14 281 -14 q 399 -8 370 -14 q 443 4 427 -3 l 443 60 q 399 49 423 53 q 351 45 374 45 q 263 85 289 45 q 237 214 237 125 l 237 678 l 465 678 l 465 737 "},"υ":{"ha":699,"x_min":102,"x_max":626,"o":"m 348 -13 q 556 86 486 -13 q 626 391 626 186 q 621 512 626 456 q 607 622 616 568 q 584 737 597 677 l 516 737 q 549 562 539 649 q 558 389 558 475 q 507 132 558 218 q 351 46 456 46 q 212 114 255 46 q 169 318 169 182 l 169 737 l 102 737 l 102 313 q 128 132 103 204 q 207 23 153 59 q 348 -13 261 -13 "},"φ":{"ha":840,"x_min":72,"x_max":770,"o":"m 212 747 q 109 581 146 671 q 72 373 72 491 q 106 172 72 257 q 210 40 141 87 q 384 -14 279 -7 l 384 -330 l 450 -330 l 450 -14 q 627 47 555 -7 q 734 193 698 102 q 770 399 770 283 q 745 583 770 503 q 672 707 721 662 q 552 751 624 751 q 425 692 467 751 q 384 521 384 632 l 384 45 q 248 90 302 50 q 166 202 193 130 q 140 373 140 274 q 172 562 140 480 q 263 712 204 643 l 212 747 m 552 692 q 631 659 597 693 q 683 559 664 624 q 701 399 701 494 q 671 214 701 292 q 585 93 641 136 q 449 45 528 50 l 449 515 q 472 646 449 599 q 552 692 495 692 "},"χ":{"ha":595,"x_min":19,"x_max":588,"o":"m 79 748 q 44 745 60 748 q 19 738 28 742 l 19 680 q 39 687 28 684 q 63 689 50 689 q 109 666 92 689 q 143 591 126 644 l 260 229 l 20 -330 l 91 -330 l 290 146 l 397 -194 q 431 -274 413 -243 q 474 -319 449 -305 q 535 -334 498 -334 q 565 -331 552 -334 q 588 -324 578 -328 l 588 -269 q 570 -273 580 -271 q 547 -275 559 -275 q 510 -264 525 -275 q 482 -230 494 -254 q 455 -165 469 -206 l 333 224 l 557 737 l 487 737 l 303 307 l 201 618 q 171 692 188 664 q 133 734 155 720 q 79 748 111 748 "},"ψ":{"ha":843,"x_min":100,"x_max":765,"o":"m 458 1055 l 392 1055 l 392 50 q 264 91 314 54 q 190 197 214 129 q 165 365 165 266 l 165 737 l 100 737 l 100 360 q 132 161 100 242 q 229 37 164 80 q 392 -9 294 -6 l 392 -330 l 458 -330 l 458 -9 q 629 45 562 -4 q 731 184 697 94 q 765 405 765 275 q 753 577 765 500 q 719 737 742 654 l 652 737 q 686 578 674 656 q 698 406 698 500 q 673 216 698 294 q 594 96 648 138 q 458 50 541 54 l 458 1055 "},"ω":{"ha":852,"x_min":73,"x_max":779,"o":"m 701 737 l 633 737 q 692 549 673 642 q 711 347 711 456 q 696 184 711 251 q 650 82 680 117 q 572 47 619 47 q 508 71 533 47 q 470 144 483 96 q 458 264 458 192 l 458 473 l 393 473 l 393 264 q 381 146 393 195 q 342 72 368 98 q 277 47 317 47 q 175 124 210 47 q 140 347 140 201 q 160 550 140 458 q 218 737 180 642 l 151 737 q 108 613 125 674 q 82 488 91 553 q 73 349 73 424 q 96 151 73 233 q 164 28 119 70 q 271 -14 209 -14 q 371 22 331 -14 q 424 117 410 57 l 427 117 q 478 21 441 56 q 577 -14 515 -14 q 692 33 648 -14 q 758 162 736 80 q 779 349 779 244 q 770 487 779 422 q 744 612 761 551 q 701 737 726 673 "},"ϊ":{"ha":369,"x_min":-14,"x_max":345,"o":"m 173 737 l 107 737 l 107 176 q 125 64 107 106 q 177 5 142 23 q 261 -14 212 -14 q 307 -9 284 -14 q 346 1 329 -5 l 346 58 q 312 50 333 54 q 271 46 291 46 q 197 76 222 46 q 173 181 173 106 l 173 737 m -14 934 q -2 894 -14 909 q 31 880 10 880 q 64 894 52 880 q 75 934 75 908 q 64 972 75 958 q 31 987 52 987 q -2 972 10 987 q -14 934 -14 958 m 220 934 q 231 894 220 909 q 264 880 243 880 q 297 894 285 880 q 309 934 309 909 q 297 972 309 958 q 264 987 285 987 q 232 972 243 987 q 220 934 220 958 "},"ϋ":{"ha":699,"x_min":102,"x_max":626,"o":"m 348 -13 q 556 86 486 -13 q 626 391 626 186 q 621 512 626 456 q 607 622 616 568 q 584 737 597 677 l 516 737 q 549 562 539 649 q 558 389 558 475 q 507 132 558 218 q 351 46 456 46 q 212 114 255 46 q 169 318 169 182 l 169 737 l 102 737 l 102 313 q 128 132 103 204 q 207 23 153 59 q 348 -13 261 -13 m 183 934 q 195 894 183 909 q 227 880 207 880 q 260 894 249 880 q 272 934 272 908 q 260 972 272 958 q 227 987 249 987 q 195 972 207 987 q 183 934 183 958 m 416 934 q 428 894 416 909 q 460 880 439 880 q 493 894 481 880 q 505 934 505 909 q 493 972 505 958 q 460 987 481 987 q 428 972 440 987 q 416 934 416 958 "},"ό":{"ha":699,"x_min":71,"x_max":627,"o":"m 627 370 q 597 572 627 486 q 506 705 567 658 q 352 751 445 751 q 198 707 261 751 q 103 577 136 662 q 71 370 71 492 q 89 210 71 281 q 143 89 107 139 q 230 13 178 39 q 349 -14 281 -14 q 470 13 418 -14 q 557 89 522 39 q 609 209 592 138 q 627 370 627 280 m 139 370 q 192 608 139 524 q 351 692 244 692 q 472 652 426 692 q 538 540 517 612 q 559 370 559 468 q 537 194 559 267 q 468 84 515 121 q 350 46 422 46 q 231 85 278 46 q 162 196 184 123 q 139 370 139 269 m 307 842 l 349 842 q 385 921 366 877 q 420 1009 404 964 q 446 1090 437 1053 l 446 1105 l 376 1105 q 364 1046 372 1080 q 346 977 356 1013 q 326 909 336 941 q 307 855 315 878 l 307 842 "},"ύ":{"ha":699,"x_min":102,"x_max":626,"o":"m 348 -13 q 556 86 486 -13 q 626 391 626 186 q 621 512 626 456 q 607 622 616 568 q 584 737 597 677 l 516 737 q 549 562 539 649 q 558 389 558 475 q 507 132 558 218 q 351 46 456 46 q 212 114 255 46 q 169 318 169 182 l 169 737 l 102 737 l 102 313 q 128 132 103 204 q 207 23 153 59 q 348 -13 261 -13 m 311 842 l 354 842 q 390 921 371 877 q 425 1009 409 964 q 450 1090 441 1053 l 450 1105 l 380 1105 q 369 1046 376 1080 q 351 977 361 1013 q 331 909 341 941 q 311 855 320 878 l 311 842 "},"ώ":{"ha":852,"x_min":73,"x_max":779,"o":"m 701 737 l 633 737 q 692 549 673 642 q 711 347 711 456 q 696 184 711 251 q 650 82 680 117 q 572 47 619 47 q 508 71 533 47 q 470 144 483 96 q 458 264 458 192 l 458 473 l 393 473 l 393 264 q 381 146 393 195 q 342 72 368 98 q 277 47 317 47 q 175 124 210 47 q 140 347 140 201 q 160 550 140 458 q 218 737 180 642 l 151 737 q 108 613 125 674 q 82 488 91 553 q 73 349 73 424 q 96 151 73 233 q 164 28 119 70 q 271 -14 209 -14 q 371 22 331 -14 q 424 117 410 57 l 427 117 q 478 21 441 56 q 577 -14 515 -14 q 692 33 648 -14 q 758 162 736 80 q 779 349 779 244 q 770 487 779 422 q 744 612 761 551 q 701 737 726 673 m 385 842 l 428 842 q 464 921 445 877 q 499 1009 483 964 q 524 1090 515 1053 l 524 1105 l 454 1105 q 443 1046 450 1080 q 425 977 435 1013 q 405 909 415 941 q 385 855 394 878 l 385 842 "},"Ё":{"ha":654,"x_min":123,"x_max":578,"o":"m 578 0 l 578 62 l 191 62 l 191 490 l 556 490 l 556 552 l 191 552 l 191 930 l 578 930 l 578 991 l 123 991 l 123 0 l 578 0 m 195 1176 q 207 1136 195 1151 q 239 1122 218 1122 q 272 1136 260 1122 q 283 1176 283 1150 q 272 1215 283 1200 q 239 1229 260 1229 q 207 1214 218 1229 q 195 1176 195 1200 m 428 1176 q 439 1136 428 1151 q 472 1122 451 1122 q 505 1136 493 1122 q 517 1176 517 1151 q 505 1215 517 1200 q 472 1229 493 1229 q 440 1215 452 1229 q 428 1176 428 1200 "},"Ђ":{"ha":799,"x_min":9,"x_max":703,"o":"m 509 -14 q 652 47 600 -14 q 703 222 703 108 l 703 361 q 644 538 703 480 q 467 595 584 595 l 272 595 l 272 930 l 542 930 l 542 991 l 9 991 l 9 930 l 204 930 l 204 0 l 272 0 l 272 533 l 456 533 q 595 490 553 533 q 636 356 636 447 l 636 224 q 620 124 636 163 q 574 66 603 85 q 505 48 545 48 q 465 52 484 48 q 428 62 446 56 l 428 -1 q 463 -10 443 -6 q 509 -14 484 -14 "},"Ѓ":{"ha":588,"x_min":123,"x_max":574,"o":"m 574 991 l 123 991 l 123 0 l 191 0 l 191 929 l 574 929 l 574 991 m 536 1305 l 457 1305 q 412 1237 437 1273 q 358 1165 387 1201 q 300 1098 329 1130 l 300 1084 l 345 1084 q 395 1131 368 1105 q 448 1186 421 1157 q 497 1243 475 1215 q 536 1294 520 1271 l 536 1305 "},"Є":{"ha":721,"x_min":79,"x_max":686,"o":"m 474 944 q 567 933 521 944 q 658 897 614 922 l 686 956 q 586 994 639 981 q 473 1006 533 1006 q 301 967 376 1006 q 178 859 227 928 q 104 697 129 789 q 79 500 79 605 q 123 230 79 346 q 251 51 166 115 q 460 -14 336 -14 q 571 -3 521 -14 q 661 26 621 8 l 661 90 q 574 61 622 73 q 467 48 527 48 q 328 81 387 48 q 230 173 269 114 q 172 312 191 233 q 151 485 152 391 l 572 485 l 572 547 l 152 547 q 179 702 157 629 q 240 828 201 774 q 338 913 280 883 q 474 944 396 944 "},"Ѕ":{"ha":656,"x_min":66,"x_max":591,"o":"m 591 259 q 562 385 591 336 q 479 467 533 434 q 349 533 425 500 q 240 586 286 559 q 169 652 194 613 q 144 755 144 692 q 171 857 144 815 q 244 921 197 899 q 355 943 291 943 q 449 932 399 943 q 549 898 499 922 l 574 958 q 472 993 528 980 q 355 1006 416 1006 q 211 977 275 1006 q 111 891 148 947 q 75 753 75 835 q 92 651 75 694 q 139 578 109 608 q 213 524 170 547 q 307 479 256 501 q 428 421 380 449 q 499 354 475 393 q 522 256 522 316 q 495 144 522 191 q 417 73 467 98 q 297 49 367 49 q 173 63 234 49 q 66 97 113 77 l 66 27 q 132 5 96 14 q 210 -8 168 -3 q 296 -14 251 -14 q 450 18 384 -14 q 553 111 516 50 q 591 259 591 172 "},"І":{"ha":313,"x_min":123,"x_max":191,"o":"m 123 0 l 191 0 l 191 991 l 123 991 l 123 0 "},"Ї":{"ha":313,"x_min":-4,"x_max":318,"o":"m 123 0 l 191 0 l 191 991 l 123 991 l 123 0 m -4 1177 q 8 1138 -4 1152 q 40 1123 20 1123 q 73 1137 62 1123 q 85 1177 85 1152 q 73 1216 85 1202 q 40 1230 62 1230 q 8 1216 20 1230 q -4 1177 -4 1201 m 229 1177 q 241 1138 229 1152 q 273 1123 252 1123 q 306 1138 294 1123 q 318 1177 318 1152 q 306 1216 318 1202 q 273 1230 294 1230 q 241 1216 253 1230 q 229 1177 229 1202 "},"Ј":{"ha":311,"x_min":-95,"x_max":193,"o":"m 1 -251 q 109 -223 67 -251 q 172 -142 151 -196 q 193 -9 193 -88 l 193 991 l 125 991 l 125 -5 q 112 -106 125 -66 q 72 -167 100 -146 q -2 -188 43 -188 q -52 -183 -28 -188 q -95 -172 -76 -179 l -95 -234 q -53 -247 -77 -242 q 1 -251 -28 -251 "},"Љ":{"ha":1083,"x_min":-5,"x_max":1024,"o":"m 60 -12 q 151 18 117 -12 q 205 102 184 47 q 239 229 226 157 q 255 318 247 269 q 270 426 262 366 q 286 559 278 485 q 303 726 294 634 q 321 928 312 817 l 538 928 l 538 0 l 733 0 q 949 74 875 0 q 1024 285 1024 147 q 990 437 1024 377 q 890 527 957 498 q 724 555 823 555 l 605 555 l 605 991 l 262 991 q 239 745 251 857 q 217 542 228 633 q 196 377 207 450 q 175 248 185 304 q 152 148 165 193 q 115 76 138 103 q 53 49 92 49 q 20 53 35 49 q -5 62 6 56 l -5 1 q 23 -9 7 -5 q 60 -12 39 -12 m 605 61 l 605 494 l 716 494 q 849 472 796 494 q 927 405 901 451 q 954 285 954 359 q 897 117 954 173 q 724 61 841 61 l 605 61 "},"Њ":{"ha":1118,"x_min":123,"x_max":1060,"o":"m 123 0 l 191 0 l 191 492 l 573 492 l 573 0 l 769 0 q 985 73 909 0 q 1060 286 1060 146 q 1027 437 1060 377 q 927 525 994 496 q 758 554 860 554 l 642 554 l 642 991 l 573 991 l 573 554 l 191 554 l 191 991 l 123 991 l 123 0 m 642 62 l 642 493 l 753 493 q 885 472 832 493 q 963 406 937 452 q 989 285 989 360 q 932 116 989 171 q 760 62 875 62 l 642 62 "},"Ћ":{"ha":806,"x_min":9,"x_max":704,"o":"m 551 991 l 9 991 l 9 929 l 204 929 l 204 0 l 272 0 l 272 533 l 466 533 q 597 491 557 533 q 636 357 636 449 l 636 0 l 704 0 l 704 363 q 647 539 704 484 q 475 595 590 595 l 272 595 l 272 929 l 551 929 l 551 991 "},"Ќ":{"ha":670,"x_min":123,"x_max":668,"o":"m 668 0 l 269 515 l 650 991 l 569 991 l 191 515 l 191 991 l 123 991 l 123 0 l 191 0 l 191 510 l 586 0 l 668 0 m 553 1305 l 474 1305 q 429 1237 454 1273 q 375 1165 404 1201 q 317 1098 346 1130 l 317 1084 l 361 1084 q 412 1131 385 1105 q 465 1186 438 1157 q 514 1243 492 1215 q 553 1294 537 1271 l 553 1305 "},"Ў":{"ha":641,"x_min":6,"x_max":640,"o":"m 640 991 l 568 991 l 372 439 q 363 411 368 425 q 353 381 358 396 q 345 350 349 366 l 340 350 q 329 386 334 370 q 319 415 324 402 q 309 441 314 429 l 79 991 l 6 991 l 306 274 q 258 149 282 198 q 202 74 233 99 q 127 50 171 50 q 82 55 103 50 q 41 69 61 60 l 41 3 q 81 -9 59 -4 q 132 -14 103 -14 q 234 13 192 -14 q 309 98 276 39 q 374 254 341 157 l 640 991 m 522 1274 l 460 1274 q 420 1166 454 1200 q 322 1133 387 1133 q 226 1166 258 1133 q 186 1274 193 1199 l 125 1274 q 153 1166 130 1208 q 218 1104 176 1124 q 321 1084 260 1084 q 428 1105 385 1084 q 494 1169 471 1127 q 522 1274 517 1211 "},"Џ":{"ha":846,"x_min":123,"x_max":723,"o":"m 723 0 l 723 991 l 655 991 l 655 63 l 191 63 l 191 991 l 123 991 l 123 0 l 389 0 l 389 -250 l 457 -250 l 457 0 l 723 0 "},"А":{"ha":699,"x_min":0,"x_max":698,"o":"m 627 0 l 698 0 l 389 994 l 314 994 l 0 0 l 71 0 l 182 355 l 517 355 l 627 0 m 498 418 l 201 418 l 315 798 q 327 840 321 818 q 339 883 333 861 q 350 926 345 904 q 362 882 356 905 q 374 838 368 860 q 386 798 380 817 l 498 418 "}}}
